LV UpItalic-Bold.ufo
<glyph name="exclam" format="1">
  <advance width="266"/>
  <unicode hex="0021"/>
  <outline>
    <contour>
      <point x="57" y="740" type="line"/>
      <point x="83" y="234" type="line"/>
      <point x="183" y="234" type="line"/>
      <point x="223" y="740" type="line"/>
    </contour>
    <contour>
      <point x="133" y="-10" type="curve"/>
      <point x="188" y="-10"/>
      <point x="226" y="27"/>
      <point x="226" y="79" type="curve"/>
      <point x="226" y="131"/>
      <point x="188" y="168"/>
      <point x="133" y="168" type="curve"/>
      <point x="78" y="168"/>
      <point x="40" y="131"/>
      <point x="40" y="79" type="curve"/>
      <point x="40" y="27"/>
      <point x="78" y="-10"/>
    </contour>
  </outline>
</glyph>
<glyph name="numbersign" format="1">
  <advance width="600"/>
  <unicode hex="0023"/>
  <outline>
    <contour>
      <point x="423" y="710" type="line"/>
      <point x="273" y="0" type="line"/>
      <point x="395" y="0" type="line"/>
      <point x="545" y="710" type="line"/>
    </contour>
    <contour>
      <point x="32" y="297" type="line"/>
      <point x="8" y="185" type="line"/>
      <point x="520" y="185" type="line"/>
      <point x="544" y="297" type="line"/>
    </contour>
    <contour>
      <point x="205" y="710" type="line"/>
      <point x="55" y="0" type="line"/>
      <point x="177" y="0" type="line"/>
      <point x="327" y="710" type="line"/>
    </contour>
    <contour>
      <point x="80" y="524" type="line"/>
      <point x="56" y="412" type="line"/>
      <point x="568" y="412" type="line"/>
      <point x="592" y="524" type="line"/>
    </contour>
  </outline>
</glyph>
<glyph name="dollar" format="1">
  <advance width="600"/>
  <unicode hex="0024"/>
  <outline>
    <contour>
      <point x="302" y="-9" type="curve"/>
      <point x="458" y="-9"/>
      <point x="570" y="80"/>
      <point x="570" y="210" type="curve"/>
      <point x="570" y="464"/>
      <point x="216" y="368"/>
      <point x="216" y="509" type="curve"/>
      <point x="216" y="558"/>
      <point x="257" y="590"/>
      <point x="308" y="590" type="curve"/>
      <point x="370" y="590"/>
      <point x="401" y="558"/>
      <point x="412" y="500" type="curve"/>
      <point x="549" y="523" type="line"/>
      <point x="535" y="645"/>
      <point x="442" y="720"/>
      <point x="315" y="720" type="curve"/>
      <point x="167" y="720"/>
      <point x="59" y="628"/>
      <point x="59" y="497" type="curve"/>
      <point x="59" y="234"/>
      <point x="413" y="325"/>
      <point x="413" y="197" type="curve"/>
      <point x="413" y="149"/>
      <point x="371" y="121"/>
      <point x="308" y="121" type="curve"/>
      <point x="223" y="121"/>
      <point x="184" y="160"/>
      <point x="175" y="233" type="curve"/>
      <point x="30" y="212" type="line"/>
      <point x="42" y="67"/>
      <point x="139" y="-9"/>
    </contour>
    <contour>
      <point x="351" y="-120" type="line"/>
      <point x="351" y="50" type="line"/>
      <point x="250" y="50" type="line"/>
      <point x="250" y="-120" type="line"/>
    </contour>
    <contour>
      <point x="351" y="660" type="line"/>
      <point x="351" y="830" type="line"/>
      <point x="250" y="830" type="line"/>
      <point x="250" y="660" type="line"/>
    </contour>
  </outline>
</glyph>
<glyph name="percent" format="1">
  <advance width="824"/>
  <unicode hex="0025"/>
  <outline>
    <contour>
      <point x="598" y="710" type="line"/>
      <point x="99" y="0" type="line"/>
      <point x="226" y="0" type="line"/>
      <point x="725" y="710" type="line"/>
    </contour>
    <contour>
      <point x="207" y="386" type="curve"/>
      <point x="316" y="386"/>
      <point x="395" y="459"/>
      <point x="395" y="561" type="curve"/>
      <point x="395" y="659"/>
      <point x="327" y="721"/>
      <point x="222" y="721" type="curve"/>
      <point x="114" y="721"/>
      <point x="35" y="647"/>
      <point x="35" y="546" type="curve"/>
      <point x="35" y="449"/>
      <point x="103" y="386"/>
    </contour>
    <contour>
      <point x="212" y="476" type="curve"/>
      <point x="166" y="476"/>
      <point x="138" y="502"/>
      <point x="138" y="547" type="curve"/>
      <point x="138" y="598"/>
      <point x="170" y="631"/>
      <point x="220" y="631" type="curve"/>
      <point x="265" y="631"/>
      <point x="292" y="604"/>
      <point x="292" y="560" type="curve"/>
      <point x="292" y="510"/>
      <point x="260" y="476"/>
    </contour>
    <contour>
      <point x="602" y="-8" type="curve"/>
      <point x="710" y="-8"/>
      <point x="789" y="66"/>
      <point x="789" y="167" type="curve"/>
      <point x="789" y="264"/>
      <point x="722" y="327"/>
      <point x="617" y="327" type="curve"/>
      <point x="507" y="327"/>
      <point x="429" y="254"/>
      <point x="429" y="152" type="curve"/>
      <point x="429" y="55"/>
      <point x="497" y="-8"/>
    </contour>
    <contour>
      <point x="606" y="82" type="curve"/>
      <point x="560" y="82"/>
      <point x="532" y="108"/>
      <point x="532" y="153" type="curve"/>
      <point x="532" y="203"/>
      <point x="564" y="237"/>
      <point x="613" y="237" type="curve"/>
      <point x="658" y="237"/>
      <point x="686" y="211"/>
      <point x="686" y="167" type="curve"/>
      <point x="686" y="116"/>
      <point x="654" y="82"/>
    </contour>
  </outline>
</glyph>
<glyph name="ampersand" format="1">
  <advance width="821"/>
  <unicode hex="0026"/>
  <outline>
    <contour>
      <point x="321" y="-8" type="curve"/>
      <point x="539" y="-8"/>
      <point x="696" y="145"/>
      <point x="707" y="366" type="curve"/>
      <point x="586" y="366" type="line"/>
      <point x="576" y="210"/>
      <point x="484" y="111"/>
      <point x="349" y="111" type="curve"/>
      <point x="255" y="111"/>
      <point x="195" y="154"/>
      <point x="195" y="223" type="curve"/>
      <point x="195" y="404"/>
      <point x="494" y="347"/>
      <point x="494" y="562" type="curve"/>
      <point x="494" y="658"/>
      <point x="420" y="719"/>
      <point x="305" y="719" type="curve"/>
      <point x="182" y="719"/>
      <point x="95" y="645"/>
      <point x="95" y="539" type="curve"/>
      <point x="95" y="482"/>
      <point x="119" y="434"/>
      <point x="173" y="381" type="curve"/>
      <point x="476" y="82" type="line" smooth="yes"/>
      <point x="539" y="20"/>
      <point x="602" y="-8"/>
      <point x="683" y="-10" type="curve"/>
      <point x="734" y="-11"/>
      <point x="776" y="1"/>
      <point x="811" y="25" type="curve"/>
      <point x="777" y="130" type="line"/>
      <point x="754" y="117"/>
      <point x="736" y="112"/>
      <point x="711" y="112" type="curve"/>
      <point x="661" y="112"/>
      <point x="624" y="129"/>
      <point x="579" y="173" type="curve"/>
      <point x="317" y="430" type="line" smooth="yes"/>
      <point x="250" y="495"/>
      <point x="235" y="516"/>
      <point x="235" y="544" type="curve"/>
      <point x="235" y="587"/>
      <point x="264" y="612"/>
      <point x="307" y="612" type="curve"/>
      <point x="342" y="612"/>
      <point x="370" y="596"/>
      <point x="370" y="560" type="curve"/>
      <point x="370" y="438"/>
      <point x="45" y="446"/>
      <point x="45" y="206" type="curve"/>
      <point x="45" y="81"/>
      <point x="160" y="-8"/>
    </contour>
    <contour>
      <point x="497" y="438" type="line"/>
      <point x="497" y="317" type="line"/>
      <point x="786" y="317" type="line"/>
      <point x="786" y="438" type="line"/>
    </contour>
  </outline>
</glyph>
<glyph name="parenleft" format="1">
  <advance width="343"/>
  <unicode hex="0028"/>
  <outline>
    <contour>
      <point x="306" y="-215" type="curve"/>
      <point x="363" y="-144" type="line"/>
      <point x="254" y="-48"/>
      <point x="192" y="84"/>
      <point x="193" y="268" type="curve"/>
      <point x="194" y="452"/>
      <point x="254" y="584"/>
      <point x="363" y="680" type="curve"/>
      <point x="306" y="751" type="line"/>
      <point x="129" y="636"/>
      <point x="44" y="463"/>
      <point x="44" y="268" type="curve"/>
      <point x="44" y="73"/>
      <point x="129" y="-100"/>
    </contour>
  </outline>
</glyph>
<glyph name="parenright" format="1">
  <advance width="343"/>
  <unicode hex="0029"/>
  <outline>
    <contour>
      <point x="-20" y="-144" type="curve"/>
      <point x="37" y="-215" type="line"/>
      <point x="214" y="-100"/>
      <point x="299" y="73"/>
      <point x="299" y="268" type="curve"/>
      <point x="299" y="463"/>
      <point x="214" y="636"/>
      <point x="37" y="751" type="curve"/>
      <point x="-20" y="680" type="line"/>
      <point x="89" y="584"/>
      <point x="149" y="452"/>
      <point x="150" y="268" type="curve"/>
      <point x="151" y="84"/>
      <point x="89" y="-48"/>
    </contour>
  </outline>
</glyph>
<glyph name="asterisk" format="1">
  <advance width="496"/>
  <unicode hex="002A"/>
  <outline>
    <contour>
      <point x="432" y="481" type="curve"/>
      <point x="403" y="498"/>
      <point x="369" y="491"/>
      <point x="307" y="510" type="curve"/>
      <point x="369" y="529"/>
      <point x="403" y="522"/>
      <point x="432" y="539" type="curve"/>
      <point x="467" y="559"/>
      <point x="476" y="595"/>
      <point x="456" y="630" type="curve"/>
      <point x="436" y="665"/>
      <point x="400" y="675"/>
      <point x="365" y="655" type="curve"/>
      <point x="336" y="638"/>
      <point x="324" y="605"/>
      <point x="277" y="561" type="curve"/>
      <point x="292" y="624"/>
      <point x="315" y="650"/>
      <point x="315" y="684" type="curve"/>
      <point x="315" y="724"/>
      <point x="288" y="750"/>
      <point x="248" y="750" type="curve"/>
      <point x="208" y="750"/>
      <point x="181" y="724"/>
      <point x="181" y="684" type="curve"/>
      <point x="181" y="650"/>
      <point x="204" y="624"/>
      <point x="218" y="562" type="curve"/>
      <point x="172" y="606"/>
      <point x="160" y="638"/>
      <point x="131" y="655" type="curve"/>
      <point x="96" y="675"/>
      <point x="60" y="665"/>
      <point x="40" y="630" type="curve"/>
      <point x="20" y="595"/>
      <point x="29" y="559"/>
      <point x="64" y="539" type="curve"/>
      <point x="93" y="522"/>
      <point x="127" y="529"/>
      <point x="189" y="510" type="curve"/>
      <point x="127" y="491"/>
      <point x="93" y="498"/>
      <point x="64" y="481" type="curve"/>
      <point x="29" y="461"/>
      <point x="20" y="425"/>
      <point x="40" y="390" type="curve"/>
      <point x="60" y="355"/>
      <point x="96" y="345"/>
      <point x="131" y="365" type="curve"/>
      <point x="160" y="382"/>
      <point x="172" y="414"/>
      <point x="218" y="458" type="curve"/>
      <point x="204" y="396"/>
      <point x="181" y="370"/>
      <point x="181" y="336" type="curve"/>
      <point x="181" y="296"/>
      <point x="208" y="270"/>
      <point x="248" y="270" type="curve"/>
      <point x="288" y="270"/>
      <point x="315" y="296"/>
      <point x="315" y="336" type="curve"/>
      <point x="315" y="370"/>
      <point x="292" y="396"/>
      <point x="277" y="459" type="curve"/>
      <point x="324" y="415"/>
      <point x="336" y="382"/>
      <point x="365" y="365" type="curve"/>
      <point x="400" y="345"/>
      <point x="436" y="355"/>
      <point x="456" y="390" type="curve"/>
      <point x="476" y="425"/>
      <point x="467" y="461"/>
    </contour>
  </outline>
</glyph>
<glyph name="plus" format="1">
  <advance width="600"/>
  <unicode hex="002B"/>
  <outline>
    <contour>
      <point x="553" y="188" type="line"/>
      <point x="553" y="320" type="line"/>
      <point x="47" y="320" type="line"/>
      <point x="47" y="188" type="line"/>
    </contour>
    <contour>
      <point x="370" y="508" type="line"/>
      <point x="230" y="508" type="line"/>
      <point x="230" y="0" type="line"/>
      <point x="370" y="0" type="line"/>
    </contour>
  </outline>
</glyph>
<glyph name="comma" format="1">
  <advance width="266"/>
  <unicode hex="002C"/>
  <note>
    period
  </note>
  <outline>
    <contour>
      <point x="35" y="-170" type="curve"/>
      <point x="109" y="-170" type="line"/>
      <point x="178" y="-101"/>
      <point x="231" y="7"/>
      <point x="231" y="77" type="curve"/>
      <point x="231" y="144"/>
      <point x="195" y="183"/>
      <point x="134" y="183" type="curve"/>
      <point x="76" y="183"/>
      <point x="37" y="145"/>
      <point x="37" y="99" type="curve"/>
      <point x="37" y="43"/>
      <point x="69" y="18"/>
      <point x="69" y="-42" type="curve"/>
      <point x="69" y="-77"/>
      <point x="57" y="-119"/>
    </contour>
  </outline>
</glyph>
<glyph name="hyphen" format="1">
  <advance width="432"/>
  <unicode hex="002D"/>
  <outline>
    <contour>
      <point x="60" y="322" type="line"/>
      <point x="60" y="192" type="line"/>
      <point x="372" y="192" type="line"/>
      <point x="372" y="322" type="line"/>
    </contour>
  </outline>
</glyph>
<glyph name="period" format="1">
  <advance width="266"/>
  <unicode hex="002E"/>
  <note>
    period
  </note>
  <outline>
    <contour>
      <point x="133" y="-10" type="curve"/>
      <point x="194" y="-10"/>
      <point x="233" y="32"/>
      <point x="233" y="87" type="curve"/>
      <point x="233" y="142"/>
      <point x="194" y="184"/>
      <point x="133" y="184" type="curve"/>
      <point x="72" y="184"/>
      <point x="33" y="142"/>
      <point x="33" y="87" type="curve"/>
      <point x="33" y="32"/>
      <point x="72" y="-10"/>
    </contour>
  </outline>
</glyph>
<glyph name="slash" format="1">
  <advance width="380"/>
  <unicode hex="002F"/>
  <outline>
    <contour>
      <point x="250" y="740" type="line"/>
      <point x="0" y="-200" type="line"/>
      <point x="137" y="-200" type="line"/>
      <point x="387" y="740" type="line"/>
    </contour>
  </outline>
</glyph>
<glyph name="zero" format="1">
  <advance width="600"/>
  <unicode hex="0030"/>
  <outline>
    <contour>
      <point x="303" y="-10" type="curve"/>
      <point x="466" y="-8"/>
      <point x="565" y="147"/>
      <point x="565" y="369" type="curve"/>
      <point x="565" y="599"/>
      <point x="472" y="720"/>
      <point x="312" y="720" type="curve"/>
      <point x="139" y="720"/>
      <point x="35" y="567"/>
      <point x="35" y="342" type="curve"/>
      <point x="35" y="101"/>
      <point x="128" y="-12"/>
    </contour>
    <contour>
      <point x="299" y="122" type="curve"/>
      <point x="222" y="122"/>
      <point x="187" y="194"/>
      <point x="187" y="345" type="curve"/>
      <point x="187" y="499"/>
      <point x="230" y="589"/>
      <point x="308" y="589" type="curve"/>
      <point x="379" y="589"/>
      <point x="414" y="513"/>
      <point x="414" y="368" type="curve"/>
      <point x="414" y="208"/>
      <point x="375" y="122"/>
    </contour>
  </outline>
</glyph>
<glyph name="one" format="1">
  <advance width="600"/>
  <unicode hex="0031"/>
  <outline>
    <contour>
      <point x="257" y="573" type="line"/>
      <point x="257" y="75" type="line"/>
      <point x="407" y="75" type="line"/>
      <point x="407" y="710" type="line"/>
      <point x="322" y="710" type="line"/>
      <point x="72" y="540" type="line"/>
      <point x="143" y="434" type="line"/>
      <point x="345" y="573" type="line"/>
    </contour>
    <contour>
      <point x="97" y="121" type="line"/>
      <point x="97" y="0" type="line"/>
      <point x="557" y="0" type="line"/>
      <point x="557" y="121" type="line"/>
    </contour>
  </outline>
</glyph>
<glyph name="two" format="1">
  <advance width="600"/>
  <unicode hex="0032"/>
  <outline>
    <contour>
      <point x="67" y="102" type="curve"/>
      <point x="67" y="0" type="line"/>
      <point x="542" y="0" type="line"/>
      <point x="542" y="121" type="line"/>
      <point x="200" y="121" type="line"/>
      <point x="202" y="81" type="line"/>
      <point x="436" y="233"/>
      <point x="525" y="374"/>
      <point x="525" y="511" type="curve"/>
      <point x="525" y="636"/>
      <point x="437" y="720"/>
      <point x="300" y="720" type="curve"/>
      <point x="175" y="720"/>
      <point x="77" y="647"/>
      <point x="44" y="543" type="curve"/>
      <point x="154" y="484" type="line"/>
      <point x="175" y="547"/>
      <point x="219" y="587"/>
      <point x="283" y="587" type="curve"/>
      <point x="340" y="587"/>
      <point x="374" y="554"/>
      <point x="374" y="495" type="curve"/>
      <point x="374" y="397"/>
      <point x="285" y="259"/>
    </contour>
  </outline>
</glyph>
<glyph name="three" format="1">
  <advance width="600"/>
  <unicode hex="0033"/>
  <outline>
    <contour>
      <point x="251" y="-10" type="curve"/>
      <point x="427" y="-10"/>
      <point x="540" y="81"/>
      <point x="540" y="206" type="curve"/>
      <point x="540" y="294"/>
      <point x="490" y="349"/>
      <point x="402" y="370" type="curve"/>
      <point x="404" y="362" type="line"/>
      <point x="482" y="388"/>
      <point x="525" y="455"/>
      <point x="525" y="527" type="curve"/>
      <point x="525" y="644"/>
      <point x="436" y="720"/>
      <point x="300" y="720" type="curve"/>
      <point x="175" y="720"/>
      <point x="77" y="647"/>
      <point x="44" y="543" type="curve"/>
      <point x="154" y="484" type="line"/>
      <point x="175" y="547"/>
      <point x="219" y="587"/>
      <point x="283" y="587" type="curve"/>
      <point x="345" y="587"/>
      <point x="375" y="555"/>
      <point x="375" y="511" type="curve"/>
      <point x="375" y="459"/>
      <point x="341" y="419"/>
      <point x="252" y="419" type="curve"/>
      <point x="216" y="419" type="line"/>
      <point x="216" y="299" type="line"/>
      <point x="260" y="299" type="line" smooth="yes"/>
      <point x="344" y="299"/>
      <point x="390" y="270"/>
      <point x="390" y="213" type="curve"/>
      <point x="390" y="159"/>
      <point x="349" y="123"/>
      <point x="260" y="123" type="curve"/>
      <point x="193" y="123"/>
      <point x="137" y="140"/>
      <point x="92" y="167" type="curve"/>
      <point x="56" y="37" type="line"/>
      <point x="103" y="4"/>
      <point x="188" y="-10"/>
    </contour>
  </outline>
</glyph>
<glyph name="four" format="1">
  <advance width="600"/>
  <unicode hex="0034"/>
  <outline>
    <contour>
      <point x="341" y="512" type="line"/>
      <point x="341" y="0" type="line"/>
      <point x="487" y="0" type="line"/>
      <point x="487" y="712" type="line"/>
      <point x="382" y="712" type="line"/>
      <point x="32" y="275" type="line"/>
      <point x="32" y="170" type="line"/>
      <point x="587" y="170" type="line"/>
      <point x="587" y="291" type="line"/>
      <point x="152" y="291" type="line"/>
      <point x="158" y="254" type="line"/>
      <point x="367" y="517" type="line"/>
    </contour>
  </outline>
</glyph>
<glyph name="five" format="1">
  <advance width="600"/>
  <unicode hex="0035"/>
  <outline>
    <contour>
      <point x="251" y="-10" type="curve"/>
      <point x="427" y="-10"/>
      <point x="540" y="83"/>
      <point x="540" y="214" type="curve"/>
      <point x="540" y="346"/>
      <point x="441" y="420"/>
      <point x="250" y="426" type="curve"/>
      <point x="191" y="428" type="line"/>
      <point x="250" y="391" type="line"/>
      <point x="268" y="633" type="line"/>
      <point x="201" y="591" type="line"/>
      <point x="504" y="591" type="line"/>
      <point x="504" y="712" type="line"/>
      <point x="128" y="712" type="line"/>
      <point x="98" y="306" type="line"/>
      <point x="213" y="302" type="line" smooth="yes"/>
      <point x="362" y="297"/>
      <point x="390" y="258"/>
      <point x="390" y="209" type="curve"/>
      <point x="390" y="159"/>
      <point x="349" y="123"/>
      <point x="260" y="123" type="curve"/>
      <point x="193" y="123"/>
      <point x="137" y="140"/>
      <point x="92" y="167" type="curve"/>
      <point x="56" y="37" type="line"/>
      <point x="103" y="4"/>
      <point x="188" y="-10"/>
    </contour>
  </outline>
</glyph>
<glyph name="six" format="1">
  <advance width="600"/>
  <unicode hex="0036"/>
  <outline>
    <contour>
      <point x="322" y="-10" type="curve"/>
      <point x="476" y="-10"/>
      <point x="577" y="98"/>
      <point x="577" y="234" type="curve"/>
      <point x="577" y="374"/>
      <point x="475" y="451"/>
      <point x="358" y="451" type="curve"/>
      <point x="271" y="451"/>
      <point x="201" y="410"/>
      <point x="169" y="334" type="curve"/>
      <point x="198" y="308" type="line"/>
      <point x="198" y="370" type="line" smooth="yes"/>
      <point x="198" y="511"/>
      <point x="259" y="587"/>
      <point x="342" y="587" type="curve"/>
      <point x="398" y="587"/>
      <point x="432" y="562"/>
      <point x="454" y="506" type="curve"/>
      <point x="578" y="565" type="line"/>
      <point x="537" y="668"/>
      <point x="461" y="720"/>
      <point x="349" y="720" type="curve"/>
      <point x="180" y="720"/>
      <point x="49" y="579"/>
      <point x="49" y="339" type="curve"/>
      <point x="49" y="101"/>
      <point x="150" y="-10"/>
    </contour>
    <contour>
      <point x="321" y="112" type="curve"/>
      <point x="259" y="112"/>
      <point x="214" y="148"/>
      <point x="214" y="219" type="curve"/>
      <point x="214" y="280"/>
      <point x="258" y="329"/>
      <point x="322" y="329" type="curve"/>
      <point x="388" y="329"/>
      <point x="427" y="286"/>
      <point x="427" y="221" type="curve"/>
      <point x="427" y="165"/>
      <point x="387" y="112"/>
    </contour>
  </outline>
</glyph>
<glyph name="seven" format="1">
  <advance width="600"/>
  <unicode hex="0037"/>
  <outline>
    <contour>
      <point x="106" y="0" type="line"/>
      <point x="264" y="0" type="line"/>
      <point x="547" y="589" type="line"/>
      <point x="547" y="710" type="line"/>
      <point x="66" y="710" type="line"/>
      <point x="66" y="589" type="line"/>
      <point x="435" y="589" type="line"/>
      <point x="409" y="626" type="line"/>
    </contour>
  </outline>
</glyph>
<glyph name="eight" format="1">
  <advance width="600"/>
  <unicode hex="0038"/>
  <outline>
    <contour>
      <point x="300" y="-10" type="curve"/>
      <point x="466" y="-10"/>
      <point x="569" y="67"/>
      <point x="569" y="190" type="curve"/>
      <point x="569" y="284"/>
      <point x="493" y="362"/>
      <point x="389" y="375" type="curve"/>
      <point x="393" y="348" type="line"/>
      <point x="491" y="367"/>
      <point x="551" y="433"/>
      <point x="551" y="522" type="curve"/>
      <point x="551" y="636"/>
      <point x="443" y="720"/>
      <point x="300" y="720" type="curve"/>
      <point x="157" y="720"/>
      <point x="49" y="636"/>
      <point x="49" y="522" type="curve"/>
      <point x="49" y="433"/>
      <point x="109" y="367"/>
      <point x="207" y="348" type="curve"/>
      <point x="211" y="375" type="line"/>
      <point x="107" y="362"/>
      <point x="31" y="284"/>
      <point x="31" y="190" type="curve"/>
      <point x="31" y="67"/>
      <point x="134" y="-10"/>
    </contour>
    <contour>
      <point x="300" y="112" type="curve"/>
      <point x="225" y="112"/>
      <point x="181" y="147"/>
      <point x="181" y="205" type="curve"/>
      <point x="181" y="263"/>
      <point x="228" y="301"/>
      <point x="300" y="301" type="curve"/>
      <point x="372" y="301"/>
      <point x="419" y="263"/>
      <point x="419" y="205" type="curve"/>
      <point x="419" y="147"/>
      <point x="375" y="112"/>
    </contour>
    <contour>
      <point x="300" y="417" type="curve"/>
      <point x="239" y="417"/>
      <point x="199" y="452"/>
      <point x="199" y="506" type="curve"/>
      <point x="199" y="561"/>
      <point x="240" y="598"/>
      <point x="300" y="598" type="curve"/>
      <point x="361" y="598"/>
      <point x="401" y="562"/>
      <point x="401" y="506" type="curve"/>
      <point x="401" y="452"/>
      <point x="361" y="417"/>
    </contour>
  </outline>
</glyph>
<glyph name="less" format="1">
  <advance width="600"/>
  <unicode hex="003C"/>
  <outline>
    <contour>
      <point x="47" y="306" type="line"/>
      <point x="47" y="200" type="line"/>
      <point x="553" y="-13" type="line"/>
      <point x="553" y="120" type="line"/>
      <point x="142" y="289" type="line"/>
      <point x="142" y="217" type="line"/>
      <point x="553" y="386" type="line"/>
      <point x="553" y="519" type="line"/>
    </contour>
  </outline>
</glyph>
<glyph name="equal" format="1">
  <advance width="600"/>
  <unicode hex="003D"/>
  <outline>
    <contour>
      <point x="553" y="79" type="line"/>
      <point x="553" y="197" type="line"/>
      <point x="47" y="197" type="line"/>
      <point x="47" y="79" type="line"/>
    </contour>
    <contour>
      <point x="553" y="312" type="line"/>
      <point x="553" y="430" type="line"/>
      <point x="47" y="430" type="line"/>
      <point x="47" y="312" type="line"/>
    </contour>
  </outline>
</glyph>
<glyph name="greater" format="1">
  <advance width="600"/>
  <unicode hex="003E"/>
  <outline>
    <contour>
      <point x="47" y="-13" type="line"/>
      <point x="553" y="200" type="line"/>
      <point x="553" y="306" type="line"/>
      <point x="47" y="519" type="line"/>
      <point x="47" y="386" type="line"/>
      <point x="458" y="217" type="line"/>
      <point x="458" y="289" type="line"/>
      <point x="47" y="120" type="line"/>
    </contour>
  </outline>
</glyph>
<glyph name="question" format="1">
  <advance width="511"/>
  <unicode hex="003F"/>
  <outline>
    <contour>
      <point x="230" y="-10" type="curve"/>
      <point x="285" y="-10"/>
      <point x="323" y="27"/>
      <point x="323" y="79" type="curve"/>
      <point x="323" y="131"/>
      <point x="285" y="168"/>
      <point x="230" y="168" type="curve"/>
      <point x="175" y="168"/>
      <point x="137" y="131"/>
      <point x="137" y="79" type="curve"/>
      <point x="137" y="27"/>
      <point x="175" y="-10"/>
    </contour>
    <contour>
      <point x="174" y="237" type="curve"/>
      <point x="284" y="231" type="line"/>
      <point x="287" y="286"/>
      <point x="307" y="319"/>
      <point x="369" y="368" type="curve"/>
      <point x="435" y="420"/>
      <point x="466" y="470"/>
      <point x="466" y="543" type="curve"/>
      <point x="466" y="647"/>
      <point x="377" y="720"/>
      <point x="251" y="720" type="curve"/>
      <point x="130" y="720"/>
      <point x="29" y="650"/>
      <point x="-5" y="543" type="curve"/>
      <point x="105" y="484" type="line"/>
      <point x="127" y="550"/>
      <point x="173" y="587"/>
      <point x="234" y="587" type="curve"/>
      <point x="290" y="587"/>
      <point x="316" y="565"/>
      <point x="316" y="534" type="curve"/>
      <point x="316" y="505"/>
      <point x="299" y="483"/>
      <point x="253" y="447" type="curve"/>
      <point x="188" y="398"/>
      <point x="164" y="335"/>
    </contour>
  </outline>
</glyph>
<glyph name="at" format="1">
  <advance width="1003"/>
  <unicode hex="0040"/>
  <outline>
    <contour>
      <point x="518" y="-212" type="curve"/>
      <point x="638" y="-212"/>
      <point x="736" y="-187"/>
      <point x="810" y="-139" type="curve"/>
      <point x="743" y="-35" type="line"/>
      <point x="683" y="-73"/>
      <point x="601" y="-96"/>
      <point x="520" y="-96" type="curve"/>
      <point x="301" y="-96"/>
      <point x="172" y="32"/>
      <point x="172" y="249" type="curve"/>
      <point x="172" y="467"/>
      <point x="314" y="611"/>
      <point x="530" y="611" type="curve"/>
      <point x="725" y="611"/>
      <point x="843" y="512"/>
      <point x="843" y="348" type="curve"/>
      <point x="843" y="228"/>
      <point x="807" y="141"/>
      <point x="758" y="141" type="curve"/>
      <point x="727" y="141"/>
      <point x="714" y="165"/>
      <point x="722" y="210" type="curve"/>
      <point x="772" y="494" type="line"/>
      <point x="684" y="507" type="line"/>
      <point x="648" y="431" type="line"/>
      <point x="683" y="464" type="line"/>
      <point x="649" y="497"/>
      <point x="595" y="516"/>
      <point x="535" y="516" type="curve"/>
      <point x="377" y="516"/>
      <point x="257" y="382"/>
      <point x="257" y="216" type="curve"/>
      <point x="257" y="100"/>
      <point x="324" y="28"/>
      <point x="432" y="28" type="curve"/>
      <point x="535" y="28"/>
      <point x="612" y="97"/>
      <point x="647" y="219" type="curve"/>
      <point x="601" y="209" type="line"/>
      <point x="576" y="98"/>
      <point x="627" y="28"/>
      <point x="733" y="28" type="curve"/>
      <point x="866" y="28"/>
      <point x="965" y="164"/>
      <point x="965" y="348" type="curve"/>
      <point x="965" y="583"/>
      <point x="800" y="725"/>
      <point x="529" y="725" type="curve"/>
      <point x="237" y="725"/>
      <point x="38" y="532"/>
      <point x="38" y="249" type="curve"/>
      <point x="38" y="-31"/>
      <point x="226" y="-212"/>
    </contour>
    <contour>
      <point x="472" y="145" type="curve"/>
      <point x="424" y="145"/>
      <point x="399" y="173"/>
      <point x="399" y="227" type="curve"/>
      <point x="399" y="320"/>
      <point x="464" y="399"/>
      <point x="548" y="399" type="curve"/>
      <point x="589" y="399"/>
      <point x="618" y="384"/>
      <point x="637" y="356" type="curve"/>
      <point x="625" y="418" type="line"/>
      <point x="605" y="311" type="line" smooth="yes"/>
      <point x="584" y="199"/>
      <point x="534" y="145"/>
    </contour>
  </outline>
</glyph>
<glyph name="A" format="1">
  <advance width="695"/>
  <unicode hex="0041"/>
  <outline>
    <contour>
      <point x="286" y="710" type="line"/>
      <point x="-21" y="0" type="line"/>
      <point x="137" y="0" type="line"/>
      <point x="378" y="589" type="line"/>
      <point x="321" y="591" type="line"/>
      <point x="554" y="0" type="line"/>
      <point x="712" y="0" type="line"/>
      <point x="417" y="710" type="line"/>
    </contour>
    <contour>
      <point x="202" y="279" type="line"/>
      <point x="139" y="149" type="line"/>
      <point x="564" y="149" type="line"/>
      <point x="503" y="279" type="line"/>
    </contour>
    <contour>
      <point x="348" y="0" type="move" name="bottom"/>
    </contour>
    <contour>
      <point x="712" y="0" type="move" name="ogonek"/>
    </contour>
    <contour>
      <point x="348" y="710" type="move" name="top"/>
    </contour>
  </outline>
</glyph>
<glyph name="B" format="1">
  <advance width="644"/>
  <unicode hex="0042"/>
  <outline>
    <contour>
      <point x="68" y="710" type="line"/>
      <point x="68" y="0" type="line"/>
      <point x="350" y="0" type="line" smooth="yes"/>
      <point x="518" y="0"/>
      <point x="619" y="84"/>
      <point x="619" y="207" type="curve"/>
      <point x="619" y="290"/>
      <point x="566" y="351"/>
      <point x="491" y="371" type="curve"/>
      <point x="491" y="347" type="line"/>
      <point x="563" y="373"/>
      <point x="606" y="437"/>
      <point x="606" y="513" type="curve"/>
      <point x="606" y="643"/>
      <point x="500" y="710"/>
      <point x="330" y="710" type="curve"/>
    </contour>
    <contour>
      <point x="347" y="127" type="curve"/>
      <point x="221" y="127" type="line"/>
      <point x="221" y="583" type="line"/>
      <point x="332" y="583" type="line" smooth="yes"/>
      <point x="414" y="583"/>
      <point x="451" y="557"/>
      <point x="451" y="505" type="curve"/>
      <point x="451" y="446"/>
      <point x="409" y="421"/>
      <point x="320" y="421" type="curve"/>
      <point x="205" y="421" type="line"/>
      <point x="205" y="294" type="line"/>
      <point x="347" y="294" type="line" smooth="yes"/>
      <point x="429" y="294"/>
      <point x="464" y="268"/>
      <point x="464" y="213" type="curve"/>
      <point x="464" y="153"/>
      <point x="420" y="127"/>
    </contour>
    <contour>
      <point x="350" y="0" type="move" name="bottom"/>
    </contour>
    <contour>
      <point x="350" y="712" type="move" name="top"/>
    </contour>
  </outline>
</glyph>
<glyph name="C" format="1">
  <advance width="677"/>
  <unicode hex="0043"/>
  <outline>
    <contour>
      <point x="689" y="139" type="curve"/>
      <point x="573" y="229" type="line"/>
      <point x="535" y="161"/>
      <point x="468" y="129"/>
      <point x="401" y="129" type="curve"/>
      <point x="272" y="129"/>
      <point x="197" y="208"/>
      <point x="197" y="344" type="curve"/>
      <point x="197" y="484"/>
      <point x="285" y="581"/>
      <point x="413" y="581" type="curve"/>
      <point x="476" y="581"/>
      <point x="537" y="554"/>
      <point x="571" y="491" type="curve"/>
      <point x="690" y="576" type="line"/>
      <point x="628" y="673"/>
      <point x="542" y="720"/>
      <point x="414" y="720" type="curve"/>
      <point x="191" y="720"/>
      <point x="38" y="566"/>
      <point x="38" y="341" type="curve"/>
      <point x="38" y="122"/>
      <point x="172" y="-10"/>
      <point x="399" y="-10" type="curve"/>
      <point x="524" y="-10"/>
      <point x="631" y="43"/>
    </contour>
    <contour>
      <point x="392" y="0" type="move" name="bottom"/>
    </contour>
    <contour>
      <point x="392" y="710" type="move" name="top"/>
    </contour>
  </outline>
</glyph>
<glyph name="D" format="1">
  <advance width="755"/>
  <unicode hex="0044"/>
  <outline>
    <contour>
      <point x="68" y="710" type="line"/>
      <point x="68" y="0" type="line"/>
      <point x="336" y="0" type="line" smooth="yes"/>
      <point x="563" y="0"/>
      <point x="717" y="145"/>
      <point x="717" y="357" type="curve"/>
      <point x="717" y="590"/>
      <point x="573" y="710"/>
      <point x="294" y="710" type="curve"/>
    </contour>
    <contour>
      <point x="330" y="138" type="curve"/>
      <point x="224" y="138" type="line"/>
      <point x="224" y="572" type="line"/>
      <point x="314" y="572" type="line" smooth="yes"/>
      <point x="480" y="572"/>
      <point x="559" y="501"/>
      <point x="559" y="352" type="curve"/>
      <point x="559" y="212"/>
      <point x="479" y="138"/>
    </contour>
    <contour>
      <point x="375" y="0" type="move" name="bottom"/>
    </contour>
    <contour>
      <point x="375" y="359" type="move" name="center"/>
    </contour>
    <contour>
      <point x="146" y="360" type="move" name="stroke"/>
    </contour>
    <contour>
      <point x="375" y="710" type="move" name="top"/>
    </contour>
  </outline>
</glyph>
<glyph name="E" format="1">
  <advance width="576"/>
  <unicode hex="0045"/>
  <outline>
    <contour>
      <point x="221" y="576" type="line"/>
      <point x="548" y="576" type="line"/>
      <point x="548" y="710" type="line"/>
      <point x="68" y="710" type="line"/>
      <point x="68" y="0" type="line"/>
      <point x="548" y="0" type="line"/>
      <point x="558" y="134" type="line"/>
      <point x="221" y="134" type="line"/>
      <point x="221" y="291" type="line"/>
      <point x="528" y="291" type="line"/>
      <point x="528" y="425" type="line"/>
      <point x="221" y="425" type="line"/>
    </contour>
    <contour>
      <point x="308" y="0" type="move" name="bottom"/>
    </contour>
    <contour>
      <point x="548" y="0" type="move" name="ogonek"/>
    </contour>
    <contour>
      <point x="308" y="710" type="move" name="top"/>
    </contour>
    <contour>
      <point x="12" y="710" type="move" name="topleft"/>
    </contour>
  </outline>
</glyph>
<glyph name="F" format="1">
  <advance width="528"/>
  <unicode hex="0046"/>
  <outline>
    <contour>
      <point x="221" y="576" type="line"/>
      <point x="525" y="576" type="line"/>
      <point x="525" y="710" type="line"/>
      <point x="68" y="710" type="line"/>
      <point x="68" y="0" type="line"/>
      <point x="221" y="0" type="line"/>
      <point x="221" y="281" type="line"/>
      <point x="505" y="281" type="line"/>
      <point x="505" y="415" type="line"/>
      <point x="221" y="415" type="line"/>
    </contour>
    <contour>
      <point x="297" y="0" type="move" name="bottom"/>
    </contour>
    <contour>
      <point x="297" y="710" type="move" name="top"/>
    </contour>
  </outline>
</glyph>
<glyph name="G" format="1">
  <advance width="764"/>
  <unicode hex="0047"/>
  <outline>
    <contour>
      <point x="718" y="382" type="line"/>
      <point x="420" y="382" type="line"/>
      <point x="420" y="256" type="line"/>
      <point x="598" y="256" type="line"/>
      <point x="568" y="335" type="line"/>
      <point x="568" y="264" type="line" smooth="yes"/>
      <point x="568" y="173"/>
      <point x="475" y="130"/>
      <point x="399" y="130" type="curve"/>
      <point x="275" y="130"/>
      <point x="200" y="208"/>
      <point x="200" y="344" type="curve"/>
      <point x="200" y="484"/>
      <point x="288" y="579"/>
      <point x="430" y="579" type="curve"/>
      <point x="496" y="579"/>
      <point x="560" y="552"/>
      <point x="594" y="491" type="curve"/>
      <point x="713" y="578" type="line"/>
      <point x="651" y="673"/>
      <point x="562" y="720"/>
      <point x="431" y="720" type="curve"/>
      <point x="191" y="720"/>
      <point x="38" y="566"/>
      <point x="38" y="341" type="curve"/>
      <point x="38" y="122"/>
      <point x="172" y="-10"/>
      <point x="381" y="-10" type="curve"/>
      <point x="472" y="-10"/>
      <point x="557" y="17"/>
      <point x="602" y="93" type="curve"/>
      <point x="579" y="95" type="line"/>
      <point x="595" y="0" type="line"/>
      <point x="718" y="0" type="line"/>
    </contour>
    <contour>
      <point x="392" y="0" type="move" name="bottom"/>
    </contour>
    <contour>
      <point x="392" y="710" type="move" name="top"/>
    </contour>
  </outline>
</glyph>
<glyph name="I" format="1">
  <advance width="292"/>
  <unicode hex="0049"/>
  <outline>
    <contour>
      <point x="68" y="710" type="line"/>
      <point x="68" y="0" type="line"/>
      <point x="224" y="0" type="line"/>
      <point x="224" y="710" type="line"/>
    </contour>
    <contour>
      <point x="146" y="0" type="move" name="bottom"/>
    </contour>
    <contour>
      <point x="224" y="0" type="move" name="ogonek"/>
    </contour>
    <contour>
      <point x="146" y="710" type="move" name="top"/>
    </contour>
    <contour>
      <point x="12" y="710" type="move" name="topleft"/>
    </contour>
  </outline>
</glyph>
<glyph name="J" format="1">
  <advance width="496"/>
  <unicode hex="004A"/>
  <outline>
    <contour>
      <point x="198" y="-10" type="curve"/>
      <point x="347" y="-10"/>
      <point x="430" y="81"/>
      <point x="430" y="238" type="curve"/>
      <point x="430" y="710" type="line"/>
      <point x="274" y="710" type="line"/>
      <point x="274" y="221" type="line" smooth="yes"/>
      <point x="274" y="157"/>
      <point x="245" y="127"/>
      <point x="196" y="127" type="curve"/>
      <point x="148" y="127"/>
      <point x="120" y="152"/>
      <point x="100" y="202" type="curve"/>
      <point x="-27" y="145" type="line"/>
      <point x="2" y="44"/>
      <point x="87" y="-10"/>
    </contour>
    <contour>
      <point x="247" y="0" type="move" name="bottom"/>
    </contour>
    <contour>
      <point x="352" y="710" type="move" name="top"/>
    </contour>
  </outline>
</glyph>
<glyph name="K" format="1">
  <advance width="663"/>
  <unicode hex="004B"/>
  <outline>
    <contour>
      <point x="68" y="710" type="line"/>
      <point x="68" y="0" type="line"/>
      <point x="224" y="0" type="line"/>
      <point x="224" y="710" type="line"/>
    </contour>
    <contour>
      <point x="695" y="26" type="curve"/>
      <point x="659" y="146" type="line"/>
      <point x="638" y="132"/>
      <point x="616" y="127"/>
      <point x="591" y="127" type="curve"/>
      <point x="554" y="127"/>
      <point x="529" y="140"/>
      <point x="506" y="177" type="curve"/>
      <point x="440" y="283" type="line" smooth="yes"/>
      <point x="407" y="336"/>
      <point x="357" y="373"/>
      <point x="295" y="373" type="curve"/>
      <point x="342" y="329" type="line"/>
      <point x="691" y="710" type="line"/>
      <point x="504" y="710" type="line"/>
      <point x="179" y="351" type="line"/>
      <point x="179" y="290" type="line"/>
      <point x="241" y="290"/>
      <point x="264" y="278"/>
      <point x="292" y="234" type="curve"/>
      <point x="381" y="93" type="line" smooth="yes"/>
      <point x="423" y="26"/>
      <point x="489" y="-10"/>
      <point x="572" y="-10" type="curve"/>
      <point x="619" y="-10"/>
      <point x="667" y="4"/>
    </contour>
    <contour>
      <point x="335" y="0" type="move" name="bottom"/>
    </contour>
    <contour>
      <point x="335" y="710" type="move" name="top"/>
    </contour>
  </outline>
</glyph>
<glyph name="L" format="1">
  <advance width="528"/>
  <unicode hex="004C"/>
  <outline>
    <contour>
      <point x="68" y="710" type="line"/>
      <point x="68" y="0" type="line"/>
      <point x="523" y="0" type="line"/>
      <point x="533" y="136" type="line"/>
      <point x="224" y="136" type="line"/>
      <point x="224" y="710" type="line"/>
    </contour>
    <contour>
      <point x="296" y="0" type="move" name="bottom"/>
    </contour>
    <contour>
      <point x="146" y="375" type="move" name="center"/>
    </contour>
    <contour>
      <point x="429" y="433" type="move" name="dotacc"/>
    </contour>
    <contour>
      <point x="146" y="710" type="move" name="top"/>
    </contour>
    <contour>
      <point x="324" y="710" type="move" name="topright"/>
    </contour>
  </outline>
</glyph>
<glyph name="M" format="1">
  <advance width="943"/>
  <unicode hex="004D"/>
  <outline>
    <contour>
      <point x="91" y="710" type="line"/>
      <point x="66" y="0" type="line"/>
      <point x="210" y="0" type="line"/>
      <point x="232" y="611" type="line"/>
      <point x="147" y="540" type="line"/>
      <point x="411" y="0" type="line"/>
      <point x="525" y="0" type="line"/>
      <point x="797" y="553" type="line"/>
      <point x="709" y="611" type="line"/>
      <point x="725" y="0" type="line"/>
      <point x="875" y="0" type="line"/>
      <point x="856" y="710" type="line"/>
      <point x="724" y="710" type="line"/>
      <point x="429" y="102" type="line"/>
      <point x="520" y="102" type="line"/>
      <point x="223" y="710" type="line"/>
    </contour>
    <contour>
      <point x="468" y="0" type="move" name="bottom"/>
    </contour>
    <contour>
      <point x="468" y="710" type="move" name="top"/>
    </contour>
  </outline>
</glyph>
<glyph name="O" format="1">
  <advance width="780"/>
  <unicode hex="004F"/>
  <outline>
    <contour>
      <point x="393" y="-10" type="curve"/>
      <point x="595" y="-8"/>
      <point x="742" y="139"/>
      <point x="742" y="369" type="curve"/>
      <point x="742" y="580"/>
      <point x="607" y="720"/>
      <point x="406" y="720" type="curve"/>
      <point x="179" y="720"/>
      <point x="38" y="564"/>
      <point x="38" y="342" type="curve"/>
      <point x="38" y="120"/>
      <point x="171" y="-12"/>
    </contour>
    <contour>
      <point x="387" y="129" type="curve"/>
      <point x="268" y="129"/>
      <point x="196" y="207"/>
      <point x="196" y="345" type="curve"/>
      <point x="196" y="486"/>
      <point x="282" y="582"/>
      <point x="402" y="582" type="curve"/>
      <point x="513" y="582"/>
      <point x="584" y="497"/>
      <point x="584" y="368" type="curve"/>
      <point x="584" y="217"/>
      <point x="503" y="129"/>
    </contour>
    <contour>
      <point x="390" y="0" type="move" name="bottom"/>
    </contour>
    <contour>
      <point x="390" y="355" type="move" name="center"/>
    </contour>
    <contour>
      <point x="487" y="0" type="move" name="ogonek"/>
    </contour>
    <contour>
      <point x="390" y="710" type="move" name="top"/>
    </contour>
    <contour>
      <point x="18" y="710" type="move" name="topleft"/>
    </contour>
    <contour>
      <point x="559" y="710" type="move" name="topright"/>
    </contour>
  </outline>
</glyph>
<glyph name="P" format="1">
  <advance width="636"/>
  <unicode hex="0050"/>
  <outline>
    <contour>
      <point x="68" y="0" type="line"/>
      <point x="220" y="0" type="line"/>
      <point x="220" y="583" type="line"/>
      <point x="325" y="583" type="line" smooth="yes"/>
      <point x="423" y="583"/>
      <point x="468" y="558"/>
      <point x="468" y="483" type="curve"/>
      <point x="468" y="410"/>
      <point x="418" y="380"/>
      <point x="312" y="380" type="curve"/>
      <point x="188" y="380" type="line"/>
      <point x="188" y="252" type="line"/>
      <point x="304" y="252" type="line" smooth="yes"/>
      <point x="508" y="252"/>
      <point x="623" y="340"/>
      <point x="623" y="486" type="curve"/>
      <point x="623" y="632"/>
      <point x="523" y="710"/>
      <point x="328" y="710" type="curve"/>
      <point x="68" y="710" type="line"/>
    </contour>
    <contour>
      <point x="316" y="0" type="move" name="bottom"/>
    </contour>
    <contour>
      <point x="316" y="710" type="move" name="top"/>
    </contour>
  </outline>
</glyph>
<glyph name="Q" format="1">
  <advance width="780"/>
  <unicode hex="0051"/>
  <outline>
    <contour>
      <point x="463" y="80" type="line"/>
      <point x="311" y="80" type="line"/>
      <point x="311" y="5" type="line" smooth="yes"/>
      <point x="311" y="-128"/>
      <point x="393" y="-210"/>
      <point x="530" y="-210" type="curve"/>
      <point x="630" y="-210"/>
      <point x="704" y="-161"/>
      <point x="716" y="-57" type="curve"/>
      <point x="590" y="-42" type="line"/>
      <point x="586" y="-71"/>
      <point x="563" y="-87"/>
      <point x="531" y="-87" type="curve"/>
      <point x="485" y="-87"/>
      <point x="463" y="-61"/>
      <point x="463" y="-4" type="curve"/>
    </contour>
    <contour>
      <point x="393" y="-10" type="curve"/>
      <point x="595" y="-8"/>
      <point x="742" y="139"/>
      <point x="742" y="369" type="curve"/>
      <point x="742" y="580"/>
      <point x="607" y="720"/>
      <point x="406" y="720" type="curve"/>
      <point x="179" y="720"/>
      <point x="38" y="564"/>
      <point x="38" y="342" type="curve"/>
      <point x="38" y="120"/>
      <point x="171" y="-12"/>
    </contour>
    <contour>
      <point x="387" y="129" type="curve"/>
      <point x="268" y="129"/>
      <point x="196" y="207"/>
      <point x="196" y="345" type="curve"/>
      <point x="196" y="486"/>
      <point x="282" y="582"/>
      <point x="402" y="582" type="curve"/>
      <point x="513" y="582"/>
      <point x="584" y="497"/>
      <point x="584" y="368" type="curve"/>
      <point x="584" y="217"/>
      <point x="503" y="129"/>
    </contour>
    <contour>
      <point x="391" y="710" type="move" name="top"/>
    </contour>
  </outline>
</glyph>
<glyph name="R" format="1">
  <advance width="649"/>
  <unicode hex="0052"/>
  <outline>
    <contour>
      <point x="689" y="26" type="curve"/>
      <point x="653" y="146" type="line"/>
      <point x="632" y="132"/>
      <point x="610" y="127"/>
      <point x="585" y="127" type="curve"/>
      <point x="548" y="127"/>
      <point x="524" y="141"/>
      <point x="500" y="177" type="curve"/>
      <point x="462" y="234" type="line" smooth="yes"/>
      <point x="431" y="280"/>
      <point x="395" y="300"/>
      <point x="353" y="300" type="curve"/>
      <point x="309" y="282" type="line"/>
      <point x="336" y="282" type="line" smooth="yes"/>
      <point x="477" y="282"/>
      <point x="588" y="357"/>
      <point x="588" y="491" type="curve"/>
      <point x="588" y="627"/>
      <point x="491" y="710"/>
      <point x="300" y="710" type="curve"/>
      <point x="68" y="710" type="line"/>
      <point x="68" y="0" type="line"/>
      <point x="221" y="0" type="line"/>
      <point x="221" y="583" type="line"/>
      <point x="290" y="583" type="line" smooth="yes"/>
      <point x="381" y="583"/>
      <point x="433" y="555"/>
      <point x="433" y="492" type="curve"/>
      <point x="433" y="428"/>
      <point x="390" y="400"/>
      <point x="286" y="400" type="curve"/>
      <point x="188" y="400" type="line"/>
      <point x="188" y="279" type="line"/>
      <point x="215" y="279" type="line" smooth="yes"/>
      <point x="243" y="279"/>
      <point x="264" y="270"/>
      <point x="287" y="234" type="curve"/>
      <point x="376" y="93" type="line" smooth="yes"/>
      <point x="418" y="26"/>
      <point x="483" y="-10"/>
      <point x="566" y="-10" type="curve"/>
      <point x="613" y="-10"/>
      <point x="661" y="4"/>
    </contour>
    <contour>
      <point x="340" y="0" type="move" name="bottom"/>
    </contour>
    <contour>
      <point x="340" y="710" type="move" name="top"/>
    </contour>
  </outline>
</glyph>
<glyph name="S" format="1">
  <advance width="596"/>
  <unicode hex="0053"/>
  <note>
    s
  </note>
  <outline>
    <contour>
      <point x="296" y="-9" type="curve"/>
      <point x="462" y="-9"/>
      <point x="574" y="80"/>
      <point x="574" y="210" type="curve"/>
      <point x="574" y="464"/>
      <point x="215" y="368"/>
      <point x="215" y="509" type="curve"/>
      <point x="215" y="558"/>
      <point x="256" y="590"/>
      <point x="317" y="590" type="curve"/>
      <point x="379" y="590"/>
      <point x="420" y="558"/>
      <point x="431" y="500" type="curve"/>
      <point x="568" y="523" type="line"/>
      <point x="554" y="645"/>
      <point x="461" y="720"/>
      <point x="324" y="720" type="curve"/>
      <point x="166" y="720"/>
      <point x="58" y="628"/>
      <point x="58" y="497" type="curve"/>
      <point x="57" y="234"/>
      <point x="417" y="325"/>
      <point x="417" y="197" type="curve"/>
      <point x="417" y="149"/>
      <point x="375" y="121"/>
      <point x="302" y="121" type="curve"/>
      <point x="217" y="121"/>
      <point x="168" y="160"/>
      <point x="159" y="233" type="curve"/>
      <point x="14" y="212" type="line"/>
      <point x="26" y="67"/>
      <point x="123" y="-9"/>
    </contour>
    <contour>
      <point x="306" y="0" type="move" name="bottom"/>
    </contour>
    <contour>
      <point x="306" y="710" type="move" name="top"/>
    </contour>
  </outline>
</glyph>
<glyph name="T" format="1">
  <advance width="588"/>
  <unicode hex="0054"/>
  <outline>
    <contour>
      <point x="588" y="574" type="line"/>
      <point x="608" y="710" type="line"/>
      <point x="-10" y="710" type="line"/>
      <point x="-10" y="574" type="line"/>
      <point x="216" y="574" type="line"/>
      <point x="216" y="0" type="line"/>
      <point x="372" y="0" type="line"/>
      <point x="372" y="574" type="line"/>
    </contour>
    <contour>
      <point x="294" y="0" type="move" name="bottom"/>
    </contour>
    <contour>
      <point x="294" y="360" type="move" name="stroke"/>
    </contour>
    <contour>
      <point x="294" y="710" type="move" name="top"/>
    </contour>
  </outline>
</glyph>
<glyph name="U" format="1">
  <advance width="756"/>
  <unicode hex="0055"/>
  <outline>
    <contour>
      <point x="689" y="710" type="line"/>
      <point x="535" y="710" type="line"/>
      <point x="537" y="336" type="line" smooth="yes"/>
      <point x="538" y="194"/>
      <point x="482" y="129"/>
      <point x="381" y="129" type="curve"/>
      <point x="278" y="129"/>
      <point x="221" y="183"/>
      <point x="221" y="313" type="curve"/>
      <point x="221" y="710" type="line"/>
      <point x="65" y="710" type="line"/>
      <point x="65" y="300" type="line" smooth="yes"/>
      <point x="65" y="94"/>
      <point x="174" y="-12"/>
      <point x="384" y="-10" type="curve"/>
      <point x="572" y="-8"/>
      <point x="692" y="123"/>
      <point x="691" y="327" type="curve"/>
    </contour>
    <contour>
      <point x="378" y="0" type="move" name="bottom"/>
    </contour>
    <contour>
      <point x="480" y="0" type="move" name="ogonek"/>
    </contour>
    <contour>
      <point x="378" y="710" type="move" name="top"/>
    </contour>
    <contour>
      <point x="661" y="710" type="move" name="topright"/>
    </contour>
  </outline>
</glyph>
<glyph name="V" format="1">
  <advance width="649"/>
  <unicode hex="0056"/>
  <outline>
    <contour>
      <point x="679" y="710" type="line"/>
      <point x="524" y="710" type="line"/>
      <point x="290" y="33" type="line"/>
      <point x="353" y="33" type="line"/>
      <point x="159" y="710" type="line"/>
      <point x="-6" y="710" type="line"/>
      <point x="206" y="0" type="line"/>
      <point x="425" y="0" type="line"/>
    </contour>
    <contour>
      <point x="325" y="0" type="move" name="bottom"/>
    </contour>
    <contour>
      <point x="325" y="710" type="move" name="top"/>
    </contour>
  </outline>
</glyph>
<glyph name="W" format="1">
  <advance width="1007"/>
  <unicode hex="0057"/>
  <outline>
    <contour>
      <point x="1012" y="710" type="line"/>
      <point x="865" y="710" type="line"/>
      <point x="701" y="114" type="line"/>
      <point x="748" y="114" type="line"/>
      <point x="612" y="710" type="line"/>
      <point x="428" y="710" type="line"/>
      <point x="264" y="114" type="line"/>
      <point x="310" y="114" type="line"/>
      <point x="170" y="710" type="line"/>
      <point x="13" y="710" type="line"/>
      <point x="190" y="0" type="line"/>
      <point x="367" y="0" type="line"/>
      <point x="524" y="563" type="line"/>
      <point x="499" y="563" type="line"/>
      <point x="630" y="0" type="line"/>
      <point x="807" y="0" type="line"/>
    </contour>
    <contour>
      <point x="499" y="0" type="move" name="bottom"/>
    </contour>
    <contour>
      <point x="520" y="710" type="move" name="top"/>
    </contour>
  </outline>
</glyph>
<glyph name="X" format="1">
  <advance width="629"/>
  <unicode hex="0058"/>
  <outline>
    <contour>
      <point x="311" y="232" type="line"/>
      <point x="452" y="0" type="line"/>
      <point x="630" y="0" type="line"/>
      <point x="397" y="367" type="line"/>
      <point x="317" y="491" type="line"/>
      <point x="180" y="710" type="line"/>
      <point x="5" y="710" type="line"/>
      <point x="228" y="359" type="line"/>
    </contour>
    <contour>
      <point x="-8" y="0" type="line"/>
      <point x="163" y="0" type="line"/>
      <point x="311" y="232" type="line"/>
      <point x="397" y="367" type="line"/>
      <point x="620" y="710" type="line"/>
      <point x="454" y="710" type="line"/>
      <point x="317" y="491" type="line"/>
      <point x="228" y="359" type="line"/>
    </contour>
    <contour>
      <point x="317" y="0" type="move" name="bottom"/>
    </contour>
    <contour>
      <point x="317" y="710" type="move" name="top"/>
    </contour>
  </outline>
</glyph>
<glyph name="Y" format="1">
  <advance width="605"/>
  <unicode hex="0059"/>
  <outline>
    <contour>
      <point x="358" y="278" type="line"/>
      <point x="627" y="710" type="line"/>
      <point x="464" y="710" type="line"/>
      <point x="286" y="412" type="line"/>
      <point x="335" y="413" type="line"/>
      <point x="148" y="710" type="line"/>
      <point x="-27" y="710" type="line"/>
      <point x="250" y="274" type="line"/>
      <point x="226" y="357" type="line"/>
      <point x="226" y="0" type="line"/>
      <point x="382" y="0" type="line"/>
      <point x="382" y="361" type="line"/>
    </contour>
    <contour>
      <point x="304" y="0" type="move" name="bottom"/>
    </contour>
    <contour>
      <point x="306" y="710" type="move" name="top"/>
    </contour>
    <contour>
      <point x="18" y="710" type="move" name="topleft"/>
    </contour>
  </outline>
</glyph>
<glyph name="Z" format="1">
  <advance width="636"/>
  <unicode hex="005A"/>
  <outline>
    <contour>
      <point x="37" y="112" type="line"/>
      <point x="37" y="0" type="line"/>
      <point x="608" y="0" type="line"/>
      <point x="618" y="136" type="line"/>
      <point x="182" y="136" type="line"/>
      <point x="203" y="84" type="line"/>
      <point x="606" y="598" type="line"/>
      <point x="606" y="710" type="line"/>
      <point x="55" y="710" type="line"/>
      <point x="55" y="574" type="line"/>
      <point x="459" y="574" type="line"/>
      <point x="440" y="626" type="line"/>
    </contour>
    <contour>
      <point x="323" y="0" type="move" name="bottom"/>
    </contour>
    <contour>
      <point x="318" y="355" type="move" name="center"/>
    </contour>
    <contour>
      <point x="323" y="710" type="move" name="top"/>
    </contour>
  </outline>
</glyph>
<glyph name="bracketleft" format="1">
  <advance width="328"/>
  <unicode hex="005B"/>
  <outline>
    <contour>
      <point x="68" y="-200" type="line"/>
      <point x="324" y="-200" type="line"/>
      <point x="324" y="-90" type="line"/>
      <point x="210" y="-90" type="line"/>
      <point x="210" y="630" type="line"/>
      <point x="324" y="630" type="line"/>
      <point x="324" y="740" type="line"/>
      <point x="68" y="740" type="line"/>
    </contour>
  </outline>
</glyph>
<glyph name="bracketright" format="1">
  <advance width="328"/>
  <unicode hex="005D"/>
  <outline>
    <contour>
      <point x="4" y="-90" type="line"/>
      <point x="4" y="-200" type="line"/>
      <point x="260" y="-200" type="line"/>
      <point x="260" y="740" type="line"/>
      <point x="4" y="740" type="line"/>
      <point x="4" y="630" type="line"/>
      <point x="118" y="630" type="line"/>
      <point x="118" y="-90" type="line"/>
    </contour>
  </outline>
</glyph>
<glyph name="asciicircum" format="1">
  <advance width="600"/>
  <unicode hex="005E"/>
  <outline>
    <contour>
      <point x="566" y="101" type="line"/>
      <point x="352" y="607" type="line"/>
      <point x="247" y="607" type="line"/>
      <point x="34" y="101" type="line"/>
      <point x="166" y="101" type="line"/>
      <point x="335" y="512" type="line"/>
      <point x="265" y="512" type="line"/>
      <point x="432" y="101" type="line"/>
    </contour>
  </outline>
</glyph>
<glyph name="underscore" format="1">
  <advance width="540"/>
  <unicode hex="005F"/>
  <outline>
    <contour>
      <point x="25" y="0" type="line"/>
      <point x="25" y="-121" type="line"/>
      <point x="515" y="-121" type="line"/>
      <point x="515" y="0" type="line"/>
    </contour>
  </outline>
</glyph>
<glyph name="b" format="1">
  <advance width="614"/>
  <unicode hex="0062"/>
  <note>
    b
  </note>
  <outline>
    <contour>
      <point x="60" y="740" type="line"/>
      <point x="60" y="0" type="line"/>
      <point x="165" y="0" type="line"/>
      <point x="183" y="84" type="line"/>
      <point x="173" y="71" type="line"/>
      <point x="198" y="22"/>
      <point x="251" y="-10"/>
      <point x="319" y="-10" type="curve"/>
      <point x="465" y="-10"/>
      <point x="579" y="104"/>
      <point x="579" y="274" type="curve"/>
      <point x="579" y="414"/>
      <point x="504" y="516"/>
      <point x="367" y="516" type="curve"/>
      <point x="265" y="516"/>
      <point x="197" y="457"/>
      <point x="169" y="351" type="curve"/>
      <point x="197" y="329" type="line"/>
      <point x="206" y="508" type="line"/>
      <point x="206" y="740" type="line"/>
    </contour>
    <contour>
      <point x="306" y="117" type="curve"/>
      <point x="245" y="117"/>
      <point x="206" y="161"/>
      <point x="206" y="231" type="curve"/>
      <point x="206" y="325"/>
      <point x="263" y="389"/>
      <point x="335" y="389" type="curve"/>
      <point x="393" y="389"/>
      <point x="429" y="346"/>
      <point x="429" y="270" type="curve"/>
      <point x="429" y="181"/>
      <point x="382" y="117"/>
    </contour>
    <contour>
      <point x="310" y="0" type="move" name="bottom"/>
    </contour>
    <contour>
      <point x="310" y="740" type="move" name="top"/>
    </contour>
  </outline>
</glyph>
<glyph name="c" format="1">
  <advance width="496"/>
  <unicode hex="0063"/>
  <outline>
    <contour>
      <point x="291" y="-10" type="curve"/>
      <point x="377" y="-10"/>
      <point x="454" y="18"/>
      <point x="500" y="95" type="curve"/>
      <point x="400" y="176" type="line"/>
      <point x="377" y="136"/>
      <point x="341" y="118"/>
      <point x="302" y="118" type="curve"/>
      <point x="227" y="118"/>
      <point x="186" y="164"/>
      <point x="186" y="246" type="curve"/>
      <point x="186" y="331"/>
      <point x="236" y="388"/>
      <point x="304" y="388" type="curve"/>
      <point x="347" y="388"/>
      <point x="375" y="372"/>
      <point x="398" y="332" type="curve"/>
      <point x="501" y="410" type="line"/>
      <point x="459" y="484"/>
      <point x="391" y="516"/>
      <point x="304" y="516" type="curve"/>
      <point x="145" y="516"/>
      <point x="35" y="406"/>
      <point x="35" y="244" type="curve"/>
      <point x="35" y="84"/>
      <point x="136" y="-10"/>
    </contour>
    <contour>
      <point x="280" y="0" type="move" name="bottom"/>
    </contour>
    <contour>
      <point x="280" y="508" type="move" name="top"/>
    </contour>
  </outline>
</glyph>
<glyph name="d" format="1">
  <advance width="614"/>
  <unicode hex="0064"/>
  <note>
    d
  </note>
  <outline>
    <contour>
      <point x="554" y="0" type="line"/>
      <point x="554" y="740" type="line"/>
      <point x="408" y="740" type="line"/>
      <point x="408" y="508" type="line"/>
      <point x="412" y="418" type="line"/>
      <point x="441" y="435" type="line"/>
      <point x="416" y="484"/>
      <point x="363" y="516"/>
      <point x="295" y="516" type="curve"/>
      <point x="149" y="516"/>
      <point x="35" y="402"/>
      <point x="35" y="232" type="curve"/>
      <point x="35" y="92"/>
      <point x="110" y="-10"/>
      <point x="247" y="-10" type="curve"/>
      <point x="349" y="-10"/>
      <point x="417" y="49"/>
      <point x="445" y="155" type="curve"/>
      <point x="417" y="179" type="line"/>
      <point x="407" y="0" type="line"/>
    </contour>
    <contour>
      <point x="308" y="389" type="curve"/>
      <point x="369" y="389"/>
      <point x="408" y="346"/>
      <point x="408" y="276" type="curve"/>
      <point x="408" y="182"/>
      <point x="351" y="117"/>
      <point x="279" y="117" type="curve"/>
      <point x="221" y="117"/>
      <point x="185" y="161"/>
      <point x="185" y="237" type="curve"/>
      <point x="185" y="326"/>
      <point x="232" y="389"/>
    </contour>
    <contour>
      <point x="320" y="0" type="move" name="bottom"/>
    </contour>
    <contour>
      <point x="304" y="254" type="move" name="center"/>
    </contour>
    <contour>
      <point x="424" y="628" type="move" name="stroke"/>
    </contour>
    <contour>
      <point x="304" y="740" type="move" name="top"/>
    </contour>
    <contour>
      <point x="589" y="740" type="move" name="topright"/>
    </contour>
  </outline>
</glyph>
<glyph name="e" format="1">
  <advance width="546"/>
  <unicode hex="0065"/>
  <note>
    e
  </note>
  <outline>
    <contour>
      <point x="309" y="-10" type="curve"/>
      <point x="407" y="-10"/>
      <point x="469" y="24"/>
      <point x="514" y="79" type="curve"/>
      <point x="431" y="164" type="line"/>
      <point x="402" y="132"/>
      <point x="357" y="115"/>
      <point x="320" y="115" type="curve"/>
      <point x="232" y="115"/>
      <point x="182" y="163"/>
      <point x="182" y="225" type="curve"/>
      <point x="182" y="266" type="line" smooth="yes"/>
      <point x="182" y="356"/>
      <point x="225" y="409"/>
      <point x="295" y="409" type="curve"/>
      <point x="356" y="409"/>
      <point x="393" y="375"/>
      <point x="385" y="296" type="curve"/>
      <point x="416" y="313" type="line"/>
      <point x="145" y="313" type="line"/>
      <point x="145" y="210" type="line"/>
      <point x="510" y="210" type="line"/>
      <point x="534" y="396"/>
      <point x="458" y="516"/>
      <point x="293" y="516" type="curve"/>
      <point x="146" y="516"/>
      <point x="35" y="407"/>
      <point x="35" y="246" type="curve"/>
      <point x="35" y="89"/>
      <point x="141" y="-10"/>
    </contour>
    <contour>
      <point x="290" y="0" type="move" name="bottom"/>
    </contour>
    <contour>
      <point x="432" y="0" type="move" name="ogonek"/>
    </contour>
    <contour>
      <point x="290" y="508" type="move" name="top"/>
    </contour>
  </outline>
</glyph>
<glyph name="f" format="1">
  <advance width="375"/>
  <unicode hex="0066"/>
  <outline>
    <contour>
      <point x="88" y="527" type="curve"/>
      <point x="88" y="0" type="line"/>
      <point x="234" y="0" type="line"/>
      <point x="234" y="419" type="line"/>
      <point x="232" y="487" type="line"/>
      <point x="232" y="539" type="line" smooth="yes"/>
      <point x="232" y="596"/>
      <point x="261" y="627"/>
      <point x="309" y="627" type="curve"/>
      <point x="342" y="627"/>
      <point x="365" y="611"/>
      <point x="369" y="582" type="curve"/>
      <point x="493" y="597" type="line"/>
      <point x="479" y="701"/>
      <point x="414" y="750"/>
      <point x="312" y="750" type="curve"/>
      <point x="184" y="750"/>
      <point x="88" y="662"/>
    </contour>
    <contour>
      <point x="372" y="508" type="line"/>
      <point x="-7" y="508" type="line"/>
      <point x="-7" y="387" type="line"/>
      <point x="372" y="387" type="line"/>
    </contour>
  </outline>
</glyph>
<glyph name="g" format="1">
  <advance width="618"/>
  <unicode hex="0067"/>
  <note>
    g
  </note>
  <outline>
    <contour>
      <point x="245" y="-210" type="curve"/>
      <point x="436" y="-210"/>
      <point x="558" y="-110"/>
      <point x="558" y="96" type="curve"/>
      <point x="558" y="506" type="line"/>
      <point x="453" y="506" type="line"/>
      <point x="435" y="422" type="line"/>
      <point x="445" y="435" type="line"/>
      <point x="420" y="484"/>
      <point x="367" y="516"/>
      <point x="296" y="516" type="curve"/>
      <point x="145" y="516"/>
      <point x="35" y="401"/>
      <point x="35" y="238" type="curve"/>
      <point x="35" y="105"/>
      <point x="112" y="9"/>
      <point x="254" y="9" type="curve"/>
      <point x="356" y="9"/>
      <point x="422" y="67"/>
      <point x="451" y="174" type="curve"/>
      <point x="421" y="198" type="line"/>
      <point x="414" y="79" type="line" smooth="yes"/>
      <point x="407" y="-32"/>
      <point x="366" y="-82"/>
      <point x="253" y="-82" type="curve"/>
      <point x="189" y="-82"/>
      <point x="139" y="-67"/>
      <point x="94" y="-44" type="curve"/>
      <point x="59" y="-169" type="line"/>
      <point x="104" y="-198"/>
      <point x="184" y="-210"/>
    </contour>
    <contour>
      <point x="309" y="389" type="curve"/>
      <point x="372" y="389"/>
      <point x="412" y="349"/>
      <point x="412" y="284" type="curve"/>
      <point x="412" y="200"/>
      <point x="356" y="136"/>
      <point x="283" y="136" type="curve"/>
      <point x="223" y="136"/>
      <point x="185" y="177"/>
      <point x="185" y="248" type="curve"/>
      <point x="185" y="330"/>
      <point x="233" y="389"/>
    </contour>
    <contour>
      <point x="306" y="-200" type="move" name="bottom"/>
    </contour>
    <contour>
      <point x="320" y="508" type="move" name="top"/>
    </contour>
  </outline>
</glyph>
<glyph name="h" format="1">
  <advance width="618"/>
  <unicode hex="0068"/>
  <note>
    h
  </note>
  <outline>
    <contour>
      <point x="60" y="740" type="line"/>
      <point x="60" y="0" type="line"/>
      <point x="205" y="0" type="line"/>
      <point x="209" y="297"/>
      <point x="267" y="381"/>
      <point x="350" y="381" type="curve"/>
      <point x="399" y="381"/>
      <point x="421" y="341"/>
      <point x="420" y="270" type="curve"/>
      <point x="418" y="0" type="line"/>
      <point x="564" y="0" type="line"/>
      <point x="566" y="281" type="line" smooth="yes"/>
      <point x="567" y="432"/>
      <point x="507" y="516"/>
      <point x="388" y="516" type="curve"/>
      <point x="275" y="516"/>
      <point x="188" y="431"/>
      <point x="163" y="289" type="curve"/>
      <point x="194" y="309" type="line"/>
      <point x="207" y="508" type="line"/>
      <point x="206" y="740" type="line"/>
    </contour>
    <contour>
      <point x="312" y="0" type="move" name="bottom"/>
    </contour>
    <contour>
      <point x="190" y="628" type="move" name="stroke"/>
    </contour>
    <contour>
      <point x="312" y="710" type="move" name="top"/>
    </contour>
  </outline>
</glyph>
<glyph name="k" format="1">
  <advance width="558"/>
  <unicode hex="006B"/>
  <note>
    k
  </note>
  <outline>
    <contour>
      <point x="596" y="19" type="curve"/>
      <point x="564" y="126" type="line"/>
      <point x="547" y="117"/>
      <point x="529" y="112"/>
      <point x="508" y="112" type="curve"/>
      <point x="471" y="112"/>
      <point x="442" y="128"/>
      <point x="421" y="160" type="curve"/>
      <point x="379" y="225" type="line" smooth="yes"/>
      <point x="352" y="266"/>
      <point x="311" y="284"/>
      <point x="251" y="284" type="curve"/>
      <point x="318" y="239" type="line"/>
      <point x="572" y="508" type="line"/>
      <point x="398" y="508" type="line"/>
      <point x="187" y="284" type="line"/>
      <point x="144" y="226" type="line"/>
      <point x="198" y="226"/>
      <point x="223" y="210"/>
      <point x="258" y="155" type="curve"/>
      <point x="300" y="90" type="line" smooth="yes"/>
      <point x="345" y="19"/>
      <point x="396" y="-8"/>
      <point x="480" y="-10" type="curve"/>
      <point x="522" y="-11"/>
      <point x="560" y="-3"/>
    </contour>
    <contour>
      <point x="60" y="740" type="line"/>
      <point x="60" y="0" type="line"/>
      <point x="206" y="0" type="line"/>
      <point x="206" y="740" type="line"/>
    </contour>
    <contour>
      <point x="323" y="0" type="move" name="bottom"/>
    </contour>
    <contour>
      <point x="289" y="740" type="move" name="top"/>
    </contour>
  </outline>
</glyph>
<glyph name="l" format="1">
  <advance width="305"/>
  <unicode hex="006C"/>
  <note>
    l
  </note>
  <outline>
    <contour>
      <point x="217" y="-10" type="curve"/>
      <point x="262" y="-10"/>
      <point x="304" y="4"/>
      <point x="326" y="22" type="curve"/>
      <point x="291" y="127" type="line"/>
      <point x="280" y="119"/>
      <point x="266" y="115"/>
      <point x="251" y="115" type="curve"/>
      <point x="222" y="115"/>
      <point x="206" y="132"/>
      <point x="206" y="164" type="curve"/>
      <point x="206" y="740" type="line"/>
      <point x="60" y="740" type="line"/>
      <point x="60" y="154" type="line" smooth="yes"/>
      <point x="60" y="47"/>
      <point x="116" y="-10"/>
    </contour>
    <contour>
      <point x="143" y="0" type="move" name="bottom"/>
    </contour>
    <contour>
      <point x="133" y="380" type="move" name="center"/>
    </contour>
    <contour>
      <point x="342" y="435" type="move" name="dotacc"/>
    </contour>
    <contour>
      <point x="133" y="710" type="move" name="top"/>
    </contour>
    <contour>
      <point x="241" y="740" type="move" name="topright"/>
    </contour>
  </outline>
</glyph>
<glyph name="m" format="1">
  <advance width="963"/>
  <unicode hex="006D"/>
  <note>
    m
  </note>
  <outline>
    <contour>
      <point x="60" y="508" type="line"/>
      <point x="60" y="0" type="line"/>
      <point x="205" y="0" type="line"/>
      <point x="209" y="299"/>
      <point x="268" y="381"/>
      <point x="342" y="381" type="curve"/>
      <point x="391" y="381"/>
      <point x="412" y="341"/>
      <point x="412" y="280" type="curve"/>
      <point x="412" y="0" type="line"/>
      <point x="557" y="0" type="line"/>
      <point x="560" y="299"/>
      <point x="619" y="381"/>
      <point x="693" y="381" type="curve"/>
      <point x="742" y="381"/>
      <point x="765" y="341"/>
      <point x="765" y="280" type="curve"/>
      <point x="763" y="0" type="line"/>
      <point x="909" y="0" type="line"/>
      <point x="911" y="281" type="line" smooth="yes"/>
      <point x="912" y="431"/>
      <point x="852" y="516"/>
      <point x="734" y="516" type="curve"/>
      <point x="638" y="516"/>
      <point x="534" y="452"/>
      <point x="508" y="313" type="curve"/>
      <point x="556" y="327" type="line"/>
      <point x="545" y="460"/>
      <point x="472" y="516"/>
      <point x="383" y="516" type="curve"/>
      <point x="284" y="516"/>
      <point x="193" y="453"/>
      <point x="161" y="289" type="curve"/>
      <point x="194" y="309" type="line"/>
      <point x="205" y="508" type="line"/>
    </contour>
    <contour>
      <point x="485" y="0" type="move" name="bottom"/>
    </contour>
    <contour>
      <point x="485" y="508" type="move" name="top"/>
    </contour>
  </outline>
</glyph>
<glyph name="o" format="1">
  <advance width="593"/>
  <unicode hex="006F"/>
  <note>
    o
  </note>
  <outline>
    <contour>
      <point x="307" y="516" type="curve"/>
      <point x="142" y="516"/>
      <point x="35" y="399"/>
      <point x="35" y="241" type="curve"/>
      <point x="35" y="87"/>
      <point x="129" y="-10"/>
      <point x="285" y="-10" type="curve"/>
      <point x="450" y="-10"/>
      <point x="558" y="107"/>
      <point x="558" y="265" type="curve"/>
      <point x="558" y="419"/>
      <point x="463" y="516"/>
    </contour>
    <contour>
      <point x="292" y="117" type="curve"/>
      <point x="224" y="117"/>
      <point x="185" y="163"/>
      <point x="185" y="241" type="curve"/>
      <point x="185" y="331"/>
      <point x="231" y="389"/>
      <point x="303" y="389" type="curve"/>
      <point x="368" y="389"/>
      <point x="408" y="343"/>
      <point x="408" y="265" type="curve"/>
      <point x="408" y="175"/>
      <point x="362" y="117"/>
    </contour>
    <contour>
      <point x="297" y="0" type="move" name="bottom"/>
    </contour>
    <contour>
      <point x="297" y="254" type="move" name="center"/>
    </contour>
    <contour>
      <point x="393" y="0" type="move" name="ogonek"/>
    </contour>
    <contour>
      <point x="297" y="508" type="move" name="top"/>
    </contour>
    <contour>
      <point x="416" y="508" type="move" name="topright"/>
    </contour>
  </outline>
</glyph>
<glyph name="q" format="1">
  <advance width="614"/>
  <unicode hex="0071"/>
  <note>
    q
  </note>
  <outline>
    <contour>
      <point x="554" y="-200" type="line"/>
      <point x="554" y="506" type="line"/>
      <point x="449" y="506" type="line"/>
      <point x="431" y="424" type="line"/>
      <point x="441" y="435" type="line"/>
      <point x="416" y="484"/>
      <point x="363" y="516"/>
      <point x="295" y="516" type="curve"/>
      <point x="149" y="516"/>
      <point x="35" y="402"/>
      <point x="35" y="232" type="curve"/>
      <point x="35" y="92"/>
      <point x="110" y="-10"/>
      <point x="247" y="-10" type="curve"/>
      <point x="348" y="-10"/>
      <point x="417" y="49"/>
      <point x="445" y="155" type="curve"/>
      <point x="417" y="179" type="line"/>
      <point x="408" y="0" type="line"/>
      <point x="408" y="-200" type="line"/>
    </contour>
    <contour>
      <point x="308" y="389" type="curve"/>
      <point x="369" y="389"/>
      <point x="408" y="346"/>
      <point x="408" y="276" type="curve"/>
      <point x="408" y="182"/>
      <point x="351" y="117"/>
      <point x="279" y="117" type="curve"/>
      <point x="221" y="117"/>
      <point x="185" y="161"/>
      <point x="185" y="237" type="curve"/>
      <point x="185" y="326"/>
      <point x="232" y="389"/>
    </contour>
    <contour>
      <point x="247" y="0" type="move" name="bottom"/>
    </contour>
    <contour>
      <point x="320" y="508" type="move" name="top"/>
    </contour>
  </outline>
</glyph>
<glyph name="r" format="1">
  <advance width="400"/>
  <unicode hex="0072"/>
  <note>
    r
  </note>
  <outline>
    <contour>
      <point x="404" y="367" type="curve"/>
      <point x="429" y="507" type="line"/>
      <point x="410" y="514"/>
      <point x="391" y="516"/>
      <point x="369" y="516" type="curve"/>
      <point x="279" y="516"/>
      <point x="196" y="453"/>
      <point x="176" y="279" type="curve"/>
      <point x="195" y="289" type="line"/>
      <point x="205" y="508" type="line"/>
      <point x="60" y="508" type="line"/>
      <point x="61" y="329" type="line"/>
      <point x="61" y="0" type="line"/>
      <point x="206" y="0" type="line"/>
      <point x="206" y="273"/>
      <point x="246" y="375"/>
      <point x="349" y="375" type="curve"/>
      <point x="373" y="375"/>
      <point x="391" y="372"/>
    </contour>
    <contour>
      <point x="134" y="0" type="move" name="bottom"/>
    </contour>
    <contour>
      <point x="245" y="508" type="move" name="top"/>
    </contour>
  </outline>
</glyph>
<glyph name="s" format="1">
  <advance width="482"/>
  <unicode hex="0073"/>
  <note>
    s
  </note>
  <outline>
    <contour>
      <point x="245" y="-10" type="curve"/>
      <point x="371" y="-10"/>
      <point x="463" y="54"/>
      <point x="463" y="152" type="curve"/>
      <point x="463" y="342"/>
      <point x="184" y="282"/>
      <point x="184" y="361" type="curve"/>
      <point x="184" y="384"/>
      <point x="205" y="404"/>
      <point x="252" y="404" type="curve"/>
      <point x="301" y="404"/>
      <point x="329" y="382"/>
      <point x="338" y="349" type="curve"/>
      <point x="453" y="382" type="line"/>
      <point x="441" y="458"/>
      <point x="366" y="516"/>
      <point x="256" y="516" type="curve"/>
      <point x="130" y="516"/>
      <point x="42" y="445"/>
      <point x="42" y="349" type="curve"/>
      <point x="42" y="159"/>
      <point x="321" y="221"/>
      <point x="321" y="142" type="curve"/>
      <point x="321" y="117"/>
      <point x="295" y="102"/>
      <point x="242" y="102" type="curve"/>
      <point x="178" y="102"/>
      <point x="142" y="129"/>
      <point x="134" y="171" type="curve"/>
      <point x="13" y="141" type="line"/>
      <point x="26" y="48"/>
      <point x="99" y="-10"/>
    </contour>
    <contour>
      <point x="255" y="0" type="move" name="bottom"/>
    </contour>
    <contour>
      <point x="255" y="508" type="move" name="top"/>
    </contour>
  </outline>
</glyph>
<glyph name="t" format="1">
  <advance width="423"/>
  <unicode hex="0074"/>
  <outline>
    <contour>
      <point x="287" y="-10" type="curve"/>
      <point x="352" y="-10"/>
      <point x="406" y="5"/>
      <point x="438" y="32" type="curve"/>
      <point x="396" y="143" type="line"/>
      <point x="366" y="122"/>
      <point x="340" y="116"/>
      <point x="311" y="116" type="curve"/>
      <point x="259" y="116"/>
      <point x="232" y="145"/>
      <point x="233" y="195" type="curve"/>
      <point x="239" y="612" type="line"/>
      <point x="94" y="612" type="line"/>
      <point x="87" y="179" type="line" smooth="yes"/>
      <point x="85" y="66"/>
      <point x="163" y="-10"/>
    </contour>
    <contour>
      <point x="6" y="508" type="line"/>
      <point x="6" y="387" type="line"/>
      <point x="398" y="387" type="line"/>
      <point x="398" y="508" type="line"/>
    </contour>
    <contour>
      <point x="263" y="0" type="move" name="bottom"/>
    </contour>
    <contour>
      <point x="203" y="270" type="move" name="stroke"/>
    </contour>
    <contour>
      <point x="167" y="612" type="move" name="top"/>
    </contour>
    <contour>
      <point x="279" y="740" type="move" name="topright"/>
    </contour>
  </outline>
</glyph>
<glyph name="v" format="1">
  <advance width="531"/>
  <unicode hex="0076"/>
  <outline>
    <contour>
      <point x="558" y="508" type="line"/>
      <point x="413" y="508" type="line"/>
      <point x="245" y="35" type="line"/>
      <point x="300" y="35" type="line"/>
      <point x="161" y="508" type="line"/>
      <point x="3" y="508" type="line"/>
      <point x="163" y="0" type="line"/>
      <point x="371" y="0" type="line"/>
    </contour>
    <contour>
      <point x="267" y="0" type="move" name="bottom"/>
    </contour>
    <contour>
      <point x="287" y="508" type="move" name="top"/>
    </contour>
  </outline>
</glyph>
<glyph name="w" format="1">
  <advance width="879"/>
  <unicode hex="0077"/>
  <outline>
    <contour>
      <point x="890" y="508" type="line"/>
      <point x="746" y="508" type="line"/>
      <point x="595" y="46" type="line"/>
      <point x="650" y="46" type="line"/>
      <point x="521" y="508" type="line"/>
      <point x="381" y="508" type="line"/>
      <point x="230" y="46" type="line"/>
      <point x="287" y="46" type="line"/>
      <point x="156" y="508" type="line"/>
      <point x="5" y="508" type="line"/>
      <point x="164" y="0" type="line"/>
      <point x="345" y="0" type="line"/>
      <point x="459" y="339" type="line"/>
      <point x="437" y="339" type="line"/>
      <point x="533" y="0" type="line"/>
      <point x="714" y="0" type="line"/>
    </contour>
    <contour>
      <point x="439" y="0" type="move" name="bottom"/>
    </contour>
    <contour>
      <point x="451" y="508" type="move" name="top"/>
    </contour>
  </outline>
</glyph>
<glyph name="x" format="1">
  <advance width="512"/>
  <unicode hex="0078"/>
  <outline>
    <contour>
      <point x="253" y="145" type="line"/>
      <point x="350" y="0" type="line"/>
      <point x="528" y="0" type="line"/>
      <point x="341" y="266" type="line"/>
      <point x="259" y="381" type="line"/>
      <point x="169" y="508" type="line"/>
      <point x="-8" y="508" type="line"/>
      <point x="170" y="260" type="line"/>
    </contour>
    <contour>
      <point x="-18" y="0" type="line"/>
      <point x="151" y="0" type="line"/>
      <point x="253" y="145" type="line"/>
      <point x="341" y="266" type="line"/>
      <point x="520" y="508" type="line"/>
      <point x="351" y="508" type="line"/>
      <point x="259" y="381" type="line"/>
      <point x="170" y="260" type="line"/>
    </contour>
    <contour>
      <point x="255" y="0" type="move" name="bottom"/>
    </contour>
    <contour>
      <point x="255" y="508" type="move" name="top"/>
    </contour>
  </outline>
</glyph>
<glyph name="y" format="1">
  <advance width="610"/>
  <unicode hex="0079"/>
  <outline>
    <contour>
      <point x="242" y="-210" type="curve"/>
      <point x="433" y="-210"/>
      <point x="550" y="-114"/>
      <point x="550" y="96" type="curve"/>
      <point x="550" y="508" type="line"/>
      <point x="409" y="508" type="line"/>
      <point x="406" y="232"/>
      <point x="352" y="145"/>
      <point x="267" y="145" type="curve"/>
      <point x="218" y="145"/>
      <point x="198" y="184"/>
      <point x="198" y="245" type="curve"/>
      <point x="200" y="508" type="line"/>
      <point x="54" y="508" type="line"/>
      <point x="52" y="234" type="line" smooth="yes"/>
      <point x="51" y="93"/>
      <point x="110" y="9"/>
      <point x="229" y="9" type="curve"/>
      <point x="342" y="9"/>
      <point x="428" y="95"/>
      <point x="453" y="238" type="curve"/>
      <point x="419" y="208" type="line"/>
      <point x="411" y="79" type="line" smooth="yes"/>
      <point x="404" y="-32"/>
      <point x="363" y="-82"/>
      <point x="250" y="-82" type="curve"/>
      <point x="186" y="-82"/>
      <point x="136" y="-67"/>
      <point x="91" y="-44" type="curve"/>
      <point x="56" y="-169" type="line"/>
      <point x="101" y="-198"/>
      <point x="181" y="-210"/>
    </contour>
    <contour>
      <point x="610" y="0" type="move" name="bottom"/>
    </contour>
    <contour>
      <point x="305" y="508" type="move" name="top"/>
    </contour>
  </outline>
</glyph>
<glyph name="z" format="1">
  <advance width="461"/>
  <unicode hex="007A"/>
  <outline>
    <contour>
      <point x="26" y="110" type="line"/>
      <point x="26" y="0" type="line"/>
      <point x="441" y="0" type="line"/>
      <point x="441" y="121" type="line"/>
      <point x="164" y="121" type="line"/>
      <point x="164" y="66" type="line"/>
      <point x="441" y="403" type="line"/>
      <point x="441" y="508" type="line"/>
      <point x="34" y="508" type="line"/>
      <point x="34" y="387" type="line"/>
      <point x="312" y="387" type="line"/>
      <point x="312" y="453" type="line"/>
    </contour>
    <contour>
      <point x="238" y="0" type="move" name="bottom"/>
    </contour>
    <contour>
      <point x="228" y="254" type="move" name="center"/>
    </contour>
    <contour>
      <point x="238" y="508" type="move" name="top"/>
    </contour>
  </outline>
</glyph>
<glyph name="braceleft" format="1">
  <advance width="421"/>
  <unicode hex="007B"/>
  <outline>
    <contour>
      <point x="282" y="-41" type="curve"/>
      <point x="282" y="18"/>
      <point x="328" y="65"/>
      <point x="328" y="137" type="curve"/>
      <point x="328" y="196"/>
      <point x="285" y="262"/>
      <point x="156" y="277" type="curve"/>
      <point x="156" y="265" type="line"/>
      <point x="285" y="280"/>
      <point x="328" y="345"/>
      <point x="328" y="405" type="curve"/>
      <point x="328" y="477"/>
      <point x="282" y="524"/>
      <point x="282" y="583" type="curve"/>
      <point x="282" y="625"/>
      <point x="315" y="656"/>
      <point x="365" y="659" type="curve"/>
      <point x="348" y="748" type="line"/>
      <point x="200" y="734"/>
      <point x="132" y="658"/>
      <point x="132" y="577" type="curve"/>
      <point x="132" y="512"/>
      <point x="178" y="450"/>
      <point x="178" y="399" type="curve"/>
      <point x="178" y="351"/>
      <point x="158" y="319"/>
      <point x="66" y="319" type="curve"/>
      <point x="66" y="223" type="line"/>
      <point x="158" y="223"/>
      <point x="178" y="191"/>
      <point x="178" y="143" type="curve"/>
      <point x="178" y="92"/>
      <point x="132" y="30"/>
      <point x="132" y="-35" type="curve"/>
      <point x="132" y="-116"/>
      <point x="200" y="-192"/>
      <point x="348" y="-206" type="curve"/>
      <point x="365" y="-117" type="line"/>
      <point x="315" y="-114"/>
      <point x="282" y="-83"/>
    </contour>
  </outline>
</glyph>
<glyph name="bar" format="1">
  <advance width="303"/>
  <unicode hex="007C"/>
  <outline>
    <contour>
      <point x="78" y="740" type="line"/>
      <point x="78" y="-200" type="line"/>
      <point x="225" y="-200" type="line"/>
      <point x="225" y="740" type="line"/>
    </contour>
  </outline>
</glyph>
<glyph name="braceright" format="1">
  <advance width="421"/>
  <unicode hex="007D"/>
  <outline>
    <contour>
      <point x="139" y="-41" type="curve"/>
      <point x="139" y="-83"/>
      <point x="106" y="-114"/>
      <point x="56" y="-117" type="curve"/>
      <point x="73" y="-206" type="line"/>
      <point x="221" y="-192"/>
      <point x="289" y="-116"/>
      <point x="289" y="-35" type="curve"/>
      <point x="289" y="30"/>
      <point x="243" y="92"/>
      <point x="243" y="143" type="curve"/>
      <point x="243" y="191"/>
      <point x="263" y="223"/>
      <point x="355" y="223" type="curve"/>
      <point x="355" y="319" type="line"/>
      <point x="263" y="319"/>
      <point x="243" y="351"/>
      <point x="243" y="399" type="curve"/>
      <point x="243" y="450"/>
      <point x="289" y="512"/>
      <point x="289" y="577" type="curve"/>
      <point x="289" y="658"/>
      <point x="221" y="734"/>
      <point x="73" y="748" type="curve"/>
      <point x="56" y="659" type="line"/>
      <point x="106" y="656"/>
      <point x="139" y="625"/>
      <point x="139" y="583" type="curve"/>
      <point x="139" y="524"/>
      <point x="93" y="477"/>
      <point x="93" y="405" type="curve"/>
      <point x="93" y="345"/>
      <point x="136" y="280"/>
      <point x="265" y="265" type="curve"/>
      <point x="265" y="277" type="line"/>
      <point x="136" y="262"/>
      <point x="93" y="196"/>
      <point x="93" y="137" type="curve"/>
      <point x="93" y="65"/>
      <point x="139" y="18"/>
    </contour>
  </outline>
</glyph>
<glyph name="asciitilde" format="1">
  <advance width="600"/>
  <unicode hex="007E"/>
  <outline>
    <contour>
      <point x="403" y="160" type="curve"/>
      <point x="467" y="160"/>
      <point x="522" y="196"/>
      <point x="552" y="268" type="curve"/>
      <point x="480" y="335" type="line"/>
      <point x="461" y="305"/>
      <point x="439" y="292"/>
      <point x="402" y="292" type="curve"/>
      <point x="356" y="292"/>
      <point x="261" y="349"/>
      <point x="197" y="349" type="curve"/>
      <point x="133" y="349"/>
      <point x="78" y="313"/>
      <point x="48" y="241" type="curve"/>
      <point x="120" y="174" type="line"/>
      <point x="139" y="204"/>
      <point x="161" y="217"/>
      <point x="198" y="217" type="curve"/>
      <point x="244" y="217"/>
      <point x="339" y="160"/>
    </contour>
  </outline>
</glyph>
<glyph name="exclamdown" format="1">
  <advance width="266"/>
  <unicode hex="00A1"/>
  <outline>
    <contour>
      <point x="83" y="274" type="line"/>
      <point x="41" y="-200" type="line"/>
      <point x="207" y="-200" type="line"/>
      <point x="183" y="274" type="line"/>
    </contour>
    <contour>
      <point x="133" y="340" type="curve"/>
      <point x="190" y="340"/>
      <point x="226" y="379"/>
      <point x="226" y="429" type="curve"/>
      <point x="226" y="479"/>
      <point x="190" y="518"/>
      <point x="133" y="518" type="curve"/>
      <point x="76" y="518"/>
      <point x="40" y="479"/>
      <point x="40" y="429" type="curve"/>
      <point x="40" y="379"/>
      <point x="76" y="340"/>
    </contour>
  </outline>
</glyph>
<glyph name="cent" format="1">
  <advance width="600"/>
  <unicode hex="00A2"/>
  <outline>
    <contour>
      <point x="335" y="-10" type="curve"/>
      <point x="421" y="-10"/>
      <point x="498" y="18"/>
      <point x="544" y="95" type="curve"/>
      <point x="444" y="176" type="line"/>
      <point x="421" y="136"/>
      <point x="385" y="118"/>
      <point x="346" y="118" type="curve"/>
      <point x="271" y="118"/>
      <point x="230" y="164"/>
      <point x="230" y="246" type="curve"/>
      <point x="230" y="331"/>
      <point x="280" y="388"/>
      <point x="348" y="388" type="curve"/>
      <point x="391" y="388"/>
      <point x="419" y="372"/>
      <point x="442" y="332" type="curve"/>
      <point x="545" y="410" type="line"/>
      <point x="503" y="484"/>
      <point x="435" y="516"/>
      <point x="348" y="516" type="curve"/>
      <point x="189" y="516"/>
      <point x="79" y="406"/>
      <point x="79" y="244" type="curve"/>
      <point x="79" y="84"/>
      <point x="180" y="-10"/>
    </contour>
    <contour>
      <point x="386" y="-120" type="line"/>
      <point x="386" y="50" type="line"/>
      <point x="285" y="50" type="line"/>
      <point x="285" y="-120" type="line"/>
    </contour>
    <contour>
      <point x="285" y="628" type="line"/>
      <point x="285" y="458" type="line"/>
      <point x="386" y="458" type="line"/>
      <point x="386" y="628" type="line"/>
    </contour>
  </outline>
</glyph>
<glyph name="sterling" format="1">
  <advance width="600"/>
  <unicode hex="00A3"/>
  <outline>
    <contour>
      <point x="33" y="87" type="curve"/>
      <point x="96" y="-12" type="line"/>
      <point x="131" y="15"/>
      <point x="174" y="30"/>
      <point x="216" y="30" type="curve"/>
      <point x="272" y="30"/>
      <point x="364" y="-11"/>
      <point x="418" y="-11" type="curve"/>
      <point x="488" y="-11"/>
      <point x="552" y="31"/>
      <point x="582" y="97" type="curve"/>
      <point x="497" y="164" type="line"/>
      <point x="478" y="136"/>
      <point x="451" y="121"/>
      <point x="417" y="121" type="curve"/>
      <point x="371" y="121"/>
      <point x="324" y="155"/>
      <point x="278" y="155" type="curve"/>
      <point x="255" y="155"/>
      <point x="246" y="151"/>
      <point x="230" y="142" type="curve"/>
      <point x="245" y="131" type="line"/>
      <point x="272" y="166"/>
      <point x="284" y="206"/>
      <point x="284" y="254" type="curve"/>
      <point x="284" y="359"/>
      <point x="234" y="396"/>
      <point x="234" y="488" type="curve"/>
      <point x="234" y="546"/>
      <point x="276" y="587"/>
      <point x="338" y="587" type="curve"/>
      <point x="403" y="587"/>
      <point x="443" y="558"/>
      <point x="466" y="492" type="curve"/>
      <point x="585" y="543" type="line"/>
      <point x="549" y="658"/>
      <point x="464" y="720"/>
      <point x="341" y="720" type="curve"/>
      <point x="195" y="720"/>
      <point x="82" y="616"/>
      <point x="82" y="493" type="curve"/>
      <point x="82" y="389"/>
      <point x="142" y="304"/>
      <point x="142" y="234" type="curve"/>
      <point x="142" y="171"/>
      <point x="99" y="113"/>
    </contour>
    <contour>
      <point x="10" y="406" type="line"/>
      <point x="10" y="305" type="line"/>
      <point x="402" y="305" type="line"/>
      <point x="402" y="406" type="line"/>
    </contour>
  </outline>
</glyph>
<glyph name="currency" format="1">
  <advance width="600"/>
  <unicode hex="00A4"/>
  <outline>
    <contour>
      <point x="300" y="97" type="curve"/>
      <point x="436" y="97"/>
      <point x="545" y="209"/>
      <point x="545" y="347" type="curve"/>
      <point x="545" y="486"/>
      <point x="435" y="598"/>
      <point x="300" y="598" type="curve"/>
      <point x="164" y="598"/>
      <point x="55" y="486"/>
      <point x="55" y="347" type="curve"/>
      <point x="55" y="209"/>
      <point x="164" y="97"/>
    </contour>
    <contour>
      <point x="26" y="153" type="line"/>
      <point x="105" y="74" type="line"/>
      <point x="215" y="184" type="line"/>
      <point x="136" y="263" type="line"/>
    </contour>
    <contour>
      <point x="374" y="187" type="line"/>
      <point x="486" y="75" type="line"/>
      <point x="565" y="154" type="line"/>
      <point x="454" y="266" type="line"/>
    </contour>
    <contour>
      <point x="300" y="219" type="curve"/>
      <point x="231" y="219"/>
      <point x="180" y="277"/>
      <point x="180" y="347" type="curve"/>
      <point x="180" y="418"/>
      <point x="233" y="477"/>
      <point x="300" y="476" type="curve"/>
      <point x="366" y="475"/>
      <point x="420" y="418"/>
      <point x="420" y="347" type="curve"/>
      <point x="420" y="277"/>
      <point x="366" y="219"/>
    </contour>
    <contour>
      <point x="26" y="534" type="line"/>
      <point x="122" y="438" type="line"/>
      <point x="201" y="518" type="line"/>
      <point x="105" y="613" type="line"/>
    </contour>
    <contour>
      <point x="394" y="520" type="line"/>
      <point x="473" y="440" type="line"/>
      <point x="574" y="542" type="line"/>
      <point x="495" y="621" type="line"/>
    </contour>
  </outline>
</glyph>
<glyph name="yen" format="1">
  <advance width="600"/>
  <unicode hex="00A5"/>
  <outline>
    <contour>
      <point x="340" y="278" type="line"/>
      <point x="609" y="710" type="line"/>
      <point x="446" y="710" type="line"/>
      <point x="268" y="412" type="line"/>
      <point x="357" y="413" type="line"/>
      <point x="170" y="710" type="line"/>
      <point x="-5" y="710" type="line"/>
      <point x="272" y="274" type="line"/>
      <point x="228" y="377" type="line"/>
      <point x="228" y="0" type="line"/>
      <point x="384" y="0" type="line"/>
      <point x="384" y="381" type="line"/>
    </contour>
    <contour>
      <point x="74" y="224" type="line"/>
      <point x="74" y="123" type="line"/>
      <point x="526" y="123" type="line"/>
      <point x="526" y="224" type="line"/>
    </contour>
    <contour>
      <point x="74" y="387" type="line"/>
      <point x="74" y="286" type="line"/>
      <point x="526" y="286" type="line"/>
      <point x="526" y="387" type="line"/>
    </contour>
  </outline>
</glyph>
<glyph name="section" format="1">
  <advance width="523"/>
  <unicode hex="00A7"/>
  <outline>
    <contour>
      <point x="283" y="300" type="curve"/>
      <point x="283" y="228" type="line"/>
      <point x="390" y="228"/>
      <point x="482" y="274"/>
      <point x="482" y="368" type="curve"/>
      <point x="482" y="532"/>
      <point x="203" y="484"/>
      <point x="203" y="565" type="curve"/>
      <point x="203" y="588"/>
      <point x="224" y="608"/>
      <point x="271" y="608" type="curve"/>
      <point x="320" y="608"/>
      <point x="348" y="586"/>
      <point x="357" y="553" type="curve"/>
      <point x="472" y="586" type="line"/>
      <point x="460" y="662"/>
      <point x="385" y="720"/>
      <point x="275" y="720" type="curve"/>
      <point x="149" y="720"/>
      <point x="61" y="649"/>
      <point x="61" y="553" type="curve"/>
      <point x="61" y="368"/>
      <point x="340" y="422"/>
      <point x="340" y="343" type="curve"/>
      <point x="340" y="317"/>
      <point x="314" y="300"/>
    </contour>
    <contour>
      <point x="241" y="410" type="curve"/>
      <point x="241" y="482" type="line"/>
      <point x="133" y="482"/>
      <point x="41" y="436"/>
      <point x="41" y="342" type="curve"/>
      <point x="41" y="178"/>
      <point x="320" y="226"/>
      <point x="320" y="145" type="curve"/>
      <point x="320" y="122"/>
      <point x="299" y="102"/>
      <point x="252" y="102" type="curve"/>
      <point x="203" y="102"/>
      <point x="175" y="124"/>
      <point x="166" y="157" type="curve"/>
      <point x="51" y="124" type="line"/>
      <point x="63" y="48"/>
      <point x="138" y="-10"/>
      <point x="248" y="-10" type="curve"/>
      <point x="374" y="-10"/>
      <point x="462" y="61"/>
      <point x="462" y="157" type="curve"/>
      <point x="462" y="342"/>
      <point x="183" y="288"/>
      <point x="183" y="367" type="curve"/>
      <point x="183" y="393"/>
      <point x="209" y="410"/>
    </contour>
  </outline>
</glyph>
<glyph name="degree" format="1">
  <advance width="393"/>
  <unicode hex="00B0"/>
  <outline>
    <contour>
      <point x="197" y="400" type="curve"/>
      <point x="289" y="400"/>
      <point x="358" y="467"/>
      <point x="358" y="559" type="curve"/>
      <point x="358" y="650"/>
      <point x="289" y="717"/>
      <point x="197" y="717" type="curve"/>
      <point x="105" y="717"/>
      <point x="35" y="650"/>
      <point x="35" y="559" type="curve"/>
      <point x="35" y="467"/>
      <point x="105" y="400"/>
    </contour>
    <contour>
      <point x="197" y="486" type="curve"/>
      <point x="157" y="486"/>
      <point x="126" y="516"/>
      <point x="126" y="560" type="curve"/>
      <point x="126" y="603"/>
      <point x="157" y="633"/>
      <point x="197" y="633" type="curve"/>
      <point x="236" y="633"/>
      <point x="268" y="603"/>
      <point x="268" y="560" type="curve"/>
      <point x="268" y="516"/>
      <point x="236" y="486"/>
    </contour>
  </outline>
</glyph>
<glyph name="plusminus" format="1">
  <advance width="600"/>
  <unicode hex="00B1"/>
  <outline>
    <contour>
      <point x="47" y="118" type="line"/>
      <point x="47" y="0" type="line"/>
      <point x="553" y="0" type="line"/>
      <point x="553" y="118" type="line"/>
    </contour>
    <contour>
      <point x="499" y="277" type="line"/>
      <point x="499" y="395" type="line"/>
      <point x="101" y="395" type="line"/>
      <point x="101" y="277" type="line"/>
    </contour>
    <contour>
      <point x="364" y="508" type="line"/>
      <point x="236" y="508" type="line"/>
      <point x="236" y="164" type="line"/>
      <point x="364" y="164" type="line"/>
    </contour>
  </outline>
</glyph>
<glyph name="uni00B5" format="1">
  <advance width="606"/>
  <unicode hex="00B5"/>
  <outline>
    <contour>
      <point x="546" y="508" type="line"/>
      <point x="405" y="508" type="line"/>
      <point x="402" y="209"/>
      <point x="346" y="126"/>
      <point x="266" y="126" type="curve"/>
      <point x="220" y="126"/>
      <point x="198" y="162"/>
      <point x="198" y="218" type="curve"/>
      <point x="200" y="508" type="line"/>
      <point x="52" y="508" type="line"/>
      <point x="52" y="-200" type="line"/>
      <point x="198" y="-200" type="line"/>
      <point x="189" y="37" type="line"/>
      <point x="169" y="16" type="line"/>
      <point x="191" y="-7"/>
      <point x="217" y="-10"/>
      <point x="257" y="-10" type="curve"/>
      <point x="348" y="-10"/>
      <point x="423" y="76"/>
      <point x="448" y="236" type="curve"/>
      <point x="411" y="129" type="line"/>
      <point x="404" y="0" type="line"/>
      <point x="546" y="0" type="line"/>
    </contour>
  </outline>
</glyph>
<glyph name="paragraph" format="1">
  <advance width="769"/>
  <unicode hex="00B6"/>
  <outline>
    <contour>
      <point x="13" y="483" type="curve"/>
      <point x="13" y="338"/>
      <point x="122" y="252"/>
      <point x="302" y="252" type="curve"/>
      <point x="382" y="252" type="line"/>
      <point x="327" y="297" type="line"/>
      <point x="327" y="0" type="line"/>
      <point x="479" y="0" type="line"/>
      <point x="479" y="710" type="line"/>
      <point x="312" y="710" type="line" smooth="yes"/>
      <point x="122" y="710"/>
      <point x="13" y="628"/>
    </contour>
    <contour>
      <point x="701" y="710" type="line"/>
      <point x="549" y="710" type="line"/>
      <point x="549" y="0" type="line"/>
      <point x="701" y="0" type="line"/>
    </contour>
  </outline>
</glyph>
<glyph name="questiondown" format="1">
  <advance width="511"/>
  <unicode hex="00BF"/>
  <outline>
    <contour>
      <point x="281" y="519" type="curve"/>
      <point x="226" y="519"/>
      <point x="188" y="482"/>
      <point x="188" y="430" type="curve"/>
      <point x="188" y="378"/>
      <point x="226" y="341"/>
      <point x="281" y="341" type="curve"/>
      <point x="336" y="341"/>
      <point x="374" y="378"/>
      <point x="374" y="430" type="curve"/>
      <point x="374" y="482"/>
      <point x="336" y="519"/>
    </contour>
    <contour>
      <point x="337" y="272" type="curve"/>
      <point x="227" y="278" type="line"/>
      <point x="224" y="223"/>
      <point x="204" y="190"/>
      <point x="142" y="141" type="curve"/>
      <point x="76" y="89"/>
      <point x="45" y="39"/>
      <point x="45" y="-34" type="curve"/>
      <point x="45" y="-138"/>
      <point x="134" y="-211"/>
      <point x="260" y="-211" type="curve"/>
      <point x="381" y="-211"/>
      <point x="482" y="-141"/>
      <point x="516" y="-34" type="curve"/>
      <point x="406" y="25" type="line"/>
      <point x="384" y="-41"/>
      <point x="338" y="-78"/>
      <point x="277" y="-78" type="curve"/>
      <point x="221" y="-78"/>
      <point x="195" y="-56"/>
      <point x="195" y="-25" type="curve"/>
      <point x="195" y="4"/>
      <point x="212" y="26"/>
      <point x="258" y="62" type="curve"/>
      <point x="322" y="112"/>
      <point x="347" y="174"/>
    </contour>
  </outline>
</glyph>
<glyph name="AE" format="1">
  <advance width="943"/>
  <unicode hex="00C6"/>
  <outline>
    <contour>
      <point x="286" y="710" type="line"/>
      <point x="-21" y="0" type="line"/>
      <point x="138" y="0" type="line"/>
      <point x="386" y="609" type="line"/>
      <point x="340" y="576" type="line"/>
      <point x="487" y="576" type="line"/>
      <point x="487" y="710" type="line"/>
    </contour>
    <contour>
      <point x="202" y="281" type="line"/>
      <point x="139" y="147" type="line"/>
      <point x="487" y="147" type="line"/>
      <point x="487" y="281" type="line"/>
    </contour>
    <contour>
      <point x="599" y="576" type="line"/>
      <point x="915" y="576" type="line"/>
      <point x="915" y="710" type="line"/>
      <point x="445" y="710" type="line"/>
      <point x="445" y="0" type="line"/>
      <point x="915" y="0" type="line"/>
      <point x="925" y="134" type="line"/>
      <point x="599" y="134" type="line"/>
      <point x="599" y="291" type="line"/>
      <point x="895" y="291" type="line"/>
      <point x="895" y="425" type="line"/>
      <point x="599" y="425" type="line"/>
    </contour>
    <contour>
      <point x="522" y="0" type="move" name="bottom"/>
    </contour>
    <contour>
      <point x="522" y="710" type="move" name="top"/>
    </contour>
  </outline>
</glyph>
<glyph name="Thorn" format="1">
  <advance width="638"/>
  <unicode hex="00DE"/>
  <outline>
    <contour>
      <point x="328" y="609" type="curve"/>
      <point x="191" y="609" type="line"/>
      <point x="191" y="482" type="line"/>
      <point x="325" y="482" type="line" smooth="yes"/>
      <point x="423" y="482"/>
      <point x="468" y="457"/>
      <point x="468" y="382" type="curve"/>
      <point x="468" y="309"/>
      <point x="418" y="279"/>
      <point x="312" y="279" type="curve"/>
      <point x="191" y="279" type="line"/>
      <point x="191" y="151" type="line"/>
      <point x="304" y="151" type="line" smooth="yes"/>
      <point x="508" y="151"/>
      <point x="623" y="239"/>
      <point x="623" y="385" type="curve"/>
      <point x="623" y="531"/>
      <point x="523" y="609"/>
    </contour>
    <contour>
      <point x="220" y="0" type="line"/>
      <point x="220" y="710" type="line"/>
      <point x="68" y="710" type="line"/>
      <point x="68" y="0" type="line"/>
    </contour>
  </outline>
</glyph>
<glyph name="germandbls" format="1">
  <advance width="706"/>
  <unicode hex="00DF"/>
  <outline>
    <contour>
      <point x="497" y="-10" type="curve"/>
      <point x="624" y="-10"/>
      <point x="709" y="63"/>
      <point x="709" y="155" type="curve"/>
      <point x="709" y="342"/>
      <point x="452" y="305"/>
      <point x="452" y="375" type="curve"/>
      <point x="452" y="434"/>
      <point x="594" y="468"/>
      <point x="594" y="595" type="curve"/>
      <point x="594" y="687"/>
      <point x="506" y="750"/>
      <point x="382" y="750" type="curve"/>
      <point x="208" y="750"/>
      <point x="90" y="638"/>
      <point x="90" y="478" type="curve"/>
      <point x="90" y="0" type="line"/>
      <point x="236" y="0" type="line"/>
      <point x="236" y="479" type="line" smooth="yes"/>
      <point x="236" y="586"/>
      <point x="291" y="638"/>
      <point x="380" y="638" type="curve"/>
      <point x="436" y="638"/>
      <point x="464" y="617"/>
      <point x="464" y="587" type="curve"/>
      <point x="464" y="509"/>
      <point x="314" y="480"/>
      <point x="314" y="351" type="curve"/>
      <point x="314" y="178"/>
      <point x="567" y="226"/>
      <point x="567" y="146" type="curve"/>
      <point x="567" y="118"/>
      <point x="545" y="102"/>
      <point x="500" y="102" type="curve"/>
      <point x="455" y="102"/>
      <point x="426" y="121"/>
      <point x="414" y="164" type="curve"/>
      <point x="284" y="133" type="line"/>
      <point x="306" y="41"/>
      <point x="375" y="-10"/>
    </contour>
    <contour>
      <point x="-7" y="510" type="line"/>
      <point x="-7" y="389" type="line"/>
      <point x="172" y="389" type="line"/>
      <point x="172" y="510" type="line"/>
    </contour>
  </outline>
</glyph>
<glyph name="ae" format="1">
  <advance width="850"/>
  <unicode hex="00E6"/>
  <note>
    A
  </note>
  <outline>
    <contour>
      <point x="234" y="-10" type="curve"/>
      <point x="329" y="-10"/>
      <point x="399" y="31"/>
      <point x="435" y="114" type="curve"/>
      <point x="401" y="109" type="line"/>
      <point x="444" y="28"/>
      <point x="510" y="-10"/>
      <point x="613" y="-10" type="curve"/>
      <point x="711" y="-10"/>
      <point x="773" y="24"/>
      <point x="818" y="79" type="curve"/>
      <point x="735" y="163" type="line"/>
      <point x="706" y="131"/>
      <point x="661" y="114"/>
      <point x="624" y="114" type="curve"/>
      <point x="536" y="114"/>
      <point x="491" y="163"/>
      <point x="491" y="223" type="curve"/>
      <point x="491" y="270" type="line" smooth="yes"/>
      <point x="491" y="356"/>
      <point x="529" y="410"/>
      <point x="603" y="410" type="curve"/>
      <point x="660" y="410"/>
      <point x="697" y="375"/>
      <point x="689" y="296" type="curve"/>
      <point x="721" y="313" type="line"/>
      <point x="463" y="313" type="line"/>
      <point x="463" y="210" type="line"/>
      <point x="814" y="210" type="line"/>
      <point x="838" y="396"/>
      <point x="762" y="516"/>
      <point x="597" y="516" type="curve"/>
      <point x="533" y="516"/>
      <point x="451" y="475"/>
      <point x="419" y="406" type="curve"/>
      <point x="457" y="394" type="line"/>
      <point x="428" y="484"/>
      <point x="351" y="516"/>
      <point x="265" y="516" type="curve"/>
      <point x="146" y="516"/>
      <point x="64" y="451"/>
      <point x="37" y="359" type="curve"/>
      <point x="163" y="335" type="line"/>
      <point x="177" y="375"/>
      <point x="207" y="399"/>
      <point x="260" y="399" type="curve"/>
      <point x="312" y="399"/>
      <point x="343" y="371"/>
      <point x="343" y="318" type="curve"/>
      <point x="343" y="193" type="line" smooth="yes"/>
      <point x="343" y="133"/>
      <point x="311" y="101"/>
      <point x="254" y="101" type="curve"/>
      <point x="207" y="101"/>
      <point x="175" y="122"/>
      <point x="175" y="156" type="curve"/>
      <point x="175" y="190"/>
      <point x="198" y="210"/>
      <point x="256" y="210" type="curve"/>
      <point x="387" y="210" type="line"/>
      <point x="387" y="313" type="line"/>
      <point x="244" y="313" type="line" smooth="yes"/>
      <point x="104" y="313"/>
      <point x="32" y="244"/>
      <point x="32" y="150" type="curve"/>
      <point x="32" y="57"/>
      <point x="117" y="-10"/>
    </contour>
    <contour>
      <point x="417" y="0" type="move" name="bottom"/>
    </contour>
    <contour>
      <point x="417" y="508" type="move" name="top"/>
    </contour>
  </outline>
</glyph>
<glyph name="eth" format="1">
  <advance width="605"/>
  <unicode hex="00F0"/>
  <outline>
    <contour>
      <point x="290" y="-10" type="curve"/>
      <point x="461" y="-10"/>
      <point x="575" y="122"/>
      <point x="575" y="307" type="curve"/>
      <point x="575" y="522"/>
      <point x="435" y="688"/>
      <point x="194" y="756" type="curve"/>
      <point x="147" y="648" type="line"/>
      <point x="311" y="603"/>
      <point x="414" y="494"/>
      <point x="428" y="356" type="curve"/>
      <point x="473" y="331" type="line"/>
      <point x="444" y="426"/>
      <point x="376" y="470"/>
      <point x="282" y="470" type="curve"/>
      <point x="142" y="470"/>
      <point x="35" y="367"/>
      <point x="35" y="223" type="curve"/>
      <point x="35" y="82"/>
      <point x="133" y="-10"/>
    </contour>
    <contour>
      <point x="296" y="117" type="curve"/>
      <point x="228" y="117"/>
      <point x="186" y="158"/>
      <point x="186" y="224" type="curve"/>
      <point x="186" y="301"/>
      <point x="235" y="349"/>
      <point x="307" y="349" type="curve"/>
      <point x="377" y="349"/>
      <point x="418" y="308"/>
      <point x="418" y="242" type="curve"/>
      <point x="418" y="174"/>
      <point x="370" y="117"/>
    </contour>
    <contour>
      <point x="139" y="578" type="line"/>
      <point x="158" y="495" type="line"/>
      <point x="561" y="590" type="line"/>
      <point x="542" y="673" type="line"/>
    </contour>
  </outline>
</glyph>
<glyph name="divide" format="1">
  <advance width="600"/>
  <unicode hex="00F7"/>
  <outline>
    <contour>
      <point x="553" y="195" type="line"/>
      <point x="553" y="313" type="line"/>
      <point x="47" y="313" type="line"/>
      <point x="47" y="195" type="line"/>
    </contour>
    <contour>
      <point x="300" y="-10" type="curve"/>
      <point x="343" y="-10"/>
      <point x="378" y="22"/>
      <point x="378" y="65" type="curve"/>
      <point x="378" y="108"/>
      <point x="343" y="140"/>
      <point x="300" y="140" type="curve"/>
      <point x="257" y="140"/>
      <point x="222" y="108"/>
      <point x="222" y="65" type="curve"/>
      <point x="222" y="22"/>
      <point x="257" y="-10"/>
    </contour>
    <contour>
      <point x="300" y="368" type="curve"/>
      <point x="343" y="368"/>
      <point x="378" y="400"/>
      <point x="378" y="443" type="curve"/>
      <point x="378" y="486"/>
      <point x="343" y="518"/>
      <point x="300" y="518" type="curve"/>
      <point x="257" y="518"/>
      <point x="222" y="486"/>
      <point x="222" y="443" type="curve"/>
      <point x="222" y="400"/>
      <point x="257" y="368"/>
    </contour>
  </outline>
</glyph>
<glyph name="eogonek" format="1">
  <advance width="546"/>
  <unicode hex="0119"/>
  <outline>
    <contour>
      <point x="368" y="-223" type="curve"/>
      <point x="419" y="-223"/>
      <point x="465" y="-204"/>
      <point x="488" y="-173" type="curve"/>
      <point x="439" y="-103" type="line"/>
      <point x="424" y="-122"/>
      <point x="402" y="-134"/>
      <point x="384" y="-134" type="curve"/>
      <point x="356" y="-134"/>
      <point x="340" y="-120"/>
      <point x="340" y="-96" type="curve"/>
      <point x="340" y="-62"/>
      <point x="361" y="-32"/>
      <point x="446" y="22" type="curve"/>
      <point x="472" y="39"/>
      <point x="496" y="58"/>
      <point x="512" y="81" type="curve"/>
      <point x="431" y="163" type="line"/>
      <point x="402" y="131"/>
      <point x="357" y="114"/>
      <point x="320" y="114" type="curve"/>
      <point x="232" y="114"/>
      <point x="182" y="163"/>
      <point x="182" y="225" type="curve"/>
      <point x="182" y="266" type="line" smooth="yes"/>
      <point x="182" y="356"/>
      <point x="226" y="410"/>
      <point x="295" y="410" type="curve"/>
      <point x="356" y="410"/>
      <point x="393" y="375"/>
      <point x="385" y="296" type="curve"/>
      <point x="416" y="313" type="line"/>
      <point x="145" y="313" type="line"/>
      <point x="145" y="210" type="line"/>
      <point x="510" y="210" type="line"/>
      <point x="534" y="396"/>
      <point x="458" y="516"/>
      <point x="293" y="516" type="curve"/>
      <point x="146" y="516"/>
      <point x="35" y="407"/>
      <point x="35" y="246" type="curve"/>
      <point x="35" y="89"/>
      <point x="141" y="-10"/>
      <point x="309" y="-10" type="curve"/>
      <point x="333" y="-10" type="line"/>
      <point x="307" y="9" type="line"/>
      <point x="249" y="-19"/>
      <point x="218" y="-62"/>
      <point x="218" y="-112" type="curve"/>
      <point x="218" y="-178"/>
      <point x="280" y="-223"/>
    </contour>
    <contour>
      <point x="290" y="508" type="move" name="top"/>
    </contour>
  </outline>
</glyph>
<glyph name="dotlessi" format="1">
  <advance width="266"/>
  <unicode hex="0131"/>
  <outline>
    <contour>
      <point x="206" y="0" type="line"/>
      <point x="206" y="508" type="line"/>
      <point x="60" y="508" type="line"/>
      <point x="60" y="0" type="line"/>
    </contour>
    <contour>
      <point x="133" y="0" type="move" name="bottom"/>
    </contour>
    <contour>
      <point x="206" y="0" type="move" name="ogonek"/>
    </contour>
    <contour>
      <point x="133" y="508" type="move" name="top"/>
    </contour>
  </outline>
</glyph>
<glyph name="Eng" format="1">
  <advance width="748"/>
  <unicode hex="014A"/>
  <outline>
    <contour>
      <point x="462" y="-210" type="curve"/>
      <point x="586" y="-210"/>
      <point x="680" y="-119"/>
      <point x="680" y="38" type="curve"/>
      <point x="680" y="710" type="line"/>
      <point x="530" y="710" type="line"/>
      <point x="530" y="141" type="line"/>
      <point x="588" y="175" type="line"/>
      <point x="206" y="710" type="line"/>
      <point x="68" y="710" type="line"/>
      <point x="68" y="0" type="line"/>
      <point x="218" y="0" type="line"/>
      <point x="218" y="569" type="line"/>
      <point x="160" y="535" type="line"/>
      <point x="542" y="0" type="line"/>
      <point x="532" y="63" type="line"/>
      <point x="532" y="1" type="line" smooth="yes"/>
      <point x="532" y="-43"/>
      <point x="503" y="-73"/>
      <point x="464" y="-73" type="curve"/>
      <point x="426" y="-73"/>
      <point x="398" y="-48"/>
      <point x="388" y="2" type="curve"/>
      <point x="261" y="-55" type="line"/>
      <point x="281" y="-156"/>
      <point x="363" y="-210"/>
    </contour>
  </outline>
</glyph>
<glyph name="eng" format="1">
  <advance width="618"/>
  <unicode hex="014B"/>
  <outline>
    <contour>
      <point x="564" y="27" type="curve"/>
      <point x="566" y="281" type="line" smooth="yes"/>
      <point x="567" y="432"/>
      <point x="507" y="516"/>
      <point x="388" y="516" type="curve"/>
      <point x="275" y="516"/>
      <point x="188" y="431"/>
      <point x="163" y="289" type="curve"/>
      <point x="194" y="309" type="line"/>
      <point x="205" y="508" type="line"/>
      <point x="60" y="508" type="line"/>
      <point x="60" y="0" type="line"/>
      <point x="205" y="0" type="line"/>
      <point x="209" y="297"/>
      <point x="267" y="381"/>
      <point x="350" y="381" type="curve"/>
      <point x="399" y="381"/>
      <point x="421" y="341"/>
      <point x="420" y="270" type="curve"/>
      <point x="418" y="26" type="line" smooth="yes"/>
      <point x="417" y="-44"/>
      <point x="391" y="-80"/>
      <point x="335" y="-80" type="curve"/>
      <point x="311" y="-80"/>
      <point x="287" y="-77"/>
      <point x="268" y="-70" type="curve"/>
      <point x="243" y="-184" type="line"/>
      <point x="270" y="-195"/>
      <point x="308" y="-200"/>
      <point x="343" y="-200" type="curve"/>
      <point x="475" y="-200"/>
      <point x="563" y="-116"/>
    </contour>
  </outline>
</glyph>
<glyph name="OE" format="1">
  <advance width="1009"/>
  <unicode hex="0152"/>
  <outline>
    <contour>
      <point x="991" y="134" type="line"/>
      <point x="665" y="134" type="line"/>
      <point x="665" y="292" type="line"/>
      <point x="961" y="292" type="line"/>
      <point x="961" y="424" type="line"/>
      <point x="665" y="424" type="line"/>
      <point x="665" y="578" type="line"/>
      <point x="981" y="578" type="line"/>
      <point x="981" y="710" type="line"/>
      <point x="622" y="710" type="line" smooth="yes"/>
      <point x="557" y="710"/>
      <point x="507" y="716"/>
      <point x="445" y="716" type="curve"/>
      <point x="197" y="716"/>
      <point x="38" y="572"/>
      <point x="38" y="336" type="curve"/>
      <point x="38" y="119"/>
      <point x="176" y="-6"/>
      <point x="444" y="-6" type="curve"/>
      <point x="505" y="-6"/>
      <point x="553" y="0"/>
      <point x="612" y="0" type="curve"/>
      <point x="981" y="0" type="line"/>
    </contour>
    <contour>
      <point x="511" y="576" type="curve"/>
      <point x="511" y="134" type="line"/>
      <point x="484" y="130"/>
      <point x="458" y="128"/>
      <point x="431" y="128" type="curve"/>
      <point x="270" y="128"/>
      <point x="196" y="206"/>
      <point x="196" y="341" type="curve"/>
      <point x="196" y="495"/>
      <point x="285" y="582"/>
      <point x="441" y="582" type="curve"/>
      <point x="467" y="582"/>
      <point x="489" y="580"/>
    </contour>
    <contour>
      <point x="588" y="0" type="move" name="bottom"/>
    </contour>
    <contour>
      <point x="588" y="710" type="move" name="top"/>
    </contour>
  </outline>
</glyph>
<glyph name="oe" format="1">
  <advance width="916"/>
  <unicode hex="0153"/>
  <outline>
    <contour>
      <point x="297" y="516" type="curve"/>
      <point x="142" y="516"/>
      <point x="35" y="399"/>
      <point x="35" y="241" type="curve"/>
      <point x="35" y="87"/>
      <point x="129" y="-10"/>
      <point x="282" y="-10" type="curve"/>
      <point x="440" y="-10"/>
      <point x="530" y="107"/>
      <point x="530" y="265" type="curve"/>
      <point x="530" y="419"/>
      <point x="453" y="516"/>
    </contour>
    <contour>
      <point x="292" y="117" type="curve"/>
      <point x="224" y="117"/>
      <point x="185" y="163"/>
      <point x="185" y="241" type="curve"/>
      <point x="185" y="331"/>
      <point x="231" y="389"/>
      <point x="303" y="389" type="curve"/>
      <point x="368" y="389"/>
      <point x="408" y="343"/>
      <point x="408" y="265" type="curve"/>
      <point x="408" y="175"/>
      <point x="362" y="117"/>
    </contour>
    <contour>
      <point x="679" y="-10" type="curve"/>
      <point x="777" y="-10"/>
      <point x="839" y="24"/>
      <point x="884" y="79" type="curve"/>
      <point x="801" y="163" type="line"/>
      <point x="772" y="131"/>
      <point x="727" y="114"/>
      <point x="690" y="114" type="curve"/>
      <point x="602" y="114"/>
      <point x="557" y="163"/>
      <point x="557" y="223" type="curve"/>
      <point x="557" y="270" type="line" smooth="yes"/>
      <point x="557" y="356"/>
      <point x="595" y="410"/>
      <point x="669" y="410" type="curve"/>
      <point x="726" y="410"/>
      <point x="763" y="375"/>
      <point x="755" y="296" type="curve"/>
      <point x="787" y="313" type="line"/>
      <point x="529" y="313" type="line"/>
      <point x="529" y="210" type="line"/>
      <point x="880" y="210" type="line"/>
      <point x="904" y="396"/>
      <point x="828" y="516"/>
      <point x="663" y="516" type="curve"/>
      <point x="545" y="516"/>
      <point x="438" y="407"/>
      <point x="438" y="246" type="curve"/>
      <point x="438" y="85"/>
      <point x="525" y="-10"/>
    </contour>
    <contour>
      <point x="483" y="0" type="move" name="bottom"/>
    </contour>
    <contour>
      <point x="483" y="508" type="move" name="top"/>
    </contour>
  </outline>
</glyph>
<glyph name="Uogonek" format="1">
  <advance width="756"/>
  <unicode hex="0172"/>
  <outline>
    <contour>
      <point x="416" y="-223" type="curve"/>
      <point x="467" y="-223"/>
      <point x="513" y="-204"/>
      <point x="536" y="-173" type="curve"/>
      <point x="487" y="-103" type="line"/>
      <point x="472" y="-122"/>
      <point x="450" y="-134"/>
      <point x="432" y="-134" type="curve"/>
      <point x="404" y="-134"/>
      <point x="388" y="-120"/>
      <point x="388" y="-96" type="curve"/>
      <point x="388" y="-62"/>
      <point x="409" y="-28"/>
      <point x="508" y="13" type="curve"/>
      <point x="624" y="61"/>
      <point x="692" y="172"/>
      <point x="691" y="327" type="curve"/>
      <point x="689" y="710" type="line"/>
      <point x="535" y="710" type="line"/>
      <point x="537" y="336" type="line" smooth="yes"/>
      <point x="538" y="194"/>
      <point x="482" y="129"/>
      <point x="381" y="129" type="curve"/>
      <point x="278" y="129"/>
      <point x="221" y="183"/>
      <point x="221" y="313" type="curve"/>
      <point x="221" y="710" type="line"/>
      <point x="65" y="710" type="line"/>
      <point x="65" y="300" type="line" smooth="yes"/>
      <point x="65" y="94"/>
      <point x="174" y="-12"/>
      <point x="384" y="-10" type="curve"/>
      <point x="404" y="-10" type="line"/>
      <point x="384" y="23" type="line"/>
      <point x="298" y="-10"/>
      <point x="266" y="-61"/>
      <point x="266" y="-112" type="curve"/>
      <point x="266" y="-178"/>
      <point x="328" y="-223"/>
    </contour>
    <contour>
      <point x="379" y="710" type="move" name="top"/>
    </contour>
  </outline>
</glyph>
<glyph name="uni018F" format="1">
  <advance width="777"/>
  <unicode hex="018F"/>
  <outline>
    <contour>
      <point x="380" y="720" type="curve"/>
      <point x="244" y="720"/>
      <point x="133" y="661"/>
      <point x="68" y="571" type="curve"/>
      <point x="184" y="481" type="line"/>
      <point x="230" y="547"/>
      <point x="300" y="581"/>
      <point x="381" y="581" type="curve"/>
      <point x="506" y="581"/>
      <point x="580" y="505"/>
      <point x="580" y="380" type="curve"/>
      <point x="580" y="346" type="line" smooth="yes"/>
      <point x="580" y="210"/>
      <point x="510" y="127"/>
      <point x="389" y="127" type="curve"/>
      <point x="265" y="127"/>
      <point x="208" y="186"/>
      <point x="208" y="301" type="curve"/>
      <point x="178" y="279" type="line"/>
      <point x="648" y="279" type="line"/>
      <point x="648" y="406" type="line"/>
      <point x="43" y="406" type="line"/>
      <point x="8" y="158"/>
      <point x="144" y="-10"/>
      <point x="383" y="-10" type="curve"/>
      <point x="591" y="-10"/>
      <point x="739" y="145"/>
      <point x="739" y="364" type="curve"/>
      <point x="739" y="584"/>
      <point x="604" y="720"/>
    </contour>
  </outline>
</glyph>
<glyph name="florin" format="1">
  <advance width="600"/>
  <unicode hex="0192"/>
  <outline>
    <contour>
      <point x="492" y="508" type="line"/>
      <point x="113" y="508" type="line"/>
      <point x="113" y="387" type="line"/>
      <point x="492" y="387" type="line"/>
    </contour>
    <contour>
      <point x="432" y="750" type="curve"/>
      <point x="304" y="750"/>
      <point x="200" y="662"/>
      <point x="209" y="517" type="curve"/>
      <point x="237" y="46" type="line" smooth="yes"/>
      <point x="242" y="-44"/>
      <point x="210" y="-76"/>
      <point x="147" y="-76" type="curve"/>
      <point x="115" y="-76"/>
      <point x="81" y="-69"/>
      <point x="60" y="-63" type="curve"/>
      <point x="39" y="-183" type="line"/>
      <point x="68" y="-194"/>
      <point x="109" y="-200"/>
      <point x="152" y="-200" type="curve"/>
      <point x="291" y="-200"/>
      <point x="396" y="-119"/>
      <point x="383" y="47" type="curve"/>
      <point x="354" y="419" type="line"/>
      <point x="352" y="487" type="line"/>
      <point x="350" y="529" type="line" smooth="yes"/>
      <point x="347" y="596"/>
      <point x="381" y="627"/>
      <point x="429" y="627" type="curve"/>
      <point x="462" y="627"/>
      <point x="485" y="611"/>
      <point x="489" y="582" type="curve"/>
      <point x="613" y="597" type="line"/>
      <point x="599" y="701"/>
      <point x="534" y="750"/>
    </contour>
  </outline>
</glyph>
<glyph name="Uhorn" format="1">
  <advance width="756"/>
  <unicode hex="01AF"/>
  <outline>
    <contour>
      <point x="848" y="811" type="curve"/>
      <point x="724" y="821" type="line"/>
      <point x="722" y="731"/>
      <point x="707" y="710"/>
      <point x="640" y="710" type="curve"/>
      <point x="535" y="710" type="line"/>
      <point x="537" y="336" type="line" smooth="yes"/>
      <point x="538" y="194"/>
      <point x="482" y="129"/>
      <point x="381" y="129" type="curve"/>
      <point x="278" y="129"/>
      <point x="221" y="183"/>
      <point x="221" y="313" type="curve"/>
      <point x="221" y="710" type="line"/>
      <point x="65" y="710" type="line"/>
      <point x="65" y="300" type="line" smooth="yes"/>
      <point x="65" y="94"/>
      <point x="174" y="-12"/>
      <point x="384" y="-10" type="curve"/>
      <point x="572" y="-8"/>
      <point x="692" y="123"/>
      <point x="691" y="327" type="curve"/>
      <point x="690" y="639" type="line"/>
      <point x="616" y="596" type="line"/>
      <point x="670" y="596" type="line" smooth="yes"/>
      <point x="786" y="596"/>
      <point x="855" y="690"/>
    </contour>
    <contour>
      <point x="378" y="0" type="move" name="bottom"/>
    </contour>
    <contour>
      <point x="378" y="710" type="move" name="top"/>
    </contour>
  </outline>
</glyph>
<glyph name="uhorn" format="1">
  <advance width="606"/>
  <unicode hex="01B0"/>
  <outline>
    <contour>
      <point x="650" y="609" type="curve"/>
      <point x="525" y="619" type="line"/>
      <point x="523" y="527"/>
      <point x="505" y="508"/>
      <point x="449" y="508" type="curve"/>
      <point x="405" y="508" type="line"/>
      <point x="402" y="209"/>
      <point x="346" y="126"/>
      <point x="266" y="126" type="curve"/>
      <point x="218" y="126"/>
      <point x="197" y="165"/>
      <point x="198" y="226" type="curve"/>
      <point x="200" y="508" type="line"/>
      <point x="54" y="508" type="line"/>
      <point x="52" y="215" type="line" smooth="yes"/>
      <point x="51" y="74"/>
      <point x="110" y="-10"/>
      <point x="227" y="-10" type="curve"/>
      <point x="338" y="-10"/>
      <point x="424" y="76"/>
      <point x="449" y="219" type="curve"/>
      <point x="416" y="199" type="line"/>
      <point x="405" y="0" type="line"/>
      <point x="546" y="0" type="line"/>
      <point x="546" y="451" type="line"/>
      <point x="462" y="404" type="line"/>
      <point x="577" y="404"/>
      <point x="655" y="488"/>
    </contour>
    <contour>
      <point x="302" y="0" type="move" name="bottom"/>
    </contour>
    <contour>
      <point x="302" y="508" type="move" name="top"/>
    </contour>
  </outline>
</glyph>
<glyph name="uni01EA" format="1">
  <advance width="780"/>
  <unicode hex="01EA"/>
  <outline>
    <contour>
      <point x="424" y="-223" type="curve"/>
      <point x="475" y="-223"/>
      <point x="521" y="-204"/>
      <point x="544" y="-173" type="curve"/>
      <point x="495" y="-103" type="line"/>
      <point x="480" y="-122"/>
      <point x="458" y="-134"/>
      <point x="440" y="-134" type="curve"/>
      <point x="412" y="-134"/>
      <point x="396" y="-120"/>
      <point x="396" y="-96" type="curve"/>
      <point x="396" y="-62"/>
      <point x="417" y="-30"/>
      <point x="529" y="16" type="curve"/>
      <point x="658" y="69"/>
      <point x="742" y="195"/>
      <point x="742" y="369" type="curve"/>
      <point x="742" y="580"/>
      <point x="607" y="720"/>
      <point x="406" y="720" type="curve"/>
      <point x="179" y="720"/>
      <point x="38" y="564"/>
      <point x="38" y="342" type="curve"/>
      <point x="38" y="120"/>
      <point x="171" y="-12"/>
      <point x="394" y="-10" type="curve"/>
      <point x="424" y="-10" type="line"/>
      <point x="375" y="12" type="line"/>
      <point x="306" y="-18"/>
      <point x="274" y="-61"/>
      <point x="274" y="-112" type="curve"/>
      <point x="274" y="-178"/>
      <point x="336" y="-223"/>
    </contour>
    <contour>
      <point x="387" y="129" type="curve"/>
      <point x="268" y="129"/>
      <point x="196" y="207"/>
      <point x="196" y="345" type="curve"/>
      <point x="196" y="486"/>
      <point x="282" y="582"/>
      <point x="402" y="582" type="curve"/>
      <point x="513" y="582"/>
      <point x="584" y="497"/>
      <point x="584" y="368" type="curve"/>
      <point x="584" y="217"/>
      <point x="503" y="129"/>
    </contour>
    <contour>
      <point x="391" y="710" type="move" name="top"/>
    </contour>
  </outline>
</glyph>
<glyph name="uni01EB" format="1">
  <advance width="593"/>
  <unicode hex="01EB"/>
  <outline>
    <contour>
      <point x="416" y="19" type="curve"/>
      <point x="504" y="63"/>
      <point x="558" y="154"/>
      <point x="558" y="265" type="curve"/>
      <point x="558" y="419"/>
      <point x="463" y="516"/>
      <point x="307" y="516" type="curve"/>
      <point x="142" y="516"/>
      <point x="35" y="399"/>
      <point x="35" y="241" type="curve"/>
      <point x="35" y="87"/>
      <point x="129" y="-10"/>
      <point x="285" y="-10" type="curve"/>
      <point x="303" y="-10" type="line"/>
      <point x="272" y="12" type="line"/>
      <point x="211" y="-18"/>
      <point x="179" y="-61"/>
      <point x="179" y="-112" type="curve"/>
      <point x="179" y="-178"/>
      <point x="241" y="-223"/>
      <point x="329" y="-223" type="curve"/>
      <point x="380" y="-223"/>
      <point x="426" y="-204"/>
      <point x="449" y="-173" type="curve"/>
      <point x="400" y="-103" type="line"/>
      <point x="385" y="-122"/>
      <point x="363" y="-134"/>
      <point x="345" y="-134" type="curve"/>
      <point x="317" y="-134"/>
      <point x="301" y="-120"/>
      <point x="301" y="-96" type="curve"/>
      <point x="301" y="-63"/>
      <point x="321" y="-28"/>
    </contour>
    <contour>
      <point x="185" y="241" type="curve"/>
      <point x="185" y="331"/>
      <point x="231" y="389"/>
      <point x="303" y="389" type="curve"/>
      <point x="368" y="389"/>
      <point x="408" y="343"/>
      <point x="408" y="265" type="curve"/>
      <point x="408" y="175"/>
      <point x="362" y="117"/>
      <point x="292" y="117" type="curve"/>
      <point x="224" y="117"/>
      <point x="185" y="163"/>
    </contour>
    <contour>
      <point x="297" y="508" type="move" name="top"/>
    </contour>
  </outline>
</glyph>
<glyph name="uni0237" format="1">
  <advance width="277"/>
  <unicode hex="0237"/>
  <outline>
    <contour>
      <point x="-15" y="-200" type="curve"/>
      <point x="124" y="-200"/>
      <point x="217" y="-119"/>
      <point x="217" y="27" type="curve"/>
      <point x="217" y="508" type="line"/>
      <point x="71" y="508" type="line"/>
      <point x="71" y="26" type="line" smooth="yes"/>
      <point x="71" y="-44"/>
      <point x="43" y="-76"/>
      <point x="-20" y="-76" type="curve"/>
      <point x="-52" y="-76"/>
      <point x="-86" y="-69"/>
      <point x="-107" y="-63" type="curve"/>
      <point x="-128" y="-183" type="line"/>
      <point x="-99" y="-194"/>
      <point x="-58" y="-200"/>
    </contour>
    <contour>
      <point x="144" y="-200" type="move" name="bottom"/>
    </contour>
    <contour>
      <point x="144" y="508" type="move" name="top"/>
    </contour>
  </outline>
</glyph>
<glyph name="uni0259" format="1">
  <advance width="546"/>
  <unicode hex="0259"/>
  <outline>
    <contour>
      <point x="248" y="516" type="curve"/>
      <point x="158" y="516"/>
      <point x="82" y="482"/>
      <point x="32" y="427" type="curve"/>
      <point x="115" y="343" type="line"/>
      <point x="144" y="375"/>
      <point x="194" y="392"/>
      <point x="237" y="392" type="curve"/>
      <point x="319" y="392"/>
      <point x="364" y="343"/>
      <point x="364" y="281" type="curve"/>
      <point x="364" y="240" type="line" smooth="yes"/>
      <point x="364" y="150"/>
      <point x="326" y="96"/>
      <point x="259" y="96" type="curve"/>
      <point x="195" y="96"/>
      <point x="153" y="131"/>
      <point x="161" y="210" type="curve"/>
      <point x="130" y="193" type="line"/>
      <point x="401" y="193" type="line"/>
      <point x="401" y="296" type="line"/>
      <point x="36" y="296" type="line"/>
      <point x="12" y="110"/>
      <point x="91" y="-10"/>
      <point x="266" y="-10" type="curve"/>
      <point x="403" y="-10"/>
      <point x="511" y="99"/>
      <point x="511" y="260" type="curve"/>
      <point x="511" y="417"/>
      <point x="414" y="516"/>
    </contour>
  </outline>
</glyph>
<glyph name="uni02BA" format="1">
  <advance width="620"/>
  <unicode hex="02BA"/>
  <note>
    uni030B
  </note>
  <outline>
    <contour>
      <point x="354" y="573" type="line"/>
      <point x="464" y="573" type="line"/>
      <point x="556" y="713" type="line"/>
      <point x="425" y="750" type="line"/>
    </contour>
    <contour>
      <point x="162" y="573" type="line"/>
      <point x="272" y="573" type="line"/>
      <point x="364" y="713" type="line"/>
      <point x="233" y="750" type="line"/>
    </contour>
    <contour>
      <point x="313" y="508" type="move" name="_top"/>
    </contour>
    <contour>
      <point x="313" y="749" type="move" name="top"/>
    </contour>
  </outline>
</glyph>
<glyph name="uni02BB" format="1">
  <advance width="639"/>
  <unicode hex="02BB"/>
  <note>
    uni02BB
  </note>
  <outline>
    <contour>
      <point x="400" y="752" type="curve"/>
      <point x="333" y="752" type="line"/>
      <point x="281" y="726"/>
      <point x="249" y="670"/>
      <point x="249" y="631" type="curve"/>
      <point x="249" y="591"/>
      <point x="277" y="568"/>
      <point x="323" y="568" type="curve"/>
      <point x="369" y="568"/>
      <point x="397" y="591"/>
      <point x="397" y="620" type="curve"/>
      <point x="397" y="641"/>
      <point x="379" y="654"/>
      <point x="379" y="685" type="curve"/>
      <point x="379" y="703"/>
      <point x="384" y="726"/>
    </contour>
    <contour>
      <point x="323" y="508" type="move" name="_top"/>
    </contour>
    <contour>
      <point x="323" y="721" type="move" name="top"/>
    </contour>
  </outline>
</glyph>
<glyph name="uni02BC" format="1">
  <advance width="276"/>
  <unicode hex="02BC"/>
  <outline>
    <contour>
      <point x="40" y="367" type="curve"/>
      <point x="114" y="367" type="line"/>
      <point x="183" y="436"/>
      <point x="236" y="544"/>
      <point x="236" y="614" type="curve"/>
      <point x="236" y="681"/>
      <point x="200" y="720"/>
      <point x="139" y="720" type="curve"/>
      <point x="81" y="720"/>
      <point x="42" y="682"/>
      <point x="42" y="626" type="curve"/>
      <point x="42" y="580"/>
      <point x="74" y="555"/>
      <point x="74" y="495" type="curve"/>
      <point x="74" y="460"/>
      <point x="62" y="418"/>
    </contour>
  </outline>
</glyph>
<glyph name="uni02BE" format="1">
  <advance width="613"/>
  <unicode hex="02BE"/>
  <outline>
    <contour>
      <point x="300" y="631" type="curve"/>
      <point x="300" y="568" type="line"/>
      <point x="377" y="568"/>
      <point x="430" y="614"/>
      <point x="430" y="680" type="curve"/>
      <point x="430" y="745"/>
      <point x="376" y="791"/>
      <point x="300" y="791" type="curve"/>
      <point x="300" y="730" type="line"/>
      <point x="334" y="730"/>
      <point x="357" y="710"/>
      <point x="357" y="681" type="curve"/>
      <point x="357" y="650"/>
      <point x="335" y="631"/>
    </contour>
    <contour>
      <point x="300" y="508" type="move" name="_top"/>
    </contour>
    <contour>
      <point x="300" y="710" type="move" name="top"/>
    </contour>
  </outline>
</glyph>
<glyph name="uni02BF" format="1">
  <advance width="613"/>
  <unicode hex="02BF"/>
  <outline>
    <contour>
      <point x="313" y="568" type="curve"/>
      <point x="313" y="631" type="line"/>
      <point x="278" y="631"/>
      <point x="256" y="650"/>
      <point x="256" y="681" type="curve"/>
      <point x="256" y="710"/>
      <point x="279" y="730"/>
      <point x="313" y="730" type="curve"/>
      <point x="313" y="791" type="line"/>
      <point x="237" y="791"/>
      <point x="183" y="745"/>
      <point x="183" y="680" type="curve"/>
      <point x="183" y="614"/>
      <point x="236" y="568"/>
    </contour>
    <contour>
      <point x="313" y="508" type="move" name="_top"/>
    </contour>
    <contour>
      <point x="313" y="710" type="move" name="top"/>
    </contour>
  </outline>
</glyph>
<glyph name="uni02C8" format="1">
  <advance width="618"/>
  <unicode hex="02C8"/>
  <outline>
    <contour>
      <point x="246" y="752" type="line"/>
      <point x="246" y="573" type="line"/>
      <point x="373" y="573" type="line"/>
      <point x="373" y="752" type="line"/>
    </contour>
    <contour>
      <point x="309" y="508" type="move" name="_top"/>
    </contour>
    <contour>
      <point x="309" y="749" type="move" name="top"/>
    </contour>
  </outline>
</glyph>
<glyph name="uni02CA" format="1">
  <advance width="640"/>
  <unicode hex="02CA"/>
  <note>
    acutecomb
  </note>
  <outline>
    <contour>
      <point x="268" y="573" type="line"/>
      <point x="396" y="573" type="line"/>
      <point x="538" y="713" type="line"/>
      <point x="389" y="750" type="line"/>
    </contour>
    <contour>
      <point x="332" y="508" type="move" name="_top"/>
    </contour>
    <contour>
      <point x="332" y="749" type="move" name="top"/>
    </contour>
  </outline>
</glyph>
<glyph name="uni02CB" format="1">
  <advance width="643"/>
  <unicode hex="02CB"/>
  <note>
    gravecomb
  </note>
  <outline>
    <contour>
      <point x="126" y="713" type="line"/>
      <point x="268" y="573" type="line"/>
      <point x="396" y="573" type="line"/>
      <point x="275" y="750" type="line"/>
    </contour>
    <contour>
      <point x="332" y="508" type="move" name="_top"/>
    </contour>
    <contour>
      <point x="332" y="749" type="move" name="top"/>
    </contour>
  </outline>
</glyph>
<glyph name="acutecomb" format="1">
  <advance width="640"/>
  <unicode hex="0301"/>
  <note>
    acutecomb
  </note>
  <outline>
    <contour>
      <point x="271" y="573" type="line"/>
      <point x="399" y="573" type="line"/>
      <point x="541" y="713" type="line"/>
      <point x="392" y="750" type="line"/>
    </contour>
    <contour>
      <point x="335" y="508" type="move" name="_top"/>
    </contour>
    <contour>
      <point x="335" y="749" type="move" name="top"/>
    </contour>
  </outline>
</glyph>
<glyph name="uni0302" format="1">
  <advance width="646"/>
  <unicode hex="0302"/>
  <note>
    uni0302
  </note>
  <outline>
    <contour>
      <point x="380" y="573" type="line"/>
      <point x="516" y="573" type="line"/>
      <point x="383" y="740" type="line"/>
      <point x="263" y="740" type="line"/>
      <point x="130" y="573" type="line"/>
      <point x="266" y="573" type="line"/>
      <point x="334" y="665" type="line"/>
      <point x="312" y="665" type="line"/>
    </contour>
    <contour>
      <point x="323" y="508" type="move" name="_top"/>
    </contour>
    <contour>
      <point x="323" y="749" type="move" name="top"/>
    </contour>
  </outline>
</glyph>
<glyph name="tildecomb" format="1">
  <advance width="636"/>
  <unicode hex="0303"/>
  <note>
    tildecomb
  </note>
  <outline>
    <contour>
      <point x="539" y="675" type="curve"/>
      <point x="484" y="722" type="line"/>
      <point x="472" y="690"/>
      <point x="448" y="675"/>
      <point x="424" y="675" type="curve"/>
      <point x="383" y="675"/>
      <point x="313" y="729"/>
      <point x="256" y="729" type="curve"/>
      <point x="195" y="729"/>
      <point x="149" y="693"/>
      <point x="131" y="622" type="curve"/>
      <point x="186" y="575" type="line"/>
      <point x="200" y="605"/>
      <point x="226" y="621"/>
      <point x="246" y="621" type="curve"/>
      <point x="288" y="621"/>
      <point x="357" y="567"/>
      <point x="414" y="567" type="curve"/>
      <point x="475" y="567"/>
      <point x="521" y="604"/>
    </contour>
    <contour>
      <point x="335" y="508" type="move" name="_top"/>
    </contour>
    <contour>
      <point x="335" y="749" type="move" name="top"/>
    </contour>
  </outline>
</glyph>
<glyph name="uni0306" format="1">
  <advance width="646"/>
  <unicode hex="0306"/>
  <note>
    uni0306
  </note>
  <outline>
    <contour>
      <point x="514" y="740" type="curve"/>
      <point x="420" y="752" type="line"/>
      <point x="411" y="694"/>
      <point x="383" y="665"/>
      <point x="335" y="665" type="curve"/>
      <point x="287" y="665"/>
      <point x="259" y="694"/>
      <point x="250" y="752" type="curve"/>
      <point x="156" y="740" type="line"/>
      <point x="163" y="634"/>
      <point x="232" y="568"/>
      <point x="335" y="568" type="curve"/>
      <point x="438" y="568"/>
      <point x="507" y="634"/>
    </contour>
    <contour>
      <point x="335" y="508" type="move" name="_top"/>
    </contour>
    <contour>
      <point x="335" y="749" type="move" name="top"/>
    </contour>
  </outline>
</glyph>
<glyph name="uni0308" format="1">
  <advance width="672"/>
  <unicode hex="0308"/>
  <note>
    uni0308
  </note>
  <outline>
    <contour>
      <point x="232" y="568" type="curve"/>
      <point x="284" y="568"/>
      <point x="314" y="608"/>
      <point x="314" y="646" type="curve"/>
      <point x="314" y="686"/>
      <point x="284" y="724"/>
      <point x="232" y="724" type="curve"/>
      <point x="177" y="724"/>
      <point x="148" y="686"/>
      <point x="148" y="646" type="curve"/>
      <point x="148" y="608"/>
      <point x="177" y="568"/>
    </contour>
    <contour>
      <point x="440" y="568" type="curve"/>
      <point x="492" y="568"/>
      <point x="522" y="608"/>
      <point x="522" y="646" type="curve"/>
      <point x="522" y="686"/>
      <point x="492" y="724"/>
      <point x="440" y="724" type="curve"/>
      <point x="385" y="724"/>
      <point x="356" y="686"/>
      <point x="356" y="646" type="curve"/>
      <point x="356" y="608"/>
      <point x="385" y="568"/>
    </contour>
    <contour>
      <point x="335" y="508" type="move" name="_top"/>
    </contour>
    <contour>
      <point x="335" y="721" type="move" name="top"/>
    </contour>
  </outline>
</glyph>
<glyph name="hookabovecomb" format="1">
  <advance width="632"/>
  <unicode hex="0309"/>
  <note>
    hookabovecomb
  </note>
  <outline>
    <contour>
      <point x="347" y="751" type="curve"/>
      <point x="290" y="751"/>
      <point x="239" y="729"/>
      <point x="207" y="690" type="curve"/>
      <point x="261" y="642" type="line"/>
      <point x="280" y="666"/>
      <point x="305" y="679"/>
      <point x="331" y="679" type="curve"/>
      <point x="344" y="679"/>
      <point x="353" y="675"/>
      <point x="353" y="666" type="curve"/>
      <point x="353" y="648"/>
      <point x="295" y="641"/>
      <point x="295" y="590" type="curve"/>
      <point x="295" y="573" type="line"/>
      <point x="375" y="573" type="line"/>
      <point x="375" y="611"/>
      <point x="466" y="605"/>
      <point x="466" y="677" type="curve"/>
      <point x="466" y="725"/>
      <point x="414" y="751"/>
    </contour>
    <contour>
      <point x="335" y="508" type="move" name="_top"/>
    </contour>
    <contour>
      <point x="335" y="749" type="move" name="top"/>
    </contour>
  </outline>
</glyph>
<glyph name="uni030A" format="1">
  <advance width="626"/>
  <unicode hex="030A"/>
  <note>
    uni030A
  </note>
  <outline>
    <contour>
      <point x="334" y="568" type="curve"/>
      <point x="403" y="568"/>
      <point x="455" y="618"/>
      <point x="455" y="683" type="curve"/>
      <point x="455" y="746"/>
      <point x="405" y="793"/>
      <point x="338" y="793" type="curve"/>
      <point x="269" y="793"/>
      <point x="215" y="743"/>
      <point x="215" y="679" type="curve"/>
      <point x="215" y="617"/>
      <point x="267" y="568"/>
    </contour>
    <contour>
      <point x="335" y="625" type="curve"/>
      <point x="303" y="625"/>
      <point x="280" y="647"/>
      <point x="280" y="679" type="curve"/>
      <point x="280" y="712"/>
      <point x="304" y="736"/>
      <point x="337" y="736" type="curve"/>
      <point x="367" y="736"/>
      <point x="390" y="714"/>
      <point x="390" y="683" type="curve"/>
      <point x="390" y="649"/>
      <point x="367" y="625"/>
    </contour>
    <contour>
      <point x="335" y="508" type="move" name="_top"/>
    </contour>
    <contour>
      <point x="335" y="710" type="move" name="top"/>
    </contour>
  </outline>
</glyph>
<glyph name="uni030C" format="1">
  <advance width="646"/>
  <unicode hex="030C"/>
  <note>
    uni030C
  </note>
  <outline>
    <contour>
      <point x="142" y="740" type="line"/>
      <point x="275" y="573" type="line"/>
      <point x="395" y="573" type="line"/>
      <point x="528" y="740" type="line"/>
      <point x="400" y="750" type="line"/>
      <point x="324" y="648" type="line"/>
      <point x="346" y="648" type="line"/>
      <point x="270" y="750" type="line"/>
    </contour>
    <contour>
      <point x="335" y="508" type="move" name="_top"/>
    </contour>
    <contour>
      <point x="335" y="749" type="move" name="top"/>
    </contour>
  </outline>
</glyph>
<glyph name="uni030F" format="1">
  <advance width="620"/>
  <unicode hex="030F"/>
  <outline>
    <contour>
      <point x="284" y="713" type="line"/>
      <point x="376" y="573" type="line"/>
      <point x="486" y="573" type="line"/>
      <point x="415" y="750" type="line"/>
    </contour>
    <contour>
      <point x="92" y="713" type="line"/>
      <point x="184" y="573" type="line"/>
      <point x="294" y="573" type="line"/>
      <point x="223" y="750" type="line"/>
    </contour>
    <contour>
      <point x="335" y="508" type="move" name="_top"/>
    </contour>
    <contour>
      <point x="335" y="749" type="move" name="top"/>
    </contour>
  </outline>
</glyph>
<glyph name="uni0311" format="1">
  <advance width="646"/>
  <unicode hex="0311"/>
  <outline>
    <contour>
      <point x="419" y="573" type="curve"/>
      <point x="514" y="573" type="line"/>
      <point x="509" y="684"/>
      <point x="438" y="750"/>
      <point x="335" y="750" type="curve"/>
      <point x="232" y="750"/>
      <point x="161" y="684"/>
      <point x="156" y="573" type="curve"/>
      <point x="251" y="573" type="line"/>
      <point x="261" y="624"/>
      <point x="287" y="653"/>
      <point x="335" y="653" type="curve"/>
      <point x="383" y="653"/>
      <point x="409" y="624"/>
    </contour>
    <contour>
      <point x="335" y="508" type="move" name="_top"/>
    </contour>
    <contour>
      <point x="335" y="749" type="move" name="top"/>
    </contour>
  </outline>
</glyph>
<glyph name="uni0312" format="1">
  <advance width="639"/>
  <unicode hex="0312"/>
  <note>
    uni02BB
  </note>
  <outline>
    <contour>
      <point x="412" y="750" type="curve"/>
      <point x="345" y="750" type="line"/>
      <point x="293" y="726"/>
      <point x="261" y="670"/>
      <point x="261" y="631" type="curve"/>
      <point x="261" y="591"/>
      <point x="289" y="568"/>
      <point x="335" y="568" type="curve"/>
      <point x="381" y="568"/>
      <point x="409" y="591"/>
      <point x="409" y="620" type="curve"/>
      <point x="409" y="641"/>
      <point x="391" y="654"/>
      <point x="391" y="685" type="curve"/>
      <point x="391" y="703"/>
      <point x="396" y="726"/>
    </contour>
    <contour>
      <point x="335" y="508" type="move" name="_top"/>
    </contour>
    <contour>
      <point x="335" y="721" type="move" name="top"/>
    </contour>
  </outline>
</glyph>
<glyph name="uni031B" format="1">
  <advance width="637"/>
  <unicode hex="031B"/>
  <outline>
    <contour>
      <point x="387" y="507" type="curve"/>
      <point x="362" y="507"/>
      <point x="340" y="512"/>
      <point x="323" y="514" type="curve"/>
      <point x="353" y="404" type="line"/>
      <point x="400" y="404" type="line" smooth="yes"/>
      <point x="515" y="404"/>
      <point x="593" y="488"/>
      <point x="588" y="609" type="curve"/>
      <point x="463" y="619" type="line"/>
      <point x="461" y="527"/>
      <point x="443" y="507"/>
    </contour>
    <contour>
      <point x="395" y="508" type="move" name="_topright"/>
    </contour>
  </outline>
</glyph>
<glyph name="dotbelowcomb" format="1">
  <advance width="650"/>
  <unicode hex="0323"/>
  <note>
    uni0323
  </note>
  <outline>
    <contour>
      <point x="325" y="-234" type="curve"/>
      <point x="384" y="-234"/>
      <point x="421" y="-195"/>
      <point x="421" y="-147" type="curve"/>
      <point x="421" y="-99"/>
      <point x="384" y="-60"/>
      <point x="325" y="-60" type="curve"/>
      <point x="266" y="-60"/>
      <point x="229" y="-99"/>
      <point x="229" y="-147" type="curve"/>
      <point x="229" y="-195"/>
      <point x="266" y="-234"/>
    </contour>
    <contour>
      <point x="325" y="0" type="move" name="_bottom"/>
    </contour>
    <contour>
      <point x="325" y="-220" type="move" name="bottom"/>
    </contour>
  </outline>
</glyph>
<glyph name="uni0324" format="1">
  <advance width="672"/>
  <unicode hex="0324"/>
  <outline>
    <contour>
      <point x="229" y="-221" type="curve"/>
      <point x="284" y="-221"/>
      <point x="315" y="-180"/>
      <point x="315" y="-141" type="curve"/>
      <point x="315" y="-100"/>
      <point x="284" y="-61"/>
      <point x="229" y="-61" type="curve"/>
      <point x="171" y="-61"/>
      <point x="141" y="-100"/>
      <point x="141" y="-141" type="curve"/>
      <point x="141" y="-180"/>
      <point x="171" y="-221"/>
    </contour>
    <contour>
      <point x="446" y="-221" type="curve"/>
      <point x="500" y="-221"/>
      <point x="531" y="-180"/>
      <point x="531" y="-141" type="curve"/>
      <point x="531" y="-100"/>
      <point x="500" y="-61"/>
      <point x="446" y="-61" type="curve"/>
      <point x="387" y="-61"/>
      <point x="357" y="-100"/>
      <point x="357" y="-141" type="curve"/>
      <point x="357" y="-180"/>
      <point x="387" y="-221"/>
    </contour>
    <contour>
      <point x="336" y="0" type="move" name="_bottom"/>
    </contour>
    <contour>
      <point x="336" y="-220" type="move" name="bottom"/>
    </contour>
  </outline>
</glyph>
<glyph name="uni0326" format="1">
  <advance width="639"/>
  <unicode hex="0326"/>
  <note>
    uni0326
  </note>
  <outline>
    <contour>
      <point x="240" y="-244" type="curve"/>
      <point x="307" y="-244" type="line"/>
      <point x="359" y="-218"/>
      <point x="391" y="-162"/>
      <point x="391" y="-123" type="curve"/>
      <point x="391" y="-83"/>
      <point x="363" y="-60"/>
      <point x="317" y="-60" type="curve"/>
      <point x="271" y="-60"/>
      <point x="243" y="-83"/>
      <point x="243" y="-112" type="curve"/>
      <point x="243" y="-133"/>
      <point x="261" y="-146"/>
      <point x="261" y="-177" type="curve"/>
      <point x="261" y="-195"/>
      <point x="256" y="-218"/>
    </contour>
    <contour>
      <point x="316" y="0" type="move" name="_bottom"/>
    </contour>
    <contour>
      <point x="316" y="-220" type="move" name="bottom"/>
    </contour>
  </outline>
</glyph>
<glyph name="uni0327" format="1">
  <advance width="618"/>
  <unicode hex="0327"/>
  <note>
    uni0327
  </note>
  <outline>
    <contour>
      <point x="281" y="-223" type="curve"/>
      <point x="381" y="-223"/>
      <point x="438" y="-184"/>
      <point x="438" y="-124" type="curve"/>
      <point x="438" y="-66"/>
      <point x="389" y="-30"/>
      <point x="298" y="-30" type="curve"/>
      <point x="328" y="-84" type="line"/>
      <point x="371" y="18" type="line"/>
      <point x="278" y="18" type="line"/>
      <point x="219" y="-103" type="line"/>
      <point x="281" y="-103" type="line" smooth="yes"/>
      <point x="311" y="-103"/>
      <point x="319" y="-111"/>
      <point x="319" y="-122" type="curve"/>
      <point x="319" y="-136"/>
      <point x="304" y="-144"/>
      <point x="280" y="-144" type="curve"/>
      <point x="251" y="-144"/>
      <point x="213" y="-137"/>
      <point x="188" y="-127" type="curve"/>
      <point x="157" y="-200" type="line"/>
      <point x="185" y="-213"/>
      <point x="240" y="-223"/>
    </contour>
    <contour>
      <point x="300" y="0" type="move" name="_bottom"/>
    </contour>
  </outline>
</glyph>
<glyph name="uni0328" format="1">
  <advance width="626"/>
  <unicode hex="0328"/>
  <note>
    uni0328
  </note>
  <outline>
    <contour>
      <point x="266" y="-223" type="curve"/>
      <point x="317" y="-223"/>
      <point x="363" y="-204"/>
      <point x="386" y="-173" type="curve"/>
      <point x="337" y="-103" type="line"/>
      <point x="322" y="-122"/>
      <point x="300" y="-134"/>
      <point x="282" y="-134" type="curve"/>
      <point x="254" y="-134"/>
      <point x="238" y="-120"/>
      <point x="238" y="-96" type="curve"/>
      <point x="238" y="-62"/>
      <point x="261" y="-32"/>
      <point x="330" y="0" type="curve"/>
      <point x="269" y="34" type="line"/>
      <point x="170" y="7"/>
      <point x="116" y="-46"/>
      <point x="116" y="-112" type="curve"/>
      <point x="116" y="-178"/>
      <point x="178" y="-223"/>
    </contour>
    <contour>
      <point x="330" y="0" type="move" name="_ogonek"/>
    </contour>
  </outline>
</glyph>
<glyph name="uni032E" format="1">
  <advance width="646"/>
  <unicode hex="032E"/>
  <outline>
    <contour>
      <point x="502" y="-60" type="curve"/>
      <point x="407" y="-60" type="line"/>
      <point x="397" y="-110"/>
      <point x="371" y="-137"/>
      <point x="323" y="-137" type="curve"/>
      <point x="275" y="-137"/>
      <point x="249" y="-110"/>
      <point x="239" y="-60" type="curve"/>
      <point x="144" y="-60" type="line"/>
      <point x="149" y="-168"/>
      <point x="220" y="-234"/>
      <point x="323" y="-234" type="curve"/>
      <point x="426" y="-234"/>
      <point x="497" y="-168"/>
    </contour>
    <contour>
      <point x="323" y="0" type="move" name="_bottom"/>
    </contour>
    <contour>
      <point x="323" y="-220" type="move" name="bottom"/>
    </contour>
  </outline>
</glyph>
<glyph name="uni0331" format="1">
  <advance width="624"/>
  <unicode hex="0331"/>
  <outline>
    <contour>
      <point x="482" y="-88" type="line"/>
      <point x="142" y="-88" type="line"/>
      <point x="142" y="-186" type="line"/>
      <point x="482" y="-186" type="line"/>
    </contour>
    <contour>
      <point x="312" y="0" type="move" name="_bottom"/>
    </contour>
    <contour>
      <point x="312" y="-220" type="move" name="bottom"/>
    </contour>
  </outline>
</glyph>
<glyph name="uni0336" format="1">
  <advance width="656"/>
  <unicode hex="0336"/>
  <outline>
    <contour>
      <point x="-99" y="460" type="line"/>
      <point x="-99" y="352" type="line"/>
      <point x="669" y="352" type="line"/>
      <point x="669" y="460" type="line"/>
    </contour>
    <contour>
      <point x="285" y="406" type="move" name="_center"/>
    </contour>
  </outline>
</glyph>
<glyph name="uni0337" format="1">
  <advance width="666"/>
  <unicode hex="0337"/>
  <outline>
    <contour>
      <point x="109" y="241" type="line"/>
      <point x="168" y="170" type="line"/>
      <point x="473" y="419" type="line"/>
      <point x="413" y="490" type="line"/>
    </contour>
    <contour>
      <point x="291" y="330" type="move" name="_center"/>
    </contour>
  </outline>
</glyph>
<glyph name="uni0338" format="1">
  <advance width="626"/>
  <unicode hex="0338"/>
  <outline>
    <contour>
      <point x="81" y="14" type="line"/>
      <point x="168" y="-43" type="line"/>
      <point x="214" y="25" type="line"/>
      <point x="251" y="95" type="line"/>
      <point x="423" y="348" type="line"/>
      <point x="487" y="426" type="line"/>
      <point x="533" y="494" type="line"/>
      <point x="446" y="551" type="line"/>
      <point x="400" y="483" type="line"/>
      <point x="363" y="413" type="line"/>
      <point x="191" y="160" type="line"/>
      <point x="127" y="82" type="line"/>
    </contour>
    <contour>
      <point x="307" y="254" type="move" name="center"/>
    </contour>
  </outline>
</glyph>
<glyph name="uni0394" format="1">
  <advance width="600"/>
  <unicode hex="0394"/>
  <outline>
    <contour>
      <point x="241" y="710" type="line"/>
      <point x="14" y="0" type="line"/>
      <point x="163" y="0" type="line"/>
      <point x="333" y="599" type="line"/>
      <point x="277" y="601" type="line"/>
      <point x="439" y="0" type="line"/>
      <point x="586" y="0" type="line"/>
      <point x="372" y="710" type="line"/>
    </contour>
    <contour>
      <point x="157" y="130" type="line"/>
      <point x="124" y="0" type="line"/>
      <point x="478" y="0" type="line"/>
      <point x="447" y="130" type="line"/>
    </contour>
  </outline>
</glyph>
<glyph name="uni03A9" format="1">
  <advance width="814"/>
  <unicode hex="03A9"/>
  <outline>
    <contour>
      <point x="423" y="720" type="curve"/>
      <point x="216" y="720"/>
      <point x="59" y="567"/>
      <point x="59" y="362" type="curve"/>
      <point x="59" y="250"/>
      <point x="111" y="151"/>
      <point x="220" y="88" type="curve"/>
      <point x="214" y="123" type="line"/>
      <point x="34" y="123" type="line"/>
      <point x="34" y="0" type="line"/>
      <point x="358" y="0" type="line"/>
      <point x="358" y="96" type="line"/>
      <point x="267" y="158"/>
      <point x="218" y="238"/>
      <point x="218" y="355" type="curve"/>
      <point x="218" y="487"/>
      <point x="304" y="582"/>
      <point x="417" y="582" type="curve"/>
      <point x="521" y="582"/>
      <point x="596" y="498"/>
      <point x="596" y="376" type="curve"/>
      <point x="596" y="249"/>
      <point x="551" y="168"/>
      <point x="457" y="96" type="curve"/>
      <point x="457" y="0" type="line"/>
      <point x="780" y="0" type="line"/>
      <point x="780" y="123" type="line"/>
      <point x="589" y="123" type="line"/>
      <point x="581" y="84" type="line"/>
      <point x="709" y="169"/>
      <point x="755" y="264"/>
      <point x="755" y="388" type="curve"/>
      <point x="755" y="583"/>
      <point x="615" y="720"/>
    </contour>
  </outline>
</glyph>
<glyph name="pi" format="1">
  <advance width="675"/>
  <unicode hex="03C0"/>
  <outline>
    <contour>
      <point x="62" y="-1" type="curve"/>
      <point x="215" y="0" type="line"/>
      <point x="254" y="146"/>
      <point x="269" y="274"/>
      <point x="269" y="452" type="curve"/>
      <point x="126" y="452" type="line"/>
      <point x="126" y="287"/>
      <point x="108" y="157"/>
    </contour>
    <contour>
      <point x="11" y="507" type="line"/>
      <point x="11" y="386" type="line"/>
      <point x="627" y="386" type="line"/>
      <point x="627" y="507" type="line"/>
    </contour>
    <contour>
      <point x="552" y="-10" type="curve"/>
      <point x="611" y="-10"/>
      <point x="661" y="4"/>
      <point x="690" y="29" type="curve"/>
      <point x="648" y="138" type="line"/>
      <point x="625" y="122"/>
      <point x="605" y="116"/>
      <point x="578" y="116" type="curve"/>
      <point x="535" y="116"/>
      <point x="513" y="141"/>
      <point x="513" y="190" type="curve"/>
      <point x="513" y="452" type="line"/>
      <point x="369" y="452" type="line"/>
      <point x="369" y="174" type="line" smooth="yes"/>
      <point x="369" y="60"/>
      <point x="439" y="-10"/>
    </contour>
  </outline>
</glyph>
<glyph name="uni1E9E" format="1">
  <advance width="746"/>
  <unicode hex="1E9E"/>
  <outline>
    <contour>
      <point x="413" y="720" type="curve"/>
      <point x="188" y="720"/>
      <point x="68" y="606"/>
      <point x="68" y="392" type="curve"/>
      <point x="68" y="0" type="line"/>
      <point x="224" y="0" type="line"/>
      <point x="224" y="399" type="line" smooth="yes"/>
      <point x="224" y="528"/>
      <point x="285" y="589"/>
      <point x="412" y="589" type="curve"/>
      <point x="489" y="589"/>
      <point x="540" y="558"/>
      <point x="540" y="503" type="curve"/>
      <point x="540" y="448"/>
      <point x="502" y="423"/>
      <point x="424" y="423" type="curve"/>
      <point x="373" y="423" type="line"/>
      <point x="373" y="294" type="line"/>
      <point x="443" y="294" type="line" smooth="yes"/>
      <point x="525" y="294"/>
      <point x="566" y="264"/>
      <point x="566" y="203" type="curve"/>
      <point x="566" y="153"/>
      <point x="536" y="123"/>
      <point x="486" y="123" type="curve"/>
      <point x="433" y="123"/>
      <point x="397" y="157"/>
      <point x="390" y="214" type="curve"/>
      <point x="257" y="179" type="line"/>
      <point x="277" y="60"/>
      <point x="359" y="-10"/>
      <point x="489" y="-10" type="curve"/>
      <point x="631" y="-10"/>
      <point x="721" y="68"/>
      <point x="721" y="188" type="curve"/>
      <point x="721" y="282"/>
      <point x="663" y="351"/>
      <point x="561" y="376" type="curve"/>
      <point x="559" y="356" type="line"/>
      <point x="647" y="377"/>
      <point x="695" y="430"/>
      <point x="695" y="515" type="curve"/>
      <point x="695" y="641"/>
      <point x="586" y="720"/>
    </contour>
  </outline>
</glyph>
<glyph name="quoteleft" format="1">
  <advance width="276"/>
  <unicode hex="2018"/>
  <outline>
    <contour>
      <point x="236" y="750" type="curve"/>
      <point x="162" y="750" type="line"/>
      <point x="93" y="681"/>
      <point x="40" y="573"/>
      <point x="40" y="503" type="curve"/>
      <point x="40" y="436"/>
      <point x="76" y="397"/>
      <point x="137" y="397" type="curve"/>
      <point x="195" y="397"/>
      <point x="234" y="435"/>
      <point x="234" y="481" type="curve"/>
      <point x="234" y="537"/>
      <point x="202" y="562"/>
      <point x="202" y="622" type="curve"/>
      <point x="202" y="657"/>
      <point x="214" y="699"/>
    </contour>
  </outline>
</glyph>
<glyph name="quoteright" format="1">
  <advance width="276"/>
  <unicode hex="2019"/>
  <outline>
    <contour>
      <point x="40" y="397" type="curve"/>
      <point x="114" y="397" type="line"/>
      <point x="183" y="466"/>
      <point x="236" y="574"/>
      <point x="236" y="644" type="curve"/>
      <point x="236" y="711"/>
      <point x="200" y="750"/>
      <point x="139" y="750" type="curve"/>
      <point x="81" y="750"/>
      <point x="42" y="712"/>
      <point x="42" y="666" type="curve"/>
      <point x="42" y="610"/>
      <point x="74" y="585"/>
      <point x="74" y="525" type="curve"/>
      <point x="74" y="490"/>
      <point x="62" y="448"/>
    </contour>
  </outline>
</glyph>
<glyph name="dagger" format="1">
  <advance width="426"/>
  <unicode hex="2020"/>
  <outline>
    <contour>
      <point x="276" y="600" type="line"/>
      <point x="276" y="740" type="line"/>
      <point x="150" y="740" type="line"/>
      <point x="150" y="600" type="line"/>
      <point x="20" y="600" type="line"/>
      <point x="20" y="490" type="line"/>
      <point x="150" y="490" type="line"/>
      <point x="150" y="190" type="line"/>
      <point x="276" y="190" type="line"/>
      <point x="276" y="490" type="line"/>
      <point x="406" y="490" type="line"/>
      <point x="406" y="600" type="line"/>
    </contour>
  </outline>
</glyph>
<glyph name="daggerdbl" format="1">
  <advance width="426"/>
  <unicode hex="2021"/>
  <outline>
    <contour>
      <point x="276" y="490" type="line"/>
      <point x="406" y="490" type="line"/>
      <point x="406" y="600" type="line"/>
      <point x="276" y="600" type="line"/>
      <point x="276" y="740" type="line"/>
      <point x="150" y="740" type="line"/>
      <point x="150" y="600" type="line"/>
      <point x="20" y="600" type="line"/>
      <point x="20" y="490" type="line"/>
      <point x="150" y="490" type="line"/>
      <point x="150" y="340" type="line"/>
      <point x="20" y="340" type="line"/>
      <point x="20" y="230" type="line"/>
      <point x="150" y="230" type="line"/>
      <point x="150" y="90" type="line"/>
      <point x="276" y="90" type="line"/>
      <point x="276" y="230" type="line"/>
      <point x="406" y="230" type="line"/>
      <point x="406" y="340" type="line"/>
      <point x="276" y="340" type="line"/>
    </contour>
  </outline>
</glyph>
<glyph name="bullet" format="1">
  <advance width="441"/>
  <unicode hex="2022"/>
  <outline>
    <contour>
      <point x="220" y="96" type="curve"/>
      <point x="316" y="96"/>
      <point x="391" y="169"/>
      <point x="391" y="267" type="curve"/>
      <point x="391" y="365"/>
      <point x="316" y="438"/>
      <point x="220" y="438" type="curve"/>
      <point x="124" y="438"/>
      <point x="50" y="365"/>
      <point x="50" y="267" type="curve"/>
      <point x="50" y="169"/>
      <point x="124" y="96"/>
    </contour>
  </outline>
</glyph>
<glyph name="perthousand" format="1">
  <advance width="1224"/>
  <unicode hex="2030"/>
  <outline>
    <contour>
      <point x="1002" y="-8" type="curve"/>
      <point x="1110" y="-8"/>
      <point x="1189" y="66"/>
      <point x="1189" y="167" type="curve"/>
      <point x="1189" y="264"/>
      <point x="1122" y="327"/>
      <point x="1017" y="327" type="curve"/>
      <point x="907" y="327"/>
      <point x="829" y="254"/>
      <point x="829" y="152" type="curve"/>
      <point x="829" y="55"/>
      <point x="897" y="-8"/>
    </contour>
    <contour>
      <point x="1006" y="82" type="curve"/>
      <point x="960" y="82"/>
      <point x="932" y="108"/>
      <point x="932" y="153" type="curve"/>
      <point x="932" y="203"/>
      <point x="964" y="237"/>
      <point x="1013" y="237" type="curve"/>
      <point x="1058" y="237"/>
      <point x="1086" y="211"/>
      <point x="1086" y="167" type="curve"/>
      <point x="1086" y="116"/>
      <point x="1054" y="82"/>
    </contour>
    <component base="percent"/>
  </outline>
</glyph>
<glyph name="guilsinglleft" format="1">
  <advance width="317"/>
  <unicode hex="2039"/>
  <outline>
    <contour>
      <point x="33" y="224" type="line"/>
      <point x="147" y="70" type="line"/>
      <point x="303" y="70" type="line"/>
      <point x="139" y="291" type="line"/>
      <point x="139" y="216" type="line"/>
      <point x="303" y="436" type="line"/>
      <point x="147" y="436" type="line"/>
      <point x="33" y="282" type="line"/>
    </contour>
  </outline>
</glyph>
<glyph name="guilsinglright" format="1">
  <advance width="317"/>
  <unicode hex="203A"/>
  <outline>
    <contour>
      <point x="14" y="70" type="line"/>
      <point x="170" y="70" type="line"/>
      <point x="284" y="224" type="line"/>
      <point x="284" y="282" type="line"/>
      <point x="170" y="436" type="line"/>
      <point x="14" y="436" type="line"/>
      <point x="178" y="216" type="line"/>
      <point x="178" y="291" type="line"/>
    </contour>
  </outline>
</glyph>
<glyph name="colonmonetary" format="1">
  <advance width="600"/>
  <unicode hex="20A1"/>
  <outline>
    <contour>
      <point x="344" y="-10" type="curve"/>
      <point x="433" y="-10"/>
      <point x="526" y="35"/>
      <point x="576" y="139" type="curve"/>
      <point x="463" y="211" type="line"/>
      <point x="436" y="153"/>
      <point x="391" y="121"/>
      <point x="348" y="121" type="curve"/>
      <point x="263" y="121"/>
      <point x="207" y="180"/>
      <point x="207" y="344" type="curve"/>
      <point x="207" y="513"/>
      <point x="272" y="589"/>
      <point x="356" y="589" type="curve"/>
      <point x="397" y="589"/>
      <point x="439" y="562"/>
      <point x="462" y="509" type="curve"/>
      <point x="578" y="576" type="line"/>
      <point x="526" y="681"/>
      <point x="450" y="720"/>
      <point x="355" y="720" type="curve"/>
      <point x="188" y="720"/>
      <point x="55" y="586"/>
      <point x="55" y="341" type="curve"/>
      <point x="55" y="103"/>
      <point x="172" y="-10"/>
    </contour>
    <contour>
      <point x="178" y="65" type="line"/>
      <point x="159" y="-120" type="line"/>
      <point x="260" y="-120" type="line"/>
      <point x="279" y="65" type="line"/>
    </contour>
    <contour>
      <point x="337" y="43" type="line"/>
      <point x="320" y="-120" type="line"/>
      <point x="421" y="-120" type="line"/>
      <point x="438" y="43" type="line"/>
    </contour>
    <contour>
      <point x="259" y="830" type="line"/>
      <point x="241" y="661" type="line"/>
      <point x="342" y="661" type="line"/>
      <point x="360" y="830" type="line"/>
    </contour>
    <contour>
      <point x="420" y="830" type="line"/>
      <point x="399" y="628" type="line"/>
      <point x="500" y="628" type="line"/>
      <point x="521" y="830" type="line"/>
    </contour>
  </outline>
</glyph>
<glyph name="franc" format="1">
  <advance width="600"/>
  <unicode hex="20A3"/>
  <outline>
    <contour>
      <point x="248" y="576" type="line"/>
      <point x="552" y="576" type="line"/>
      <point x="552" y="710" type="line"/>
      <point x="95" y="710" type="line"/>
      <point x="95" y="0" type="line"/>
      <point x="248" y="0" type="line"/>
      <point x="248" y="281" type="line"/>
      <point x="532" y="281" type="line"/>
      <point x="532" y="415" type="line"/>
      <point x="248" y="415" type="line"/>
    </contour>
    <contour>
      <point x="30" y="195" type="line"/>
      <point x="30" y="94" type="line"/>
      <point x="400" y="94" type="line"/>
      <point x="400" y="195" type="line"/>
    </contour>
  </outline>
</glyph>
<glyph name="uni20A6" format="1">
  <advance width="600"/>
  <unicode hex="20A6"/>
  <outline>
    <contour>
      <point x="515" y="710" type="line"/>
      <point x="385" y="710" type="line"/>
      <point x="385" y="141" type="line"/>
      <point x="423" y="195" type="line"/>
      <point x="223" y="710" type="line"/>
      <point x="85" y="710" type="line"/>
      <point x="85" y="0" type="line"/>
      <point x="215" y="0" type="line"/>
      <point x="215" y="569" type="line"/>
      <point x="177" y="515" type="line"/>
      <point x="377" y="0" type="line"/>
      <point x="515" y="0" type="line"/>
    </contour>
    <contour>
      <point x="585" y="406" type="line"/>
      <point x="505" y="406" type="line"/>
      <point x="505" y="305" type="line"/>
      <point x="585" y="305" type="line"/>
    </contour>
    <contour>
      <point x="15" y="305" type="line"/>
      <point x="95" y="305" type="line"/>
      <point x="95" y="406" type="line"/>
      <point x="15" y="406" type="line"/>
    </contour>
  </outline>
</glyph>
<glyph name="peseta" format="1">
  <advance width="600"/>
  <unicode hex="20A7"/>
  <outline>
    <contour>
      <point x="85" y="0" type="line"/>
      <point x="237" y="0" type="line"/>
      <point x="237" y="583" type="line"/>
      <point x="272" y="583" type="line" smooth="yes"/>
      <point x="328" y="583"/>
      <point x="373" y="558"/>
      <point x="373" y="483" type="curve"/>
      <point x="373" y="410"/>
      <point x="323" y="380"/>
      <point x="259" y="380" type="curve"/>
      <point x="205" y="380" type="line"/>
      <point x="205" y="252" type="line"/>
      <point x="251" y="252" type="line" smooth="yes"/>
      <point x="413" y="252"/>
      <point x="528" y="340"/>
      <point x="528" y="486" type="curve"/>
      <point x="528" y="632"/>
      <point x="428" y="710"/>
      <point x="275" y="710" type="curve"/>
      <point x="85" y="710" type="line"/>
    </contour>
    <contour>
      <point x="585" y="536" type="line"/>
      <point x="505" y="536" type="line"/>
      <point x="505" y="435" type="line"/>
      <point x="585" y="435" type="line"/>
    </contour>
    <contour>
      <point x="15" y="435" type="line"/>
      <point x="95" y="435" type="line"/>
      <point x="95" y="536" type="line"/>
      <point x="15" y="536" type="line"/>
    </contour>
  </outline>
</glyph>
<glyph name="uni20A9" format="1">
  <advance width="600"/>
  <unicode hex="20A9"/>
  <outline>
    <contour>
      <point x="575" y="710" type="line"/>
      <point x="464" y="710" type="line"/>
      <point x="378" y="74" type="line"/>
      <point x="445" y="74" type="line"/>
      <point x="364" y="710" type="line"/>
      <point x="241" y="710" type="line"/>
      <point x="155" y="74" type="line"/>
      <point x="223" y="74" type="line"/>
      <point x="141" y="710" type="line"/>
      <point x="25" y="710" type="line"/>
      <point x="126" y="0" type="line"/>
      <point x="243" y="0" type="line"/>
      <point x="323" y="557" type="line"/>
      <point x="278" y="557" type="line"/>
      <point x="356" y="0" type="line"/>
      <point x="473" y="0" type="line"/>
    </contour>
    <contour>
      <point x="10" y="325" type="line"/>
      <point x="10" y="224" type="line"/>
      <point x="116" y="224" type="line"/>
      <point x="102" y="325" type="line"/>
    </contour>
    <contour>
      <point x="10" y="488" type="line"/>
      <point x="10" y="387" type="line"/>
      <point x="96" y="387" type="line"/>
      <point x="80" y="488" type="line"/>
    </contour>
    <contour>
      <point x="498" y="325" type="line"/>
      <point x="481" y="224" type="line"/>
      <point x="590" y="224" type="line"/>
      <point x="590" y="325" type="line"/>
    </contour>
    <contour>
      <point x="514" y="488" type="line"/>
      <point x="498" y="387" type="line"/>
      <point x="590" y="387" type="line"/>
      <point x="590" y="488" type="line"/>
    </contour>
  </outline>
</glyph>
<glyph name="dong" format="1">
  <advance width="600"/>
  <unicode hex="20AB"/>
  <outline>
    <contour>
      <point x="530" y="0" type="line"/>
      <point x="530" y="740" type="line"/>
      <point x="384" y="740" type="line"/>
      <point x="384" y="528" type="line"/>
      <point x="388" y="438" type="line"/>
      <point x="408" y="435" type="line"/>
      <point x="385" y="486"/>
      <point x="347" y="516"/>
      <point x="286" y="516" type="curve"/>
      <point x="154" y="516"/>
      <point x="50" y="406"/>
      <point x="50" y="232" type="curve"/>
      <point x="50" y="88"/>
      <point x="119" y="-10"/>
      <point x="242" y="-10" type="curve"/>
      <point x="335" y="-10"/>
      <point x="386" y="49"/>
      <point x="411" y="155" type="curve"/>
      <point x="396" y="179" type="line"/>
      <point x="386" y="0" type="line"/>
    </contour>
    <contour>
      <point x="301" y="389" type="curve"/>
      <point x="352" y="389"/>
      <point x="384" y="346"/>
      <point x="384" y="276" type="curve"/>
      <point x="384" y="182"/>
      <point x="337" y="117"/>
      <point x="278" y="117" type="curve"/>
      <point x="229" y="117"/>
      <point x="200" y="157"/>
      <point x="200" y="237" type="curve"/>
      <point x="200" y="330"/>
      <point x="239" y="389"/>
    </contour>
    <contour>
      <point x="231" y="678" type="line"/>
      <point x="231" y="577" type="line"/>
      <point x="595" y="577" type="line"/>
      <point x="595" y="678" type="line"/>
    </contour>
    <contour>
      <point x="70" y="-60" type="line"/>
      <point x="70" y="-161" type="line"/>
      <point x="530" y="-161" type="line"/>
      <point x="530" y="-60" type="line"/>
    </contour>
  </outline>
</glyph>
<glyph name="Euro" format="1">
  <advance width="600"/>
  <unicode hex="20AC"/>
  <outline>
    <contour>
      <point x="576" y="139" type="curve"/>
      <point x="463" y="211" type="line"/>
      <point x="438" y="153"/>
      <point x="397" y="121"/>
      <point x="357" y="121" type="curve"/>
      <point x="279" y="121"/>
      <point x="227" y="180"/>
      <point x="227" y="344" type="curve"/>
      <point x="227" y="512"/>
      <point x="287" y="589"/>
      <point x="364" y="589" type="curve"/>
      <point x="402" y="589"/>
      <point x="441" y="562"/>
      <point x="462" y="509" type="curve"/>
      <point x="578" y="576" type="line"/>
      <point x="528" y="681"/>
      <point x="455" y="720"/>
      <point x="364" y="720" type="curve"/>
      <point x="203" y="720"/>
      <point x="75" y="586"/>
      <point x="75" y="341" type="curve"/>
      <point x="75" y="103"/>
      <point x="188" y="-10"/>
      <point x="353" y="-10" type="curve"/>
      <point x="439" y="-10"/>
      <point x="528" y="35"/>
    </contour>
    <contour>
      <point x="10" y="488" type="line"/>
      <point x="10" y="387" type="line"/>
      <point x="372" y="387" type="line"/>
      <point x="372" y="488" type="line"/>
    </contour>
    <contour>
      <point x="10" y="325" type="line"/>
      <point x="10" y="224" type="line"/>
      <point x="372" y="224" type="line"/>
      <point x="372" y="325" type="line"/>
    </contour>
  </outline>
</glyph>
<glyph name="uni20AD" format="1">
  <advance width="600"/>
  <unicode hex="20AD"/>
  <outline>
    <contour>
      <point x="210" y="355" type="line"/>
      <point x="433" y="0" type="line"/>
      <point x="598" y="0" type="line"/>
      <point x="379" y="355" type="line"/>
      <point x="598" y="710" type="line"/>
      <point x="433" y="710" type="line"/>
    </contour>
    <contour>
      <point x="95" y="710" type="line"/>
      <point x="95" y="0" type="line"/>
      <point x="251" y="0" type="line"/>
      <point x="251" y="710" type="line"/>
    </contour>
    <contour>
      <point x="30" y="406" type="line"/>
      <point x="30" y="305" type="line"/>
      <point x="555" y="305" type="line"/>
      <point x="555" y="406" type="line"/>
    </contour>
  </outline>
</glyph>
<glyph name="uni20B1" format="1">
  <advance width="600"/>
  <unicode hex="20B1"/>
  <outline>
    <contour>
      <point x="85" y="0" type="line"/>
      <point x="237" y="0" type="line"/>
      <point x="237" y="583" type="line"/>
      <point x="272" y="583" type="line" smooth="yes"/>
      <point x="328" y="583"/>
      <point x="373" y="558"/>
      <point x="373" y="483" type="curve"/>
      <point x="373" y="410"/>
      <point x="323" y="380"/>
      <point x="259" y="380" type="curve"/>
      <point x="205" y="380" type="line"/>
      <point x="205" y="252" type="line"/>
      <point x="251" y="252" type="line" smooth="yes"/>
      <point x="413" y="252"/>
      <point x="528" y="340"/>
      <point x="528" y="486" type="curve"/>
      <point x="528" y="632"/>
      <point x="428" y="710"/>
      <point x="275" y="710" type="curve"/>
      <point x="85" y="710" type="line"/>
    </contour>
    <contour>
      <point x="585" y="617" type="line"/>
      <point x="455" y="617" type="line"/>
      <point x="505" y="516" type="line"/>
      <point x="585" y="516" type="line"/>
    </contour>
    <contour>
      <point x="15" y="516" type="line"/>
      <point x="95" y="516" type="line"/>
      <point x="95" y="617" type="line"/>
      <point x="15" y="617" type="line"/>
    </contour>
    <contour>
      <point x="585" y="454" type="line"/>
      <point x="505" y="454" type="line"/>
      <point x="465" y="353" type="line"/>
      <point x="585" y="353" type="line"/>
    </contour>
    <contour>
      <point x="15" y="353" type="line"/>
      <point x="95" y="353" type="line"/>
      <point x="95" y="454" type="line"/>
      <point x="15" y="454" type="line"/>
    </contour>
  </outline>
</glyph>
<glyph name="uni20B2" format="1">
  <advance width="600"/>
  <unicode hex="20B2"/>
  <outline>
    <contour>
      <point x="327" y="-10" type="curve"/>
      <point x="388" y="-10"/>
      <point x="431" y="22"/>
      <point x="462" y="83" type="curve"/>
      <point x="447" y="95" type="line"/>
      <point x="463" y="0" type="line"/>
      <point x="571" y="0" type="line"/>
      <point x="571" y="382" type="line"/>
      <point x="314" y="382" type="line"/>
      <point x="314" y="259" type="line"/>
      <point x="456" y="259" type="line"/>
      <point x="426" y="293" type="line"/>
      <point x="426" y="214" type="line" smooth="yes"/>
      <point x="426" y="160"/>
      <point x="391" y="121"/>
      <point x="327" y="121" type="curve"/>
      <point x="240" y="121"/>
      <point x="197" y="195"/>
      <point x="197" y="344" type="curve"/>
      <point x="197" y="497"/>
      <point x="249" y="589"/>
      <point x="334" y="589" type="curve"/>
      <point x="375" y="589"/>
      <point x="412" y="559"/>
      <point x="432" y="509" type="curve"/>
      <point x="548" y="576" type="line"/>
      <point x="502" y="674"/>
      <point x="433" y="720"/>
      <point x="334" y="720" type="curve"/>
      <point x="160" y="720"/>
      <point x="45" y="569"/>
      <point x="45" y="341" type="curve"/>
      <point x="45" y="117"/>
      <point x="147" y="-10"/>
    </contour>
    <contour>
      <point x="266" y="50" type="line"/>
      <point x="266" y="-120" type="line"/>
      <point x="367" y="-120" type="line"/>
      <point x="367" y="50" type="line"/>
    </contour>
    <contour>
      <point x="266" y="830" type="line"/>
      <point x="266" y="660" type="line"/>
      <point x="367" y="660" type="line"/>
      <point x="367" y="830" type="line"/>
    </contour>
  </outline>
</glyph>
<glyph name="uni20B9" format="1">
  <advance width="600"/>
  <unicode hex="20B9"/>
  <outline>
    <contour>
      <point x="576" y="27" type="curve"/>
      <point x="540" y="147" type="line"/>
      <point x="519" y="133"/>
      <point x="497" y="128"/>
      <point x="472" y="128" type="curve"/>
      <point x="435" y="128"/>
      <point x="413" y="141"/>
      <point x="387" y="178" type="curve"/>
      <point x="354" y="226" type="line" smooth="yes"/>
      <point x="321" y="273"/>
      <point x="282" y="291"/>
      <point x="240" y="291" type="curve"/>
      <point x="196" y="273" type="line"/>
      <point x="223" y="273" type="line" smooth="yes"/>
      <point x="364" y="273"/>
      <point x="475" y="348"/>
      <point x="475" y="487" type="curve"/>
      <point x="475" y="618"/>
      <point x="378" y="697"/>
      <point x="187" y="697" type="curve"/>
      <point x="127" y="697" type="line"/>
      <point x="127" y="610" type="line"/>
      <point x="177" y="610" type="line" smooth="yes"/>
      <point x="268" y="610"/>
      <point x="320" y="578"/>
      <point x="320" y="501" type="curve"/>
      <point x="320" y="423"/>
      <point x="277" y="391"/>
      <point x="173" y="391" type="curve"/>
      <point x="75" y="391" type="line"/>
      <point x="75" y="270" type="line"/>
      <point x="102" y="270" type="line" smooth="yes"/>
      <point x="130" y="270"/>
      <point x="156" y="261"/>
      <point x="179" y="225" type="curve"/>
      <point x="263" y="94" type="line" smooth="yes"/>
      <point x="306" y="27"/>
      <point x="370" y="-9"/>
      <point x="453" y="-9" type="curve"/>
      <point x="500" y="-9"/>
      <point x="548" y="5"/>
    </contour>
    <contour>
      <point x="14" y="610" type="line"/>
      <point x="584" y="610" type="line"/>
      <point x="584" y="711" type="line"/>
      <point x="14" y="711" type="line"/>
    </contour>
    <contour>
      <point x="14" y="447" type="line"/>
      <point x="584" y="447" type="line"/>
      <point x="584" y="548" type="line"/>
      <point x="14" y="548" type="line"/>
    </contour>
  </outline>
</glyph>
<glyph name="uni20BA" format="1">
  <advance width="600"/>
  <unicode hex="20BA"/>
  <outline>
    <contour>
      <point x="115" y="710" type="line"/>
      <point x="115" y="0" type="line"/>
      <point x="337" y="0"/>
      <point x="503" y="59"/>
      <point x="585" y="167" type="curve"/>
      <point x="502" y="261" type="line"/>
      <point x="444" y="196"/>
      <point x="352" y="153"/>
      <point x="271" y="153" type="curve"/>
      <point x="271" y="710" type="line"/>
    </contour>
    <contour>
      <point x="30" y="325" type="line"/>
      <point x="30" y="222" type="line"/>
      <point x="422" y="423" type="line"/>
      <point x="422" y="526" type="line"/>
    </contour>
    <contour>
      <point x="30" y="488" type="line"/>
      <point x="30" y="385" type="line"/>
      <point x="422" y="586" type="line"/>
      <point x="422" y="689" type="line"/>
    </contour>
  </outline>
</glyph>
<glyph name="uni20BC" format="1">
  <advance width="600"/>
  <unicode hex="20BC"/>
  <outline>
    <contour>
      <point x="300" y="720" type="curve"/>
      <point x="142" y="722"/>
      <point x="38" y="607"/>
      <point x="38" y="433" type="curve"/>
      <point x="38" y="0" type="line"/>
      <point x="192" y="0" type="line"/>
      <point x="192" y="432" type="line" smooth="yes"/>
      <point x="192" y="534"/>
      <point x="239" y="584"/>
      <point x="300" y="584" type="curve"/>
      <point x="361" y="584"/>
      <point x="408" y="545"/>
      <point x="408" y="432" type="curve"/>
      <point x="408" y="0" type="line"/>
      <point x="562" y="0" type="line"/>
      <point x="562" y="433" type="line" smooth="yes"/>
      <point x="562" y="617"/>
      <point x="458" y="718"/>
    </contour>
    <contour>
      <point x="351" y="0" type="line"/>
      <point x="351" y="830" type="line"/>
      <point x="250" y="830" type="line"/>
      <point x="250" y="0" type="line"/>
    </contour>
  </outline>
</glyph>
<glyph name="uni20BD" format="1">
  <advance width="600"/>
  <unicode hex="20BD"/>
  <outline>
    <contour>
      <point x="85" y="0" type="line"/>
      <point x="237" y="0" type="line"/>
      <point x="237" y="583" type="line"/>
      <point x="292" y="583" type="line" smooth="yes"/>
      <point x="384" y="583"/>
      <point x="429" y="558"/>
      <point x="429" y="483" type="curve"/>
      <point x="429" y="410"/>
      <point x="379" y="380"/>
      <point x="259" y="380" type="curve"/>
      <point x="15" y="380" type="line"/>
      <point x="15" y="279" type="line"/>
      <point x="271" y="279" type="line" smooth="yes"/>
      <point x="469" y="279"/>
      <point x="584" y="362"/>
      <point x="584" y="499" type="curve"/>
      <point x="584" y="637"/>
      <point x="484" y="710"/>
      <point x="295" y="710" type="curve"/>
      <point x="85" y="710" type="line"/>
    </contour>
    <contour>
      <point x="15" y="116" type="line"/>
      <point x="465" y="116" type="line"/>
      <point x="465" y="217" type="line"/>
      <point x="15" y="217" type="line"/>
    </contour>
  </outline>
</glyph>
<glyph name="uni2113" format="1">
  <advance width="600"/>
  <unicode hex="2113"/>
  <outline>
    <contour>
      <point x="53" y="171" type="curve"/>
      <point x="90" y="110" type="line"/>
      <point x="385" y="309"/>
      <point x="528" y="475"/>
      <point x="528" y="603" type="curve"/>
      <point x="528" y="674"/>
      <point x="485" y="718"/>
      <point x="416" y="718" type="curve"/>
      <point x="272" y="718"/>
      <point x="162" y="497"/>
      <point x="162" y="209" type="curve"/>
      <point x="162" y="72"/>
      <point x="226" y="-15"/>
      <point x="326" y="-15" type="curve"/>
      <point x="392" y="-15"/>
      <point x="437" y="12"/>
      <point x="478" y="76" type="curve"/>
      <point x="443" y="117" type="line"/>
      <point x="423" y="90"/>
      <point x="393" y="73"/>
      <point x="365" y="73" type="curve"/>
      <point x="319" y="73"/>
      <point x="297" y="119"/>
      <point x="297" y="214" type="curve"/>
      <point x="297" y="421"/>
      <point x="347" y="636"/>
      <point x="398" y="636" type="curve"/>
      <point x="415" y="636"/>
      <point x="423" y="619"/>
      <point x="423" y="576" type="curve"/>
      <point x="423" y="466"/>
      <point x="304" y="335"/>
    </contour>
  </outline>
</glyph>
<glyph name="partialdiff" format="1">
  <advance width="600"/>
  <unicode hex="2202"/>
  <outline>
    <contour>
      <point x="285" y="-10" type="curve"/>
      <point x="460" y="-10"/>
      <point x="570" y="128"/>
      <point x="570" y="317" type="curve"/>
      <point x="570" y="585"/>
      <point x="402" y="746"/>
      <point x="143" y="746" type="curve"/>
      <point x="121" y="618" type="line"/>
      <point x="305" y="618"/>
      <point x="420" y="518"/>
      <point x="420" y="356" type="curve"/>
      <point x="463" y="331" type="line"/>
      <point x="435" y="424"/>
      <point x="373" y="470"/>
      <point x="277" y="470" type="curve"/>
      <point x="134" y="470"/>
      <point x="30" y="366"/>
      <point x="30" y="223" type="curve"/>
      <point x="30" y="79"/>
      <point x="128" y="-10"/>
    </contour>
    <contour>
      <point x="291" y="115" type="curve"/>
      <point x="224" y="115"/>
      <point x="181" y="157"/>
      <point x="181" y="224" type="curve"/>
      <point x="181" y="300"/>
      <point x="229" y="350"/>
      <point x="302" y="350" type="curve"/>
      <point x="369" y="350"/>
      <point x="411" y="309"/>
      <point x="411" y="242" type="curve"/>
      <point x="411" y="170"/>
      <point x="359" y="115"/>
    </contour>
  </outline>
</glyph>
<glyph name="emptyset" format="1">
  <advance width="600"/>
  <unicode hex="2205"/>
  <outline>
    <contour>
      <point x="4" y="-24" type="line"/>
      <point x="82" y="-89" type="line"/>
      <point x="596" y="524" type="line"/>
      <point x="518" y="589" type="line"/>
    </contour>
    <contour>
      <point x="300" y="-5" type="curve"/>
      <point x="447" y="-5"/>
      <point x="555" y="108"/>
      <point x="555" y="250" type="curve"/>
      <point x="555" y="391"/>
      <point x="447" y="505"/>
      <point x="300" y="505" type="curve"/>
      <point x="153" y="505"/>
      <point x="45" y="391"/>
      <point x="45" y="250" type="curve"/>
      <point x="45" y="108"/>
      <point x="153" y="-5"/>
    </contour>
    <contour>
      <point x="300" y="113" type="curve"/>
      <point x="217" y="113"/>
      <point x="165" y="175"/>
      <point x="165" y="250" type="curve"/>
      <point x="165" y="325"/>
      <point x="217" y="387"/>
      <point x="300" y="387" type="curve"/>
      <point x="383" y="387"/>
      <point x="435" y="325"/>
      <point x="435" y="250" type="curve"/>
      <point x="435" y="175"/>
      <point x="383" y="113"/>
    </contour>
  </outline>
</glyph>
<glyph name="product" format="1">
  <advance width="600"/>
  <unicode hex="220F"/>
  <outline>
    <contour>
      <point x="384" y="710" type="line"/>
      <point x="384" y="0" type="line"/>
      <point x="530" y="0" type="line"/>
      <point x="530" y="710" type="line"/>
    </contour>
    <contour>
      <point x="70" y="710" type="line"/>
      <point x="70" y="0" type="line"/>
      <point x="216" y="0" type="line"/>
      <point x="216" y="710" type="line"/>
    </contour>
    <contour>
      <point x="148" y="710" type="line"/>
      <point x="148" y="580" type="line"/>
      <point x="450" y="580" type="line"/>
      <point x="450" y="710" type="line"/>
    </contour>
  </outline>
</glyph>
<glyph name="summation" format="1">
  <advance width="600"/>
  <unicode hex="2211"/>
  <outline>
    <contour>
      <point x="568" y="-200" type="line"/>
      <point x="568" y="-64" type="line"/>
      <point x="206" y="-64" type="line"/>
      <point x="206" y="-90" type="line"/>
      <point x="458" y="255" type="line"/>
      <point x="202" y="608" type="line"/>
      <point x="202" y="574" type="line"/>
      <point x="568" y="574" type="line"/>
      <point x="568" y="710" type="line"/>
      <point x="31" y="710" type="line"/>
      <point x="31" y="599" type="line"/>
      <point x="293" y="239" type="line"/>
      <point x="294" y="273" type="line"/>
      <point x="31" y="-88" type="line"/>
      <point x="31" y="-200" type="line"/>
    </contour>
  </outline>
</glyph>
<glyph name="uni2215" format="1">
  <advance width="600"/>
  <unicode hex="2215"/>
  <outline>
    <contour>
      <point x="357" y="740" type="line"/>
      <point x="107" y="-200" type="line"/>
      <point x="244" y="-200" type="line"/>
      <point x="494" y="740" type="line"/>
    </contour>
  </outline>
</glyph>
<glyph name="uni2219" format="1">
  <advance width="600"/>
  <unicode hex="2219"/>
  <outline>
    <contour>
      <point x="300" y="96" type="curve"/>
      <point x="396" y="96"/>
      <point x="471" y="169"/>
      <point x="471" y="267" type="curve"/>
      <point x="471" y="365"/>
      <point x="396" y="438"/>
      <point x="300" y="438" type="curve"/>
      <point x="204" y="438"/>
      <point x="130" y="365"/>
      <point x="130" y="267" type="curve"/>
      <point x="130" y="169"/>
      <point x="204" y="96"/>
    </contour>
  </outline>
</glyph>
<glyph name="radical" format="1">
  <advance width="600"/>
  <unicode hex="221A"/>
  <outline>
    <contour>
      <point x="580" y="710" type="line"/>
      <point x="439" y="710" type="line"/>
      <point x="261" y="35" type="line"/>
      <point x="308" y="35" type="line"/>
      <point x="229" y="508" type="line"/>
      <point x="10" y="508" type="line"/>
      <point x="10" y="387" type="line"/>
      <point x="99" y="387" type="line"/>
      <point x="175" y="0" type="line"/>
      <point x="383" y="0" type="line"/>
    </contour>
  </outline>
</glyph>
<glyph name="infinity" format="1">
  <advance width="917"/>
  <unicode hex="221E"/>
  <outline>
    <contour>
      <point x="263" y="29" type="curve"/>
      <point x="363" y="29"/>
      <point x="454" y="107"/>
      <point x="483" y="198" type="curve"/>
      <point x="438" y="264" type="line"/>
      <point x="382" y="189"/>
      <point x="332" y="155"/>
      <point x="277" y="155" type="curve"/>
      <point x="213" y="155"/>
      <point x="174" y="192"/>
      <point x="174" y="252" type="curve"/>
      <point x="174" y="315"/>
      <point x="207" y="353"/>
      <point x="260" y="353" type="curve"/>
      <point x="393" y="353"/>
      <point x="427" y="29"/>
      <point x="656" y="29" type="curve"/>
      <point x="789" y="29"/>
      <point x="882" y="123"/>
      <point x="882" y="259" type="curve"/>
      <point x="882" y="384"/>
      <point x="784" y="478"/>
      <point x="654" y="478" type="curve"/>
      <point x="553" y="478"/>
      <point x="460" y="399"/>
      <point x="434" y="309" type="curve"/>
      <point x="479" y="243" type="line"/>
      <point x="535" y="318"/>
      <point x="585" y="352"/>
      <point x="640" y="352" type="curve"/>
      <point x="703" y="352"/>
      <point x="743" y="314"/>
      <point x="743" y="255" type="curve"/>
      <point x="743" y="192"/>
      <point x="710" y="154"/>
      <point x="657" y="154" type="curve"/>
      <point x="524" y="154"/>
      <point x="490" y="478"/>
      <point x="262" y="478" type="curve"/>
      <point x="127" y="478"/>
      <point x="35" y="385"/>
      <point x="35" y="248" type="curve"/>
      <point x="35" y="122"/>
      <point x="132" y="29"/>
    </contour>
  </outline>
</glyph>
